SplineFontDB: 3.0
FontName: SimplySans-BoldItalic
FullName: Simply Sans Bold Italic
FamilyName: Simply Sans
Weight: Bold
Copyright: Copyright (c) 2020-2024 by Wojciech Kalinowski "wmk69" with Reserved Font Name "SimplySans-BoldItalic".\nThis Font Software is licensed under the SIL Open Font License, Version 1.1.
Version: 1.0.1; 2021-05-15
ItalicAngle: -12
UnderlinePosition: -80
UnderlineWidth: 320
Ascent: 1638
Descent: 410
InvalidEm: 0
LayerCount: 2
Layer: 0 1 "Warstwa t+AUIA-a" 1
Layer: 1 1 "Plan pierwszy" 0
XUID: [1021 783 23647091 2952791]
StyleMap: 0x0021
FSType: 0
OS2Version: 3
OS2_WeightWidthSlopeOnly: 0
OS2_UseTypoMetrics: 1
CreationTime: 1260698820
ModificationTime: 1621101660
PfmFamily: 33
TTFWeight: 700
TTFWidth: 5
LineGap: 200
VLineGap: 0
Panose: 2 11 8 5 2 2 3 13 2 4
OS2TypoAscent: 2000
OS2TypoAOffset: 0
OS2TypoDescent: -500
OS2TypoDOffset: 0
OS2TypoLinegap: 200
OS2WinAscent: 2000
OS2WinAOffset: 0
OS2WinDescent: 500
OS2WinDOffset: 0
HheadAscent: 2000
HheadAOffset: 0
HheadDescent: -500
HheadDOffset: 0
OS2SubXSize: 1434
OS2SubYSize: 1331
OS2SubXOff: 0
OS2SubYOff: 287
OS2SupXSize: 1434
OS2SupYSize: 1331
OS2SupXOff: 0
OS2SupYOff: 977
OS2StrikeYSize: 102
OS2StrikeYPos: 512
OS2CapHeight: 1510
OS2XHeight: 1100
OS2Vendor: '    '
OS2CodePages: 20000093.00000000
OS2UnicodeRanges: 8000002f.4000204b.00000000.00000000
Lookup: 258 0 0 "'kern' Horizontal Kerning lookup 0" { "'kern' Horizontal Kerning lookup 0-1 subtable" [307,0,4] } ['kern' ('DFLT' <'dflt' > 'grek' <'dflt' > 'latn' <'dflt' > ) ]
MarkAttachClasses: 1
DEI: 91125
KernClass2: 70 53 "'kern' Horizontal Kerning lookup 0-1 subtable"
 84 A Agrave Aacute Acircumflex Atilde Adieresis Aring Amacron Abreve Aogonek Aringacute
 28 B germandbls uni1E02 uni1E9E
 47 C Ccedilla Cacute Ccircumflex Cdotaccent Ccaron
 122 D O Q Eth Ograve Oacute Ocircumflex Otilde Odieresis Oslash Dcaron Dcroat Omacron Obreve Ohungarumlaut Oslashacute uni1E0A

StartChar: .notdef
Encoding: 65536 -1 0
Width: 1114
Flags: W
HStem: 0 118<363 801> 1392 118<634 1072>
VStem: 150 814<0 814> 471 814<696 1510>
DStem2: 150 0 337.918 0 0.207912 0.978148<159.707 1462.21> 775.918 0 964 0 0.207912 0.978148<120.636 1423.14>
LayerCount: 2
Fore
SplineSet
150 0 m 1,0,-1
 471 1510 l 1,1,-1
 1285 1510 l 1,2,-1
 964 0 l 1,3,-1
 150 0 l 1,0,-1
363 118 m 1,4,-1
 801 118 l 1,5,-1
 1072 1392 l 1,6,-1
 634 1392 l 1,7,-1
 363 118 l 1,4,-1
EndSplineSet
Validated: 1
EndChar

StartChar: exclam
Encoding: 33 33 4
Width: 692
GlyphClass: 2
Flags: W
HStem: -20 365<262.131 496.878> 1490 20G<536 790>
VStem: 200 360<42.5657 282.578> 315 264<413.373 535.866>
LayerCount: 2
Fore
SplineSet
380 -20 m 0,0,1
 304 -20 304 -20 252 34 c 128,-1,2
 200 88 200 88 200 162 c 0,3,4
 200 238 200 238 252 291 c 0,5,6
 305 345 305 345 380 345 c 128,-1,7
 455 345 455 345 507.5 291.5 c 128,-1,8
 560 238 560 238 560 163 c 128,-1,9
 560 88 560 88 507 34 c 128,-1,10
 454 -20 454 -20 380 -20 c 0,0,1
577 1510 m 2,11,-1
 757 1510 l 2,12,13
 823 1509 823 1509 823 1459 c 0,14,15
 823 1447 823 1447 819 1431 c 2,16,-1
 579 479 l 2,17,18
 559 400 559 400 481 400 c 2,19,-1
 381 400 l 2,20,21
 315 400 315 400 315 457 c 0,22,23
 315 467 315 467 317 479 c 2,24,-1
 481 1431 l 2,25,26
 495 1510 495 1510 577 1510 c 2,11,-1
EndSplineSet
Validated: 1
EndChar

StartChar: quotedbl
Encoding: 34 34 5
Width: 736
GlyphClass: 2
Flags: W
HStem: 1150 420<434.031 596.791 754.031 916.791>
VStem: 364 264<1229 1474> 684 264<1229 1474>
LayerCount: 2
Fore
SplineSet
891 1570 m 0,0,1
 913 1570 913 1570 916 1540 c 2,2,-1
 947 1241 l 2,3,4
 948 1231 948 1231 948 1229 c 0,5,6
 948 1203 948 1203 910 1190 c 2,7,-1
 805 1154 l 2,8,9
 793 1150 793 1150 786 1150 c 0,10,11
 763 1150 763 1150 756 1178 c 2,12,-1
 686 1459 l 2,13,14
 684 1467 684 1467 684 1474 c 0,15,16
 684 1504 684 1504 721 1516 c 2,17,-1
 872 1566 l 2,18,19
 884 1570 884 1570 891 1570 c 0,0,1
571 1570 m 0,20,21
 593 1570 593 1570 596 1540 c 2,22,-1
 627 1241 l 2,23,24
 628 1231 628 1231 628 1229 c 0,25,26
 628 1203 628 1203 590 1190 c 2,27,-1
 485 1154 l 2,28,29
 473 1150 473 1150 466 1150 c 0,30,31
 443 1150 443 1150 436 1178 c 2,32,-1
 366 1459 l 2,33,34
 364 1467 364 1467 364 1474 c 0,35,36
 364 1504 364 1504 401 1516 c 2,37,-1
 552 1566 l 2,38,39
 564 1570 564 1570 571 1570 c 0,20,21
EndSplineSet
Validated: 1
EndChar

StartChar: numbersign
Encoding: 35 35 6
Width: 1254
GlyphClass: 2
Flags: W
HStem: 488 190<225.495 465 695 807 1037 1276.5> 829 190<297.495 537 768 879 1110 1349.5>
DStem2: 407.222 216 597.222 216 0.207912 0.978148<32.1539 278.069 511.737 626.587 860.462 1106.41> 749.222 216 939.222 216 0.207912 0.978148<32.1539 278.069 511.737 626.587 860.462 1105.22>
LayerCount: 2
Fore
SplineSet
681 1290 m 2,0,-1
 781 1290 l 2,1,2
 818 1290 818 1290 818 1260 c 0,3,4
 818 1254 818 1254 816 1246 c 2,5,-1
 768 1019 l 1,6,-1
 920 1019 l 1,7,-1
 968 1246 l 2,8,9
 977 1290 977 1290 1021 1290 c 2,10,-1
 1121 1290 l 2,11,12
 1159 1290 1159 1290 1159 1259 c 0,13,14
 1159 1253 1159 1253 1158 1246 c 2,15,-1
 1110 1019 l 1,16,-1
 1336 1019 l 2,17,18
 1373 1019 1373 1019 1373 989 c 0,19,20
 1373 982 1373 982 1371 974 c 2,21,-1
 1350 874 l 2,22,23
 1340 829 1340 829 1295 829 c 2,24,-1
 1069 829 l 1,25,-1
 1037 678 l 1,26,-1
 1263 678 l 2,27,28
 1300 678 1300 678 1300 647 c 0,29,30
 1300 641 1300 641 1299 633 c 2,31,-1
 1277 533 l 2,32,33
 1267 488 1267 488 1223 488 c 2,34,-1
 997 488 l 1,35,-1
 949 262 l 2,36,37
 939 216 939 216 893 216 c 2,38,-1
 793 216 l 2,39,40
 757 216 757 216 757 247 c 0,41,42
 757 254 757 254 759 262 c 2,43,-1
 807 488 l 1,44,-1
 655 488 l 1,45,-1
 607 262 l 2,46,47
 597 216 597 216 553 216 c 2,48,-1
 451 216 l 2,49,50
 415 216 415 216 415 247 c 0,51,52
 415 254 415 254 417 262 c 2,53,-1
 465 488 l 1,54,-1
 239 488 l 2,55,56
 202 488 202 488 202 519 c 0,57,58
 202 525 202 525 203 533 c 2,59,-1
 225 634 l 2,60,61
 234 678 234 678 279 678 c 2,62,-1
 505 678 l 1,63,-1
 537 829 l 1,64,-1
 311 829 l 2,65,66
 274 829 274 829 274 859 c 0,67,68
 274 866 274 866 276 874 c 2,69,-1
 297 975 l 2,70,71
 306 1019 306 1019 352 1019 c 2,72,-1
 578 1019 l 1,73,-1
 626 1246 l 2,74,75
 635 1290 635 1290 681 1290 c 2,0,-1
695 678 m 1,76,-1
 847 678 l 1,77,-1
 879 829 l 1,78,-1
 727 829 l 1,79,-1
 695 678 l 1,76,-1
EndSplineSet
Validated: 1
EndChar

StartChar: dollar
Encoding: 36 36 7
Width: 1251
GlyphClass: 2
Flags: W
HStem: 1146 377<1026.59 1156.62>
VStem: 427 326<1052.26 1221.23> 952 330<398.324 616.668>
DStem2: 533.778 -180 663.928 -180 0.207912 0.978148<24.9222 164.597 517.792 886.913 1256.45 1453.76 1768.12 1913.88>
LayerCount: 2
Fore
SplineSet
629 -180 m 2,0,-1
 569 -180 l 2,1,2
 540 -180 540 -180 540 -156 c 0,3,4
 540 -151 540 -151 541 -145 c 2,5,-1
 568 -19 l 1,6,7
 279 -9 279 -9 154 216 c 0,8,9
 143 234 143 234 143 257 c 0,10,11
 143 295 143 295 193 327 c 2,12,-1
 318 408 l 2,13,14
 349 428 349 428 375 428 c 0,15,16
 411 428 411 428 425 393 c 0,17,18
 469 282 469 282 631 280 c 1,19,-1
 725 719 l 1,20,-1
 649 756 l 2,21,22
 427 864 427 864 427 1081 c 0,23,24
 427 1102 427 1102 429 1124 c 0,25,26
 448 1327 448 1327 629 1447 c 0,27,28
 742 1522 742 1522 897 1529 c 1,29,-1
 924 1655 l 2,30,31
 931 1690 931 1690 966 1690 c 2,32,-1
 1026 1690 l 2,33,34
 1055 1690 1055 1690 1055 1666 c 0,35,36
 1055 1661 1055 1661 1054 1655 c 2,37,-1
 1026 1523 l 1,38,39
 1200 1495 1200 1495 1283 1358 c 0,40,41
 1294 1340 1294 1340 1294 1317 c 0,42,43
 1294 1279 1294 1279 1245 1247 c 2,44,-1
 1120 1166 l 2,45,46
 1089 1146 1089 1146 1063 1146 c 0,47,48
 1027 1146 1027 1146 1013 1181 c 0,49,50
 998 1220 998 1220 965 1238 c 1,51,-1
 911 981 l 1,52,-1
 1061 908 l 2,53,54
 1282 801 1282 801 1282 567 c 0,55,56
 1282 534 1282 534 1277 498 c 0,57,58
 1253 304 1253 304 1096 158 c 0,59,60
 937 11 937 11 699 -15 c 1,61,-1
 671 -145 l 2,62,63
 664 -180 664 -180 629 -180 c 2,0,-1
795 1049 m 1,64,-1
 836 1242 l 1,65,66
 813 1234 813 1234 795 1220 c 0,67,68
 762 1194 762 1194 755 1158 c 0,69,70
 753 1147 753 1147 753 1137 c 0,71,72
 753 1088 753 1088 795 1049 c 1,64,-1
843 661 m 1,73,-1
 766 300 l 1,74,75
 813 316 813 316 853 344 c 0,76,77
 936 402 936 402 950 494 c 0,78,79
 952 508 952 508 952 521 c 0,80,81
 952 608 952 608 860 653 c 2,82,-1
 843 661 l 1,73,-1
EndSplineSet
Validated: 1
EndChar

StartChar: percent
Encoding: 37 37 8
Width: 1786
GlyphClass: 2
Flags: W
HStem: -20 206<1289.18 1484.43> 517 205<1340.61 1535.09> 788 206<572.18 764.616> 1325 205<623.61 818.089>
VStem: 323 226<1043 1247.31> 840 228<1070.89 1291.34> 1040 226<235.002 439.314> 1557 228<262.887 483.342>
DStem2: 396 129 608 0 0.624074 0.781365<-39.0561 1838.59>
LayerCount: 2
Fore
SplineSet
1449.5 517 m 128,-1,1
 1389 517 1389 517 1337.5 469.5 c 128,-1,2
 1286 422 1286 422 1271 352 c 0,3,4
 1266 329 1266 329 1266 308 c 0,5,6
 1266 266 1266 266 1287 234 c 0,7,8
 1318 186 1318 186 1378 186 c 128,-1,9
 1438 186 1438 186 1488 234 c 0,10,11
 1537 282 1537 282 1552 352 c 0,12,13
 1557 375 1557 375 1557 397 c 0,14,15
 1557 438 1557 438 1538 470 c 0,16,0
 1510 517 1510 517 1449.5 517 c 128,-1,1
1353 -20 m 0,17,18
 1188 -20 1188 -20 1106 89 c 0,19,20
 1040 176 1040 176 1040 293 c 0,21,22
 1040 322 1040 322 1044 352 c 0,23,24
 1064 508 1064 508 1183 616 c 0,25,26
 1299 722 1299 722 1471 722 c 0,27,28
 1634 722 1634 722 1718 613 c 0,29,30
 1785 526 1785 526 1785 414 c 0,31,32
 1785 383 1785 383 1780 350 c 0,33,34
 1756 197 1756 197 1641 88 c 0,35,36
 1526 -20 1526 -20 1353 -20 c 0,17,18
732.5 1325 m 128,-1,38
 672 1325 672 1325 620.5 1277.5 c 128,-1,39
 569 1230 569 1230 554 1160 c 0,40,41
 549 1137 549 1137 549 1116 c 0,42,43
 549 1074 549 1074 570 1042 c 0,44,45
 601 994 601 994 661 994 c 128,-1,46
 721 994 721 994 770 1042 c 0,47,48
 820 1090 820 1090 835 1160 c 0,49,50
 840 1183 840 1183 840 1205 c 0,51,52
 840 1246 840 1246 821 1278 c 0,53,37
 793 1325 793 1325 732.5 1325 c 128,-1,38
754 1530 m 0,54,55
 917 1530 917 1530 1001 1421 c 0,56,57
 1068 1334 1068 1334 1068 1222 c 0,58,59
 1068 1191 1068 1191 1063 1158 c 0,60,61
 1039 1005 1039 1005 924 896 c 0,62,63
 809 788 809 788 636 788 c 0,64,65
 471 788 471 788 389 897 c 0,66,67
 323 984 323 984 323 1101 c 0,68,69
 323 1130 323 1130 327 1160 c 0,70,71
 347 1316 347 1316 466 1424 c 0,72,73
 582 1530 582 1530 754 1530 c 0,54,55
544 -40 m 0,74,75
 525 -40 525 -40 502 -27 c 2,76,-1
 401 29 l 2,77,78
 373 45 373 45 373 75 c 24,79,80
 373 100 373 100 396 129 c 2,81,-1
 1499 1510 l 2,82,83
 1531 1550 1531 1550 1564 1550 c 0,84,85
 1581 1550 1581 1550 1604 1537 c 2,86,-1
 1705 1481 l 2,87,88
 1733 1465 1733 1465 1733 1436 c 24,89,90
 1733 1409 1733 1409 1711 1381 c 2,91,-1
 608 0 l 2,92,93
 576 -40 576 -40 544 -40 c 0,74,75
EndSplineSet
Validated: 1
EndChar

StartChar: quotesingle
Encoding: 39 39 9
Width: 416
GlyphClass: 2
Flags: W
HStem: 1150 420<434.031 596.791>
VStem: 364 264<1229 1474>
LayerCount: 2
Fore
SplineSet
571 1570 m 0,0,1
 593 1570 593 1570 596 1540 c 2,2,-1
 627 1241 l 2,3,4
 628 1231 628 1231 628 1229 c 0,5,6
 628 1203 628 1203 590 1190 c 2,7,-1
 485 1154 l 2,8,9
 473 1150 473 1150 466 1150 c 0,10,11
 443 1150 443 1150 436 1178 c 2,12,-1
 366 1459 l 2,13,14
 364 1467 364 1467 364 1474 c 0,15,16
 364 1504 364 1504 401 1516 c 2,17,-1
 552 1566 l 2,18,19
 564 1570 564 1570 571 1570 c 0,0,1
EndSplineSet
Validated: 1
EndChar

StartChar: parenleft
Encoding: 40 40 10
Width: 749
GlyphClass: 2
Flags: W
VStem: 264 302<66.4645 784.157>
LayerCount: 2
Fore
SplineSet
482 -250 m 2,0,1
 414 -250 414 -250 387 -186 c 0,2,3
 264 112 264 112 264 419 c 0,4,5
 264 586 264 586 300 755 c 0,6,7
 404 1242 404 1242 787 1696 c 0,8,9
 841 1760 841 1760 909 1760 c 2,10,-1
 1048 1760 l 2,11,12
 1096 1760 1096 1760 1096 1724 c 0,13,14
 1096 1707 1096 1707 1076 1681 c 0,15,16
 695 1201 695 1201 600 755 c 0,17,18
 566 595 566 595 566 433 c 0,19,20
 566 133 566 133 683 -171 c 0,21,22
 688 -184 688 -184 688 -196 c 0,23,24
 688 -250 688 -250 621 -250 c 2,25,-1
 482 -250 l 2,0,1
EndSplineSet
Validated: 1
EndChar

StartChar: parenright
Encoding: 41 41 11
Width: 749
GlyphClass: 2
Flags: W
VStem: 504 302<725.843 1443.54>
LayerCount: 2
Fore
SplineSet
161 -250 m 2,0,-1
 22 -250 l 2,1,2
 -26 -250 -26 -250 -26 -214 c 0,3,4
 -26 -197 -26 -197 -6 -171 c 0,5,6
 375 309 375 309 470 755 c 0,7,8
 504 915 504 915 504 1077 c 0,9,10
 504 1377 504 1377 387 1681 c 0,11,12
 382 1694 382 1694 382 1706 c 0,13,14
 382 1760 382 1760 449 1760 c 2,15,-1
 588 1760 l 2,16,17
 656 1760 656 1760 683 1696 c 0,18,19
 806 1398 806 1398 806 1091 c 0,20,21
 806 924 806 924 770 755 c 0,22,23
 666 268 666 268 283 -186 c 0,24,25
 229 -250 229 -250 161 -250 c 2,0,-1
EndSplineSet
Validated: 1
EndChar

StartChar: asterisk
Encoding: 42 42 12
Width: 862
GlyphClass: 2
Flags: W
HStem: 1490 20G<679 820.5>
DStem2: 607 1273 330 1205 0.834652 -0.550778<-198.858 -17.6264 299.541 480.979> 477 1108 537 944 0.888975 0.457957<-258.838 -21.7664 360.035 595.344> 486.222 707 676.222 707 0.207912 0.978148<32.1539 242.378 618.246 829.479>
LayerCount: 2
Fore
SplineSet
701 1510 m 2,0,-1
 801 1510 l 2,1,2
 840 1510 840 1510 840 1480 c 0,3,4
 840 1474 840 1474 838 1466 c 2,5,-1
 797 1273 l 1,6,-1
 984 1370 l 2,7,8
 999 1378 999 1378 1012 1378 c 0,9,10
 1032 1378 1032 1378 1041 1353 c 2,11,-1
 1072 1267 l 2,12,13
 1076 1256 1076 1256 1076 1246 c 0,14,15
 1076 1222 1076 1222 1044 1205 c 2,16,-1
 857 1108 l 1,17,-1
 1001 1013 l 2,18,19
 1019 1001 1019 1001 1019 983 c 0,20,21
 1019 968 1019 968 1005 950 c 2,22,-1
 937 864 l 2,23,24
 918 840 918 840 898 840 c 0,25,26
 883 840 883 840 871 848 c 2,27,-1
 727 944 l 1,28,-1
 686 753 l 2,29,30
 676 707 676 707 630 707 c 2,31,-1
 530 707 l 2,32,33
 494 707 494 707 494 738 c 0,34,35
 494 745 494 745 496 753 c 2,36,-1
 537 944 l 1,37,-1
 351 848 l 2,38,39
 336 840 336 840 323 840 c 0,40,41
 301 840 301 840 292 865 c 2,42,-1
 260 952 l 2,43,44
 257 960 257 960 257 969 c 0,45,46
 257 996 257 996 291 1013 c 2,47,-1
 477 1108 l 1,48,-1
 330 1205 l 2,49,50
 314 1216 314 1216 314 1234 c 0,51,52
 314 1248 314 1248 327 1265 c 2,53,-1
 395 1352 l 2,54,55
 415 1377 415 1377 437 1377 c 0,56,57
 449 1377 449 1377 460 1370 c 2,58,-1
 607 1273 l 1,59,-1
 648 1466 l 2,60,61
 657 1510 657 1510 701 1510 c 2,0,-1
EndSplineSet
Validated: 1
EndChar

StartChar: plus
Encoding: 43 43 13
Width: 1133
GlyphClass: 2
Flags: W
HStem: 630 250<269.656 576 879 1184.34>
DStem2: 500.971 278 750.971 278 0.207912 0.978148<45.6378 359.907 667.441 980.525>
LayerCount: 2
Fore
SplineSet
768 1232 m 2,0,-1
 888 1232 l 2,1,2
 942 1232 942 1232 942 1187 c 0,3,4
 942 1177 942 1177 940 1166 c 2,5,-1
 879 880 l 1,6,-1
 1165 880 l 2,7,8
 1218 880 1218 880 1218 836 c 0,9,10
 1218 827 1218 827 1216 815 c 2,11,-1
 1191 695 l 2,12,13
 1177 630 1177 630 1112 630 c 2,14,-1
 826 630 l 1,15,-1
 765 344 l 2,16,17
 751 278 751 278 685 278 c 2,18,-1
 565 278 l 2,19,20
 512 278 512 278 512 322 c 0,21,22
 512 332 512 332 515 344 c 2,23,-1
 576 630 l 1,24,-1
 289 630 l 2,25,26
 236 630 236 630 236 674 c 0,27,28
 236 683 236 683 238 695 c 2,29,-1
 263 815 l 2,30,31
 277 880 277 880 342 880 c 2,32,-1
 629 880 l 1,33,-1
 690 1166 l 2,34,35
 704 1232 704 1232 768 1232 c 2,0,-1
EndSplineSet
Validated: 1
EndChar

StartChar: comma
Encoding: 44 44 14
Width: 415
GlyphClass: 2
Flags: W
HStem: -317 637
VStem: 135 248<-68.8125 187.406>
LayerCount: 2
Fore
SplineSet
284 320 m 128,-1,1
 306 320 306 320 326 297 c 0,2,3
 383 232 383 232 383 129 c 0,4,5
 383 84 383 84 372 32 c 0,6,7
 333 -154 333 -154 150 -296 c 0,8,9
 123 -317 123 -317 100 -317 c 0,10,11
 82 -317 82 -317 65 -302 c 2,12,-1
 17 -259 l 2,13,14
 3 -247 3 -247 3 -230 c 128,-1,15
 3 -213 3 -213 26 -195 c 0,16,17
 100 -133 100 -133 127 -12 c 0,18,19
 135 24 135 24 135 54 c 0,20,21
 135 111 135 111 107 149 c 0,22,23
 92 169 92 169 92 188 c 0,24,25
 92 218 92 218 135 244 c 2,26,-1
 240 307 l 2,27,0
 262 320 262 320 284 320 c 128,-1,1
EndSplineSet
Validated: 1
EndChar

StartChar: hyphen
Encoding: 45 45 15
Width: 1133
GlyphClass: 2
Flags: W
HStem: 630 250<269.656 1184.34>
LayerCount: 2
Fore
SplineSet
342 880 m 2,0,-1
 1165 880 l 2,1,2
 1218 880 1218 880 1218 836 c 0,3,4
 1218 827 1218 827 1216 815 c 2,5,-1
 1191 695 l 2,6,7
 1177 630 1177 630 1112 630 c 2,8,-1
 289 630 l 2,9,10
 236 630 236 630 236 674 c 0,11,12
 236 683 236 683 238 695 c 2,13,-1
 263 815 l 2,14,15
 277 880 277 880 342 880 c 2,0,-1
EndSplineSet
Validated: 1
EndChar

StartChar: period
Encoding: 46 46 16
Width: 460
GlyphClass: 2
Flags: W
HStem: -20 365<146.131 380.878>
VStem: 84 360<42.5657 282.578>
LayerCount: 2
Fore
SplineSet
264 -20 m 0,0,1
 188 -20 188 -20 136 34 c 128,-1,2
 84 88 84 88 84 162 c 0,3,4
 84 238 84 238 136 291 c 0,5,6
 189 345 189 345 264 345 c 128,-1,7
 339 345 339 345 391.5 291.5 c 128,-1,8
 444 238 444 238 444 163 c 128,-1,9
 444 88 444 88 391 34 c 128,-1,10
 338 -20 338 -20 264 -20 c 0,0,1
EndSplineSet
Validated: 1
EndChar

StartChar: slash
Encoding: 47 47 17
Width: 1194
GlyphClass: 2
Flags: W
DStem2: 27 19 249 -110 0.612163 0.790731<-36.2731 2098>
LayerCount: 2
Fore
SplineSet
1333 1662 m 0,0,1
 1347 1662 1347 1662 1373 1649 c 2,2,-1
 1484 1593 l 2,3,4
 1511 1579 1511 1579 1511 1549 c 0,5,6
 1511 1521 1511 1521 1489 1493 c 2,7,-1
 249 -110 l 2,8,9
 218 -150 218 -150 185 -150 c 0,10,11
 169 -150 169 -150 143 -137 c 2,12,-1
 32 -81 l 2,13,14
 4 -67 4 -67 4 -34 c 0,15,16
 4 -11 4 -11 27 19 c 2,17,-1
 1268 1622 l 2,18,19
 1299 1662 1299 1662 1333 1662 c 0,0,1
EndSplineSet
Validated: 1
EndChar

StartChar: zero
Encoding: 48 48 18
Width: 1574
GlyphClass: 2
Flags: W
HStem: -20 300<676.387 1037.19> 1230 300<857.598 1218.31>
VStem: 214 328<422.701 850.599> 1352 329<659.401 1088.86>
LayerCount: 2
Fore
SplineSet
848 280 m 0,0,1
 1021 280 1021 280 1149 404 c 0,2,3
 1290 540 1290 540 1335 755 c 0,4,5
 1352 834 1352 834 1352 902 c 0,6,7
 1352 1023 1352 1023 1298 1106 c 0,8,9
 1218 1230 1218 1230 1047 1230 c 0,10,11
 874 1230 874 1230 746 1106 c 24,12,13
 605 970 605 970 559 755 c 0,14,15
 542 677 542 677 542 610 c 0,16,17
 542 489 542 489 597 404 c 0,18,19
 677 280 677 280 848 280 c 0,0,1
810 -20 m 0,20,21
 485 -20 485 -20 326 211 c 0,22,23
 214 373 214 373 214 607 c 0,24,25
 214 678 214 678 224 755 c 0,26,27
 265 1064 265 1064 502 1299 c 0,28,29
 735 1530 735 1530 1084 1530 c 0,30,31
 1410 1530 1410 1530 1569 1299 c 0,32,33
 1681 1137 1681 1137 1681 903 c 0,34,35
 1681 832 1681 832 1671 755 c 0,36,37
 1630 446 1630 446 1393 211 c 0,38,39
 1160 -20 1160 -20 810 -20 c 0,20,21
EndSplineSet
Validated: 1
EndChar

StartChar: one
Encoding: 49 49 19
Width: 760
GlyphClass: 2
Flags: W
HStem: 0 21G<297 530> 1210 300<336.438 507>
VStem: 264 613
DStem2: 250.208 0 570.208 0 0.207912 0.978148<62.183 1236.95>
LayerCount: 2
Fore
SplineSet
490 0 m 2,0,-1
 330 0 l 2,1,2
 264 0 264 0 264 54 c 0,3,4
 264 65 264 65 267 79 c 2,5,-1
 507 1210 l 1,6,-1
 357 1210 l 2,7,8
 291 1210 291 1210 291 1264 c 0,9,10
 291 1275 291 1275 294 1289 c 2,11,-1
 324 1431 l 2,12,13
 341 1510 341 1510 421 1510 c 2,14,-1
 811 1510 l 2,15,16
 877 1510 877 1510 877 1456 c 0,17,18
 877 1445 877 1445 874 1431 c 2,19,-1
 587 79 l 2,20,21
 570 0 570 0 490 0 c 2,0,-1
EndSplineSet
Validated: 1
EndChar

StartChar: two
Encoding: 50 50 20
Width: 1193
GlyphClass: 2
Flags: W
HStem: 0 300<640 1127.56> 1230 300<669.983 962.499>
VStem: 1016 327<936.768 1178.55>
DStem2: 743 716 640 300 0.804955 0.593336<-329.738 323.197>
LayerCount: 2
Fore
SplineSet
1043 0 m 2,0,-1
 130 0 l 2,1,2
 64 0 64 0 64 54 c 0,3,4
 64 65 64 65 67 79 c 2,5,-1
 93 204 l 2,6,7
 101 243 101 243 142 273 c 2,8,-1
 743 716 l 2,9,10
 984 894 984 894 1010 1018 c 0,11,12
 1016 1047 1016 1047 1016 1073 c 0,13,14
 1016 1125 1016 1125 990 1160 c 0,15,16
 937 1230 937 1230 816 1230 c 0,17,18
 688 1230 688 1230 591 1115 c 24,19,20
 553 1070 553 1070 523 1070 c 0,21,22
 498 1070 498 1070 479 1081 c 2,23,-1
 335 1163 l 2,24,25
 305 1180 305 1180 305 1210 c 0,26,27
 305 1236 305 1236 325 1269 c 0,28,29
 363 1330 363 1330 419 1381 c 0,30,31
 584 1530 584 1530 850 1530 c 0,32,33
 1115 1530 1115 1530 1242 1377 c 0,34,35
 1343 1256 1343 1256 1343 1102 c 0,36,37
 1343 1060 1343 1060 1335 1015 c 0,38,39
 1287 740 1287 740 931 498 c 2,40,-1
 640 300 l 1,41,-1
 1107 300 l 2,42,43
 1173 300 1173 300 1173 246 c 0,44,45
 1173 235 1173 235 1170 221 c 2,46,-1
 1140 79 l 2,47,48
 1123 0 1123 0 1043 0 c 2,0,-1
EndSplineSet
Validated: 1
EndChar

StartChar: three
Encoding: 51 51 21
Width: 1159
GlyphClass: 2
Flags: W
HStem: -20 300<444.013 760.952> 1210 300<435.438 810>
VStem: 890 320<403.757 648.068>
LayerCount: 2
Fore
SplineSet
561 -20 m 0,0,1
 294 -20 294 -20 175 128 c 0,2,3
 129 185 129 185 106 250 c 0,4,5
 100 267 100 267 100 285 c 0,6,7
 100 328 100 328 162 356 c 2,8,-1
 297 418 l 2,9,10
 321 429 321 429 345 429 c 0,11,12
 376 429 376 429 395 384 c 0,13,14
 406 357 406 357 430 335 c 0,15,16
 492 280 492 280 595 280 c 0,17,18
 710 280 710 280 797 350 c 0,19,20
 865 404 865 404 884 492 c 0,21,22
 890 520 890 520 890 543 c 0,23,24
 890 597 890 597 860 633 c 0,25,26
 806 697 806 697 683 697 c 2,27,-1
 441 697 l 2,28,29
 394 697 394 697 394 729 c 0,30,31
 394 756 394 756 419 783 c 2,32,-1
 810 1210 l 1,33,-1
 456 1210 l 2,34,35
 390 1210 390 1210 390 1264 c 0,36,37
 390 1275 390 1275 393 1289 c 2,38,-1
 423 1431 l 2,39,40
 440 1510 440 1510 520 1510 c 2,41,-1
 1198 1510 l 2,42,43
 1264 1510 1264 1510 1264 1456 c 0,44,45
 1264 1445 1264 1445 1261 1431 c 2,46,-1
 1231 1289 l 2,47,48
 1225 1259 1225 1259 1194 1225 c 2,49,-1
 953 961 l 1,50,51
 1041 927 1041 927 1105 858 c 0,52,53
 1210 744 1210 744 1210 578 c 0,54,55
 1210 538 1210 538 1204 495 c 0,56,57
 1174 285 1174 285 1007 133 c 0,58,59
 839 -20 839 -20 561 -20 c 0,0,1
EndSplineSet
Validated: 1
EndChar

StartChar: four
Encoding: 52 52 22
Width: 1188
GlyphClass: 2
Flags: W
HStem: 0 21G<775 1008> 255 300<527 782> 1080 20G<1002 1235> 1490 20G<819 1081>
DStem2: 147 523 527 555 0.538587 0.84257<231.625 1196.37> 728.208 0 1048.21 0 0.207912 0.978148<62.183 260.612 567.362 1128.88>
LayerCount: 2
Fore
SplineSet
808 0 m 2,0,1
 742 0 742 0 742 54 c 0,2,3
 742 65 742 65 745 79 c 2,4,-1
 782 255 l 1,5,-1
 154 255 l 2,6,7
 88 255 88 255 88 309 c 0,8,9
 88 320 88 320 91 334 c 2,10,-1
 115 449 l 2,11,12
 122 483 122 483 147 523 c 2,13,-1
 737 1446 l 2,14,15
 778 1510 778 1510 860 1510 c 2,16,-1
 1058 1510 l 2,17,18
 1104 1510 1104 1510 1104 1480 c 0,19,20
 1104 1461 1104 1461 1085 1431 c 2,21,-1
 527 555 l 1,22,-1
 846 555 l 1,23,-1
 945 1021 l 2,24,25
 962 1100 962 1100 1042 1100 c 2,26,-1
 1202 1100 l 2,27,28
 1268 1100 1268 1100 1268 1046 c 0,29,30
 1268 1035 1268 1035 1265 1021 c 2,31,-1
 1065 79 l 2,32,33
 1048 0 1048 0 968 0 c 2,34,-1
 808 0 l 2,0,1
EndSplineSet
Validated: 1
EndChar

StartChar: five
Encoding: 53 53 23
Width: 1199
GlyphClass: 2
Flags: W
HStem: -20 300<485.09 800.952> 697 301<712 878.981> 1210 300<757 1272.56>
VStem: 930 320<403.757 648.068>
LayerCount: 2
Fore
SplineSet
601 -20 m 0,0,1
 340 -20 340 -20 215 128 c 0,2,3
 169 185 169 185 146 250 c 0,4,5
 140 267 140 267 140 285 c 0,6,7
 140 328 140 328 202 356 c 2,8,-1
 337 418 l 2,9,10
 361 429 361 429 385 429 c 0,11,12
 416 429 416 429 435 384 c 0,13,14
 446 357 446 357 470 335 c 0,15,16
 532 280 532 280 635 280 c 0,17,18
 750 280 750 280 837 350 c 0,19,20
 905 404 905 404 924 492 c 0,21,22
 930 520 930 520 930 543 c 0,23,24
 930 597 930 597 900 633 c 0,25,26
 846 697 846 697 723 697 c 2,27,-1
 411 697 l 2,28,29
 345 697 345 697 345 751 c 0,30,31
 345 762 345 762 348 776 c 2,32,-1
 487 1431 l 2,33,34
 504 1510 504 1510 584 1510 c 2,35,-1
 1252 1510 l 2,36,37
 1318 1510 1318 1510 1318 1456 c 0,38,39
 1318 1445 1318 1445 1315 1431 c 2,40,-1
 1285 1289 l 2,41,42
 1268 1210 1268 1210 1188 1210 c 2,43,-1
 757 1210 l 1,44,-1
 712 998 l 1,45,-1
 772 998 l 2,46,47
 1013 998 1013 998 1145 858 c 0,48,49
 1250 744 1250 744 1250 578 c 0,50,51
 1250 538 1250 538 1244 495 c 0,52,53
 1214 285 1214 285 1047 133 c 0,54,55
 879 -20 879 -20 601 -20 c 0,0,1
EndSplineSet
Validated: 1
EndChar

StartChar: six
Encoding: 54 54 24
Width: 1271
GlyphClass: 2
Flags: W
HStem: -20 300<558.021 851.49> 729 297<740.5 924.721> 1490 20G<900 1187.5>
VStem: 171 323<341.555 594.323> 992 321<415.063 663.783>
DStem2: 813 1446 1192 1431 0.632231 0.77478<-327.75 118.084>
LayerCount: 2
Fore
SplineSet
661 -20 m 0,0,1
 418 -20 418 -20 284 127 c 0,2,3
 171 252 171 252 171 426 c 0,4,5
 171 460 171 460 175 495 c 0,6,7
 198 692 198 692 334 859 c 2,8,-1
 813 1446 l 2,9,10
 865 1510 865 1510 935 1510 c 2,11,-1
 1164 1510 l 2,12,13
 1211 1510 1211 1510 1211 1476 c 0,14,15
 1211 1453 1211 1453 1192 1431 c 2,16,-1
 824 1014 l 1,17,18
 858 1026 858 1026 892 1026 c 0,19,20
 1093 1026 1093 1026 1212 880 c 0,21,22
 1313 756 1313 756 1313 585 c 0,23,24
 1313 546 1313 546 1308 505 c 0,25,26
 1280 283 1280 283 1092 129 c 0,27,28
 910 -20 910 -20 661 -20 c 0,0,1
694.5 280 m 128,-1,30
 794 280 794 280 881 344 c 0,31,32
 965 406 965 406 986 504 c 0,33,34
 992 530 992 530 992 553 c 0,35,36
 992 619 992 619 948 665 c 0,37,38
 889 729 889 729 790 729 c 128,-1,39
 691 729 691 729 605 666 c 0,40,41
 522 604 522 604 500 504 c 0,42,43
 494 478 494 478 494 454 c 0,44,45
 494 389 494 389 537 343 c 0,46,29
 595 280 595 280 694.5 280 c 128,-1,30
EndSplineSet
Validated: 1
EndChar

StartChar: seven
Encoding: 55 55 25
Width: 1029
GlyphClass: 2
Flags: W
HStem: 0 21G<151 422> 1210 300<336.438 867>
DStem2: 867 1210 1257 1242 0.538587 0.84257<-1262.01 0>
LayerCount: 2
Fore
SplineSet
381 0 m 2,0,-1
 173 0 l 2,1,2
 129 0 129 0 129 33 c 0,3,4
 129 52 129 52 146 79 c 2,5,-1
 867 1210 l 1,6,-1
 357 1210 l 2,7,8
 291 1210 291 1210 291 1264 c 0,9,10
 291 1275 291 1275 294 1289 c 2,11,-1
 324 1431 l 2,12,13
 341 1510 341 1510 421 1510 c 2,14,-1
 1250 1510 l 2,15,16
 1316 1510 1316 1510 1316 1456 c 0,17,18
 1316 1445 1316 1445 1313 1431 c 2,19,-1
 1289 1316 l 2,20,21
 1282 1282 1282 1282 1257 1242 c 2,22,-1
 504 64 l 2,23,24
 463 0 463 0 381 0 c 2,0,-1
EndSplineSet
Validated: 1
EndChar

StartChar: eight
Encoding: 56 56 26
Width: 1210
GlyphClass: 2
Flags: W
HStem: -20 293<521.556 826.441> 686 271<687.414 895.82> 1264 266<732.418 992.59>
VStem: 138 321<333.999 565.806> 364 289<996.175 1188.21> 955 322<395.246 627.992> 1028 292<1031.9 1224.36>
LayerCount: 2
Fore
SplineSet
873 1264 m 0,0,1
 794 1264 794 1264 732 1220 c 0,2,3
 669 1175 669 1175 656 1110 c 0,4,5
 653 1094 653 1094 653 1079 c 0,6,7
 653 1033 653 1033 686 1000 c 0,8,9
 731 957 731 957 807 957 c 0,10,11
 886 957 886 957 947 999 c 0,12,13
 1011 1045 1011 1045 1025 1111 c 0,14,15
 1028 1127 1028 1127 1028 1142 c 0,16,17
 1028 1188 1028 1188 995 1220 c 0,18,19
 951 1264 951 1264 873 1264 c 0,0,1
751.5 686 m 128,-1,21
 650 686 650 686 565 627 c 0,22,23
 482 568 482 568 464 480 c 0,24,25
 459 458 459 458 459 438 c 0,26,27
 459 377 459 377 503 332 c 0,28,29
 562 273 562 273 664 273 c 0,30,31
 770 273 770 273 848 331 c 0,32,33
 931 391 931 391 950 480 c 0,34,35
 955 503 955 503 955 524 c 0,36,37
 955 586 955 586 911 628 c 0,38,20
 853 686 853 686 751.5 686 c 128,-1,21
631 -20 m 0,39,40
 387 -20 387 -20 253 120 c 0,41,42
 138 240 138 240 138 415 c 0,43,44
 138 444 138 444 141 474 c 0,45,46
 165 707 165 707 387 828 c 0,47,48
 420 846 420 846 440 853 c 1,49,50
 364 945 364 945 364 1062 c 0,51,52
 364 1086 364 1086 367 1111 c 0,53,54
 389 1290 389 1290 540 1410 c 0,55,56
 690 1530 690 1530 898 1530 c 0,57,58
 1094 1530 1094 1530 1219 1411 c 0,59,60
 1320 1312 1320 1312 1320 1176 c 0,61,62
 1320 1145 1320 1145 1315 1111 c 0,63,64
 1290 956 1290 956 1133 855 c 1,65,66
 1147 843 1147 843 1160 831 c 0,67,68
 1277 715 1277 715 1277 549 c 0,69,70
 1277 515 1277 515 1272 478 c 0,71,72
 1244 268 1244 268 1060 120 c 0,73,74
 886 -20 886 -20 631 -20 c 0,39,40
EndSplineSet
Validated: 1
EndChar

StartChar: nine
Encoding: 57 57 27
Width: 1271
GlyphClass: 2
Flags: W
HStem: 0 21G<404.5 692> 484 297<667.279 851.5> 1230 300<740.51 1033.98>
VStem: 279 321<846.217 1094.94> 1098 323<915.677 1168.45>
DStem2: 400 79 779 64 0.632231 0.77478<109.91 555.744>
LayerCount: 2
Fore
SplineSet
657 0 m 2,0,-1
 428 0 l 2,1,2
 381 0 381 0 381 34 c 0,3,4
 381 57 381 57 400 79 c 2,5,-1
 768 496 l 1,6,7
 734 484 734 484 700 484 c 0,8,9
 499 484 499 484 380 630 c 0,10,11
 279 754 279 754 279 925 c 0,12,13
 279 964 279 964 284 1005 c 0,14,15
 312 1227 312 1227 500 1381 c 0,16,17
 682 1530 682 1530 931 1530 c 0,18,19
 1174 1530 1174 1530 1308 1383 c 0,20,21
 1421 1258 1421 1258 1421 1084 c 0,22,23
 1421 1050 1421 1050 1417 1015 c 0,24,25
 1394 818 1394 818 1258 651 c 2,26,-1
 779 64 l 2,27,28
 727 0 727 0 657 0 c 2,0,-1
897.5 1230 m 128,-1,30
 798 1230 798 1230 711 1166 c 0,31,32
 627 1104 627 1104 606 1006 c 0,33,34
 600 980 600 980 600 957 c 0,35,36
 600 891 600 891 644 845 c 0,37,38
 703 781 703 781 802 781 c 128,-1,39
 901 781 901 781 987 844 c 0,40,41
 1070 906 1070 906 1092 1006 c 0,42,43
 1098 1032 1098 1032 1098 1056 c 0,44,45
 1098 1121 1098 1121 1055 1167 c 0,46,29
 997 1230 997 1230 897.5 1230 c 128,-1,30
EndSplineSet
Validated: 1
EndChar

StartChar: colon
Encoding: 58 58 28
Width: 460
GlyphClass: 2
Flags: W
HStem: -20 365<146.131 380.878> 573 365<272.131 506.878>
VStem: 84 360<42.5657 282.578> 210 360<635.566 875.578>
LayerCount: 2
Fore
SplineSet
390 938 m 128,-1,1
 465 938 465 938 517.5 884.5 c 128,-1,2
 570 831 570 831 570 756 c 128,-1,3
 570 681 570 681 517 627 c 128,-1,4
 464 573 464 573 390 573 c 0,5,6
 314 573 314 573 262 627 c 128,-1,7
 210 681 210 681 210 755 c 0,8,9
 210 831 210 831 262 884 c 0,10,0
 315 938 315 938 390 938 c 128,-1,1
264 -20 m 0,11,12
 188 -20 188 -20 136 34 c 128,-1,13
 84 88 84 88 84 162 c 0,14,15
 84 238 84 238 136 291 c 0,16,17
 189 345 189 345 264 345 c 128,-1,18
 339 345 339 345 391.5 291.5 c 128,-1,19
 444 238 444 238 444 163 c 128,-1,20
 444 88 444 88 391 34 c 128,-1,21
 338 -20 338 -20 264 -20 c 0,11,12
EndSplineSet
Validated: 1
EndChar

StartChar: semicolon
Encoding: 59 59 29
Width: 487
GlyphClass: 2
Flags: W
HStem: 573 365<292.131 526.878>
VStem: 207 248<-68.8125 187.406> 230 360<635.566 875.578>
LayerCount: 2
Fore
SplineSet
356 320 m 128,-1,1
 378 320 378 320 398 297 c 0,2,3
 455 232 455 232 455 129 c 0,4,5
 455 84 455 84 444 32 c 0,6,7
 405 -154 405 -154 222 -296 c 0,8,9
 195 -317 195 -317 172 -317 c 0,10,11
 154 -317 154 -317 137 -302 c 2,12,-1
 89 -259 l 2,13,14
 75 -247 75 -247 75 -230 c 128,-1,15
 75 -213 75 -213 98 -195 c 0,16,17
 172 -133 172 -133 199 -12 c 0,18,19
 207 24 207 24 207 54 c 0,20,21
 207 111 207 111 179 149 c 0,22,23
 164 169 164 169 164 188 c 0,24,25
 164 218 164 218 207 244 c 2,26,-1
 312 307 l 2,27,0
 334 320 334 320 356 320 c 128,-1,1
410 938 m 128,-1,29
 485 938 485 938 537.5 884.5 c 128,-1,30
 590 831 590 831 590 756 c 128,-1,31
 590 681 590 681 537 627 c 128,-1,32
 484 573 484 573 410 573 c 0,33,34
 334 573 334 573 282 627 c 128,-1,35
 230 681 230 681 230 755 c 0,36,37
 230 831 230 831 282 884 c 0,38,28
 335 938 335 938 410 938 c 128,-1,29
EndSplineSet
Validated: 1
EndChar

StartChar: less
Encoding: 60 60 30
Width: 1150
GlyphClass: 2
Flags: W
DStem2: 565 745 276 639 0.85125 -0.524761<0 594.359> 327 880 565 745 0.898588 0.438794<154.627 932.269>
LayerCount: 2
Fore
SplineSet
262 810 m 2,0,1
 271 853 271 853 327 880 c 2,2,-1
 1140 1277 l 2,3,4
 1158 1286 1158 1286 1171 1286 c 0,5,6
 1195 1286 1195 1286 1205 1259 c 2,7,-1
 1253 1123 l 2,8,9
 1257 1112 1257 1112 1257 1101 c 0,10,11
 1257 1073 1257 1073 1220 1055 c 2,12,-1
 565 745 l 1,13,-1
 1076 440 l 2,14,15
 1095 429 1095 429 1095 409 c 0,16,17
 1095 393 1095 393 1079 372 c 2,18,-1
 992 260 l 2,19,20
 971 233 971 233 948 233 c 0,21,22
 935 233 935 233 920 242 c 2,23,-1
 276 639 l 2,24,25
 239 662 239 662 239 695 c 0,26,27
 239 702 239 702 241 709 c 2,28,-1
 262 810 l 2,0,1
EndSplineSet
Validated: 1
EndChar

StartChar: equal
Encoding: 61 61 31
Width: 1133
GlyphClass: 2
Flags: W
HStem: 430 250<227.988 1141.01> 830 250<312.988 1226.01>
LayerCount: 2
Fore
SplineSet
385 1080 m 2,0,-1
 1208 1080 l 2,1,2
 1261 1080 1261 1080 1261 1036 c 0,3,4
 1261 1027 1261 1027 1259 1015 c 2,5,-1
 1233 895 l 2,6,7
 1219 830 1219 830 1154 830 c 2,8,-1
 331 830 l 2,9,10
 278 830 278 830 278 874 c 0,11,12
 278 883 278 883 280 895 c 2,13,-1
 306 1015 l 2,14,15
 320 1080 320 1080 385 1080 c 2,0,-1
300 680 m 2,16,-1
 1123 680 l 2,17,18
 1176 680 1176 680 1176 636 c 0,19,20
 1176 627 1176 627 1174 615 c 2,21,-1
 1148 495 l 2,22,23
 1134 430 1134 430 1069 430 c 2,24,-1
 246 430 l 2,25,26
 193 430 193 430 193 474 c 0,27,28
 193 483 193 483 195 495 c 2,29,-1
 221 615 l 2,30,31
 235 680 235 680 300 680 c 2,16,-1
EndSplineSet
Validated: 1
EndChar

StartChar: greater
Encoding: 62 62 32
Width: 1150
GlyphClass: 2
Flags: W
DStem2: 1197 880 908 774 0.85125 -0.524761<-784.745 -190.386> 908 774 333 242 0.898588 0.438794<-777.642 0>
LayerCount: 2
Fore
SplineSet
1211 709 m 2,0,1
 1202 666 1202 666 1146 639 c 2,2,-1
 333 242 l 2,3,4
 315 233 315 233 302 233 c 0,5,6
 278 233 278 233 268 260 c 2,7,-1
 220 396 l 2,8,9
 216 407 216 407 216 418 c 0,10,11
 216 446 216 446 253 464 c 2,12,-1
 908 774 l 1,13,-1
 397 1079 l 2,14,15
 378 1090 378 1090 378 1110 c 0,16,17
 378 1126 378 1126 394 1147 c 2,18,-1
 481 1259 l 2,19,20
 502 1286 502 1286 525 1286 c 0,21,22
 538 1286 538 1286 553 1277 c 2,23,-1
 1197 880 l 2,24,25
 1234 857 1234 857 1234 824 c 0,26,27
 1234 817 1234 817 1232 810 c 2,28,-1
 1211 709 l 2,0,1
EndSplineSet
Validated: 1
EndChar

StartChar: question
Encoding: 63 63 33
Width: 1200
GlyphClass: 2
Flags: W
HStem: -20 365<441.131 675.878> 1111 21G<534 566> 1230 300<662.292 963.679>
VStem: 379 360<42.5657 282.578> 1012 322<941.458 1178.63>
LayerCount: 2
Fore
SplineSet
559 -20 m 0,0,1
 483 -20 483 -20 431 34 c 128,-1,2
 379 88 379 88 379 162 c 0,3,4
 379 238 379 238 431 291 c 0,5,6
 484 345 484 345 559 345 c 128,-1,7
 634 345 634 345 686.5 291.5 c 128,-1,8
 739 238 739 238 739 163 c 128,-1,9
 739 88 739 88 686 34 c 128,-1,10
 633 -20 633 -20 559 -20 c 0,0,1
850 1530 m 0,11,12
 1110 1530 1110 1530 1239 1366 c 0,13,14
 1334 1245 1334 1245 1334 1098 c 0,15,16
 1334 1066 1334 1066 1330 1034 c 0,17,18
 1293 751 1293 751 962 609 c 0,19,20
 806 542 806 542 793 479 c 0,21,22
 776 400 776 400 696 400 c 2,23,-1
 536 400 l 2,24,25
 470 400 470 400 470 454 c 0,26,27
 470 465 470 465 473 479 c 0,28,29
 520 704 520 704 765 801 c 0,30,31
 985 888 985 888 1009 1036 c 0,32,33
 1012 1056 1012 1056 1012 1074 c 0,34,35
 1012 1124 1012 1124 988 1159 c 0,36,37
 938 1230 938 1230 816 1230 c 0,38,39
 687 1230 687 1230 610 1140 c 24,40,41
 585 1111 585 1111 547 1111 c 0,42,43
 521 1111 521 1111 499 1131 c 2,44,-1
 388 1231 l 2,45,46
 365 1252 365 1252 365 1281 c 128,-1,47
 365 1310 365 1310 396 1342 c 0,48,49
 574 1530 574 1530 850 1530 c 0,11,12
EndSplineSet
Validated: 1
EndChar

StartChar: A
Encoding: 65 65 34
Width: 1474
GlyphClass: 2
Flags: W
HStem: 0 21G<42.5 295.5 1209.5 1442.5> 515 300<782 1068> 1490 20G<861 1254.5>
DStem2: 30 77 365 64 0.486131 0.873886<55.2202 667.149 1010.5 1525.66>
LayerCount: 2
Fore
SplineSet
261 0 m 2,0,-1
 67 0 l 2,1,2
 18 0 18 0 18 37 c 0,3,4
 18 55 18 55 30 77 c 2,5,-1
 791 1445 l 2,6,7
 827 1510 827 1510 895 1510 c 2,8,-1
 1221 1510 l 2,9,10
 1288 1510 1288 1510 1297 1445 c 2,11,-1
 1476 77 l 2,12,13
 1478 62 1478 62 1478 55 c 0,14,15
 1478 0 1478 0 1407 0 c 2,16,-1
 1243 0 l 2,17,18
 1176 -0 1176 -0 1167 64 c 2,19,-1
 1107 515 l 1,20,-1
 615 515 l 1,21,-1
 365 64 l 2,22,23
 330 0 330 0 261 0 c 2,0,-1
782 815 m 1,24,-1
 1068 815 l 1,25,-1
 1022 1271 l 1,26,-1
 782 815 l 1,24,-1
EndSplineSet
Validated: 1
EndChar

StartChar: D
Encoding: 68 68 35
Width: 1474
GlyphClass: 2
Flags: W
HStem: 0 300<524 944.131> 1210 300<717 1115.59>
VStem: 1249 322<651.711 1068.5>
DStem2: 140.208 0 460.233 0 0.207912 0.978148<373.239 1303.48>
LayerCount: 2
Fore
SplineSet
220 0 m 2,0,1
 154 0 154 0 154 54 c 0,2,3
 154 65 154 65 157 79 c 2,4,-1
 444 1431 l 2,5,6
 461 1510 461 1510 541 1510 c 2,7,-1
 978 1510 l 2,8,9
 1294 1510 1294 1510 1455 1280 c 0,10,11
 1571 1112 1571 1112 1571 877 c 0,12,13
 1571 818 1571 818 1564 755 c 0,14,15
 1529 453 1529 453 1292 230 c 0,16,17
 1049 0 1049 0 717 0 c 2,18,-1
 220 0 l 2,0,1
524 300 m 1,19,-1
 751 300 l 2,20,21
 936 300 936 300 1058 423 c 24,22,23
 1194 560 1194 560 1235 755 c 0,24,25
 1249 822 1249 822 1249 881 c 0,26,27
 1249 998 1249 998 1194 1087 c 0,28,29
 1117 1210 1117 1210 944 1210 c 2,30,-1
 717 1210 l 1,31,-1
 524 300 l 1,19,-1
EndSplineSet
Validated: 1
EndChar

StartChar: E
Encoding: 69 69 36
Width: 1158
GlyphClass: 2
Flags: W
HStem: 0 300<524 1092.56> 605 300<652 1023.3> 1210 300<717 1319.56>
DStem2: 140.208 0 460.233 0 0.207912 0.978148<373.239 685.088 991.631 1303.48>
CounterMasks: 1 e0
LayerCount: 2
Fore
SplineSet
1008 0 m 2,0,-1
 220 0 l 2,1,2
 154 0 154 0 154 54 c 0,3,4
 154 65 154 65 157 79 c 2,5,-1
 444 1431 l 2,6,7
 461 1510 461 1510 541 1510 c 2,8,-1
 1299 1510 l 2,9,10
 1365 1510 1365 1510 1365 1456 c 0,11,12
 1365 1445 1365 1445 1362 1431 c 2,13,-1
 1332 1289 l 2,14,15
 1315 1210 1315 1210 1235 1210 c 2,16,-1
 717 1210 l 1,17,-1
 652 905 l 1,18,-1
 1004 905 l 2,19,20
 1071 905 1071 905 1071 850 c 0,21,22
 1071 839 1071 839 1068 826 c 2,23,-1
 1037 684 l 2,24,25
 1020 605 1020 605 941 605 c 2,26,-1
 589 605 l 1,27,-1
 524 300 l 1,28,-1
 1072 300 l 2,29,30
 1138 300 1138 300 1138 246 c 0,31,32
 1138 235 1138 235 1135 221 c 2,33,-1
 1105 79 l 2,34,35
 1088 0 1088 0 1008 0 c 2,0,-1
EndSplineSet
Validated: 1
EndChar

StartChar: F
Encoding: 70 70 37
Width: 1078
GlyphClass: 2
Flags: W
HStem: 0 21G<187 420> 605 300<652 1023.3> 1210 300<717 1319.56>
DStem2: 140.208 0 460.208 0 0.207912 0.978148<62.183 685.088 991.631 1303.48>
LayerCount: 2
Fore
SplineSet
380 0 m 2,0,-1
 220 0 l 2,1,2
 154 0 154 0 154 54 c 0,3,4
 154 65 154 65 157 79 c 2,5,-1
 444 1431 l 2,6,7
 461 1510 461 1510 541 1510 c 2,8,-1
 1299 1510 l 2,9,10
 1365 1510 1365 1510 1365 1456 c 0,11,12
 1365 1445 1365 1445 1362 1431 c 2,13,-1
 1332 1289 l 2,14,15
 1315 1210 1315 1210 1235 1210 c 2,16,-1
 717 1210 l 1,17,-1
 652 905 l 1,18,-1
 1004 905 l 2,19,20
 1071 905 1071 905 1071 850 c 0,21,22
 1071 839 1071 839 1068 826 c 2,23,-1
 1037 684 l 2,24,25
 1020 605 1020 605 941 605 c 2,26,-1
 589 605 l 1,27,-1
 477 79 l 2,28,29
 460 0 460 0 380 0 c 2,0,-1
EndSplineSet
Validated: 1
EndChar

StartChar: H
Encoding: 72 72 38
Width: 1450
GlyphClass: 2
Flags: W
HStem: 0 21G<187 420 1037 1270> 605 300<652 1119> 1490 20G<501 734 1351 1584>
DStem2: 140.208 0 460.208 0 0.207912 0.978148<62.183 685.088 991.631 1548> 990.208 0 1310.21 0 0.207912 0.978148<62.183 618.557 925.099 1548>
LayerCount: 2
Fore
SplineSet
220 0 m 2,0,1
 154 0 154 0 154 54 c 0,2,3
 154 65 154 65 157 79 c 2,4,-1
 444 1431 l 2,5,6
 461 1510 461 1510 541 1510 c 2,7,-1
 701 1510 l 2,8,9
 767 1510 767 1510 767 1456 c 0,10,11
 767 1445 767 1445 764 1431 c 2,12,-1
 652 905 l 1,13,-1
 1182 905 l 1,14,-1
 1294 1431 l 2,15,16
 1311 1510 1311 1510 1391 1510 c 2,17,-1
 1551 1510 l 2,18,19
 1617 1510 1617 1510 1617 1456 c 0,20,21
 1617 1445 1617 1445 1614 1431 c 2,22,-1
 1327 79 l 2,23,24
 1310 0 1310 0 1230 0 c 2,25,-1
 1070 0 l 2,26,27
 1004 0 1004 0 1004 54 c 0,28,29
 1004 65 1004 65 1007 79 c 2,30,-1
 1119 605 l 1,31,-1
 589 605 l 1,32,-1
 477 79 l 2,33,34
 460 0 460 0 380 0 c 2,35,-1
 220 0 l 2,0,1
EndSplineSet
Validated: 1
EndChar

StartChar: I
Encoding: 73 73 39
Width: 600
GlyphClass: 2
Flags: W
HStem: 0 21G<187 420> 1490 20G<501 734>
VStem: 154 613
DStem2: 140.208 0 460.208 0 0.207912 0.978148<62.183 1548>
LayerCount: 2
Fore
SplineSet
220 0 m 2,0,1
 154 0 154 0 154 54 c 0,2,3
 154 65 154 65 157 79 c 2,4,-1
 444 1431 l 2,5,6
 461 1510 461 1510 541 1510 c 2,7,-1
 701 1510 l 2,8,9
 767 1510 767 1510 767 1456 c 0,10,11
 767 1445 767 1445 764 1431 c 2,12,-1
 477 79 l 2,13,14
 460 0 460 0 380 0 c 2,15,-1
 220 0 l 2,0,1
EndSplineSet
Validated: 1
EndChar

StartChar: L
Encoding: 76 76 40
Width: 1108
GlyphClass: 2
Flags: W
HStem: 0 300<524 1092.56> 1490 20G<491 734>
DStem2: 140.208 0 460.233 0 0.207912 0.978148<373.239 1551.99>
LayerCount: 2
Fore
SplineSet
1008 0 m 2,0,1
 200 0 l 2,2,3
 153 0 153 0 153 48 c 0,4,5
 153 62 153 62 157 79 c 2,6,-1
 444 1431 l 2,7,8
 461 1510 461 1510 521 1510 c 2,9,-1
 701 1510 l 2,10,11
 767 1510 767 1510 767 1456 c 0,12,13
 767 1445 767 1445 764 1431 c 2,14,-1
 524 300 l 1,15,-1
 1072 300 l 2,16,17
 1138 300 1138 300 1138 246 c 0,18,19
 1138 235 1138 235 1135 221 c 2,20,-1
 1105 79 l 2,21,22
 1088 0 1088 0 1008 0 c 2,0,1
EndSplineSet
Validated: 1
EndChar

StartChar: N
Encoding: 78 78 41
Width: 1530
GlyphClass: 2
Flags: W
HStem: 0 21G<187 410 966.5 1350> 1490 20G<501 875.5 1441 1664>
DStem2: 140.208 0 450.208 0 0.207912 0.978148<60.1039 1258.45> 921 1445 698 1168 0.197454 -0.980312<227.514 1149.63> 1080.41 0 1390.21 0 0.207912 0.978148<325.104 1547.96>
LayerCount: 2
Fore
SplineSet
370 0 m 2,0,1
 220 0 l 2,2,3
 154 0 154 0 154 54 c 0,4,5
 154 65 154 65 157 79 c 2,6,-1
 444 1431 l 2,7,8
 461 1510 461 1510 541 1510 c 2,9,-1
 843 1510 l 2,10,11
 908 1510 908 1510 921 1445 c 2,12,-1
 1148 318 l 1,13,-1
 1384 1431 l 2,14,15
 1401 1510 1401 1510 1481 1510 c 2,16,-1
 1631 1510 l 2,17,18
 1697 1510 1697 1510 1697 1456 c 0,19,20
 1697 1445 1697 1445 1694 1431 c 2,21,-1
 1407 79 l 2,22,23
 1390 0 1390 0 1310 0 c 2,24,-1
 999 0 l 2,25,26
 934 0 934 0 921 65 c 2,27,-1
 698 1168 l 1,28,-1
 467 79 l 2,29,30
 450 0 450 0 370 0 c 2,0,1
EndSplineSet
Validated: 1
EndChar

StartChar: O
Encoding: 79 79 42
Width: 1574
GlyphClass: 2
Flags: W
HStem: -20 300<676.387 1037.19> 1230 300<857.598 1218.31>
VStem: 214 328<422.701 850.599> 1352 329<659.401 1088.86>
LayerCount: 2
Fore
SplineSet
848 280 m 0,0,1
 1021 280 1021 280 1149 404 c 0,2,3
 1290 540 1290 540 1335 755 c 0,4,5
 1352 834 1352 834 1352 902 c 0,6,7
 1352 1023 1352 1023 1298 1106 c 0,8,9
 1218 1230 1218 1230 1047 1230 c 0,10,11
 874 1230 874 1230 746 1106 c 24,12,13
 605 970 605 970 559 755 c 0,14,15
 542 677 542 677 542 610 c 0,16,17
 542 489 542 489 597 404 c 0,18,19
 677 280 677 280 848 280 c 0,0,1
810 -20 m 0,20,21
 485 -20 485 -20 326 211 c 0,22,23
 214 373 214 373 214 607 c 0,24,25
 214 678 214 678 224 755 c 0,26,27
 265 1064 265 1064 502 1299 c 0,28,29
 735 1530 735 1530 1084 1530 c 0,30,31
 1410 1530 1410 1530 1569 1299 c 0,32,33
 1681 1137 1681 1137 1681 903 c 0,34,35
 1681 832 1681 832 1671 755 c 0,36,37
 1630 446 1630 446 1393 211 c 0,38,39
 1160 -20 1160 -20 810 -20 c 0,20,21
EndSplineSet
Validated: 1
EndChar

StartChar: Q
Encoding: 81 81 43
Width: 1574
GlyphClass: 2
Flags: W
HStem: -20 300<675.897 830.84> 1230 300<857.598 1218.31>
VStem: 214 328<422.701 850.599> 1352 329<659.401 1088.86>
LayerCount: 2
Fore
SplineSet
810 -20 m 0,0,1
 485 -20 485 -20 326 211 c 0,2,3
 214 373 214 373 214 607 c 0,4,5
 214 678 214 678 224 755 c 0,6,7
 265 1064 265 1064 502 1299 c 0,8,9
 735 1530 735 1530 1084 1530 c 0,10,11
 1410 1530 1410 1530 1569 1299 c 0,12,13
 1681 1137 1681 1137 1681 903 c 0,14,15
 1681 832 1681 832 1671 755 c 0,16,17
 1630 446 1630 446 1393 211 c 0,18,19
 1315 133 1315 133 1223 82 c 1,20,-1
 1279 -71 l 2,21,22
 1285 -87 1285 -87 1285 -103 c 0,23,24
 1283 -150 1283 -150 1217 -150 c 2,25,-1
 1061 -150 l 2,26,27
 991 -150 991 -150 967 -86 c 2,28,-1
 940 -12 l 1,29,30
 877 -20 877 -20 810 -20 c 0,0,1
832 280 m 1,31,-1
 748 509 l 2,32,33
 742 525 742 525 742 544 c 0,34,35
 742 588 742 588 810 588 c 2,36,-1
 966 588 l 2,37,38
 1038 588 1038 588 1050 554 c 2,39,-1
 1116 375 l 1,40,41
 1133 389 1133 389 1149 404 c 0,42,43
 1290 540 1290 540 1335 755 c 0,44,45
 1352 834 1352 834 1352 902 c 0,46,47
 1352 1023 1352 1023 1298 1106 c 0,48,49
 1218 1230 1218 1230 1047 1230 c 0,50,51
 874 1230 874 1230 746 1106 c 0,52,53
 605 970 605 970 559 755 c 0,54,55
 542 677 542 677 542 610 c 0,56,57
 542 489 542 489 597 404 c 0,58,59
 673 286 673 286 832 280 c 1,31,-1
EndSplineSet
Validated: 1
EndChar

StartChar: T
Encoding: 84 84 44
Width: 1226
GlyphClass: 2
Flags: W
HStem: 0 21G<500 733> 1210 300<336.438 710 1030 1467.56>
DStem2: 453.208 0 773.208 0 0.207912 0.978148<62.183 1236.95>
LayerCount: 2
Fore
SplineSet
533 0 m 2,0,1
 467 0 467 0 467 54 c 0,2,3
 467 65 467 65 470 79 c 2,4,-1
 710 1210 l 1,5,-1
 357 1210 l 2,6,7
 291 1210 291 1210 291 1264 c 0,8,9
 291 1275 291 1275 294 1289 c 2,10,-1
 324 1431 l 2,11,12
 341 1510 341 1510 421 1510 c 2,13,-1
 1447 1510 l 2,14,15
 1513 1510 1513 1510 1513 1456 c 0,16,17
 1513 1445 1513 1445 1510 1431 c 2,18,-1
 1480 1289 l 2,19,20
 1463 1210 1463 1210 1383 1210 c 2,21,-1
 1030 1210 l 1,22,-1
 790 79 l 2,23,24
 773 0 773 0 693 0 c 2,25,-1
 533 0 l 2,0,1
EndSplineSet
Validated: 1
EndChar

StartChar: U
Encoding: 85 85 45
Width: 1450
GlyphClass: 2
Flags: W
HStem: -20 300<644.011 954.82> 1490 20G<501 734 1351 1584>
VStem: 243 326<351.885 607.264>
DStem2: 136.118 -20 455.505 -20 0.207912 0.978148<579.23 1568.42> 985.505 -20 1306.12 -20 0.207912 0.978148<411.411 1568.55>
LayerCount: 2
Fore
SplineSet
751 -20 m 0,0,1
 495 -20 495 -20 365 120 c 0,2,3
 243 252 243 252 243 426 c 0,4,5
 243 483 243 483 256 544 c 2,6,-1
 444 1431 l 2,7,8
 461 1510 461 1510 541 1510 c 2,9,-1
 701 1510 l 2,10,11
 767 1510 767 1510 767 1456 c 0,12,13
 767 1445 767 1445 764 1431 c 2,14,-1
 579 561 l 2,15,16
 569 516 569 516 569 479 c 0,17,18
 569 395 569 395 617 346 c 0,19,20
 682 280 682 280 793 280 c 0,21,22
 908 280 908 280 984 346 c 0,23,24
 1081 430 1081 430 1109 561 c 2,25,-1
 1294 1431 l 2,26,27
 1311 1510 1311 1510 1391 1510 c 2,28,-1
 1551 1510 l 2,29,30
 1617 1510 1617 1510 1617 1456 c 0,31,32
 1617 1445 1617 1445 1614 1431 c 2,33,-1
 1426 544 l 2,34,35
 1369 275 1369 275 1182 120 c 0,36,37
 1013 -20 1013 -20 751 -20 c 0,0,1
EndSplineSet
Validated: 1
EndChar

StartChar: V
Encoding: 86 86 46
Width: 1474
GlyphClass: 2
Flags: W
HStem: 0 21G<540.5 934> 1490 20G<352.5 586 1500 1752.5>
DStem2: 628 1446 319 1433 0.129742 -0.991548<-51.9372 1176.99> 781 279 1004 65 0.486131 0.873886<0 1431.71>
LayerCount: 2
Fore
SplineSet
900 0 m 2,0,1
 574 0 l 2,2,3
 507 0 507 0 498 65 c 2,4,-1
 319 1433 l 2,5,6
 317 1448 317 1448 317 1458 c 0,7,8
 317 1510 317 1510 388 1510 c 2,9,-1
 552 1510 l 2,10,11
 620 1510 620 1510 628 1446 c 2,12,13
 781 279 l 1,14,-1
 1430 1446 l 2,15,16
 1466 1510 1466 1510 1534 1510 c 2,17,-1
 1728 1510 l 2,18,19
 1777 1510 1777 1510 1777 1471 c 0,20,21
 1777 1455 1777 1455 1765 1433 c 2,22,-1
 1004 65 l 2,23,24
 968 0 968 0 900 0 c 2,0,1
EndSplineSet
Validated: 1
EndChar

StartChar: W
Encoding: 87 87 47
Width: 1965
GlyphClass: 2
Flags: W
HStem: 0 21G<353.5 723.5 1241.5 1611> 1490 20G<370 599.5 1138 1447.5 1986 2222.5>
VStem: 319 296<338 1162.7> 325 309<606.303 1503.04> 1207 266<340 884.08> 1226 256<340.92 1146>
DStem2: 615 338 791 79 0.384315 0.923202<0 980.764> 1473 340 1679 79 0.387905 0.9217<0 1287.47>
LayerCount: 2
Fore
SplineSet
688 0 m 2,0,1
 388 0 l 2,2,3
 319 0 319 0 319 79 c 2,4,-1
 325 1431 l 2,5,6
 325 1510 325 1510 415 1510 c 2,7,-1
 565 1510 l 2,8,9
 634 1510 634 1510 634 1431 c 9,10,-1
 615 338 l 1,11,-1
 1070 1431 l 2,12,13
 1103 1510 1103 1510 1173 1510 c 2,14,-1
 1413 1510 l 2,15,16
 1482 1510 1482 1510 1482 1431 c 9,17,-1
 1473 340 l 1,18,-1
 1931 1461 l 2,19,20
 1951 1510 1951 1510 2021 1510 c 2,21,-1
 2191 1510 l 2,22,23
 2254 1510 2254 1510 2254 1461 c 0,24,25
 2254 1445 2254 1445 2248 1431 c 2,26,-1
 1679 79 l 2,27,28
 1646 0 1646 0 1576 0 c 2,29,-1
 1276 0 l 2,30,31
 1207 0 1207 0 1207 79 c 9,32,-1
 1226 1146 l 1,33,-1
 791 79 l 2,34,35
 759 0 759 0 688 0 c 2,0,1
EndSplineSet
Validated: 1
EndChar

StartChar: Z
Encoding: 90 90 48
Width: 1250
GlyphClass: 2
Flags: W
HStem: 0 300<574 1184.56> 1210 300<426.438 997>
DStem2: 147 278 574 300 0.673856 0.738863<303.991 1261.4>
LayerCount: 2
Fore
SplineSet
1100 0 m 2,0,-1
 150 0 l 2,1,2
 84 0 84 0 84 54 c 0,3,4
 84 65 84 65 87 79 c 2,5,-1
 117 221 l 2,6,7
 124 253 124 253 147 278 c 2,8,-1
 997 1210 l 1,9,-1
 447 1210 l 2,10,11
 381 1210 381 1210 381 1264 c 0,12,13
 381 1275 381 1275 384 1289 c 2,14,-1
 414 1431 l 2,15,16
 431 1510 431 1510 511 1510 c 2,17,-1
 1421 1510 l 2,18,19
 1487 1510 1487 1510 1487 1456 c 0,20,21
 1487 1445 1487 1445 1484 1431 c 2,22,-1
 1454 1289 l 2,23,24
 1448 1259 1448 1259 1417 1225 c 2,25,-1
 574 300 l 1,26,-1
 1164 300 l 2,27,28
 1230 300 1230 300 1230 246 c 0,29,30
 1230 235 1230 235 1227 221 c 2,31,-1
 1197 79 l 2,32,33
 1180 0 1180 0 1100 0 c 2,0,-1
EndSplineSet
Validated: 1
EndChar

StartChar: bracketleft
Encoding: 91 91 49
Width: 805
GlyphClass: 2
Flags: W
HStem: -205 260<512 748.653> 1450 260<808 1099.97>
VStem: 168 617<-175.155 31.4062>
DStem2: 156.121 -205 456.735 -205 0.207912 0.978148<328.31 1754.37>
LayerCount: 2
Fore
SplineSet
633 1710 m 2,0,1
 1083 1710 l 2,2,3
 1137 1710 1137 1710 1137 1665 c 0,4,5
 1137 1656 1137 1656 1135 1645 c 2,6,-1
 1107 1515 l 2,7,8
 1093 1450 1093 1450 1028 1450 c 2,9,-1
 808 1450 l 1,10,-1
 512 55 l 1,11,-1
 732 55 l 2,12,13
 785 55 785 55 785 11 c 0,14,15
 785 2 785 2 783 -10 c 2,16,-1
 755 -140 l 2,17,18
 741 -205 741 -205 676 -205 c 2,19,-1
 226 -205 l 2,20,21
 168 -205 168 -205 168 -158 c 0,22,23
 168 -148 168 -148 171 -135 c 2,24,-1
 549 1640 l 2,25,26
 563 1710 563 1710 633 1710 c 2,0,1
EndSplineSet
Validated: 1
EndChar

StartChar: backslash
Encoding: 92 92 50
Width: 1194
GlyphClass: 2
Flags: W
DStem2: 591 1622 924 -110 0.340379 -0.940288<3.5725 1743.17>
LayerCount: 2
Fore
SplineSet
542 1662 m 0,0,1
 577 1662 577 1662 591 1622 c 2,2,-1
 1172 17 l 2,3,4
 1178 0 1178 0 1178 -20 c 0,5,6
 1178 -56 1178 -56 1125 -83 c 2,7,-1
 1018 -137 l 2,8,9
 992 -150 992 -150 970 -150 c 0,10,11
 939 -150 939 -150 924 -110 c 2,12,-1
 341 1494 l 2,13,14
 335 1511 335 1511 335 1526 c 0,15,16
 335 1566 335 1566 390 1594 c 2,17,-1
 498 1649 l 2,18,19
 524 1662 524 1662 542 1662 c 0,0,1
EndSplineSet
Validated: 1
EndChar

StartChar: bracketright
Encoding: 93 93 51
Width: 805
GlyphClass: 2
Flags: W
HStem: -205 260<24.3469 317> 1450 260<376.347 613>
VStem: 340 616<1473.59 1680.66>
DStem2: 261.735 -205 561.121 -205 0.207912 0.978148<265.809 1691.87>
LayerCount: 2
Fore
SplineSet
898 1710 m 2,0,1
 956 1710 956 1710 956 1661 c 0,2,3
 956 1651 956 1651 954 1640 c 2,4,-1
 576 -135 l 2,5,6
 561 -205 561 -205 491 -205 c 2,7,-1
 41 -205 l 2,8,9
 -12 -205 -12 -205 -12 -161 c 0,10,11
 -12 -152 -12 -152 -10 -140 c 2,12,-1
 18 -10 l 2,13,14
 32 55 32 55 97 55 c 2,15,-1
 317 55 l 1,16,-1
 613 1450 l 1,17,-1
 393 1450 l 2,18,19
 340 1450 340 1450 340 1494 c 0,20,21
 340 1503 340 1503 342 1515 c 2,22,-1
 370 1645 l 2,23,24
 384 1710 384 1710 448 1710 c 2,25,-1
 898 1710 l 2,0,1
EndSplineSet
Validated: 1
EndChar

StartChar: asciicircum
Encoding: 94 94 52
Width: 995
GlyphClass: 2
Flags: W
HStem: 965 565<883 996>
DStem2: 295 1108 497 990 0.711585 0.7026<10.296 463.227> 942 1499 788 1268 0.50702 -0.861934<121.026 471.411>
LayerCount: 2
Fore
SplineSet
762 1530 m 2,0,1
 883 1530 l 2,2,3
 924 1530 924 1530 942 1499 c 2,4,-1
 1172 1108 l 2,5,6
 1177 1100 1177 1100 1177 1090 c 0,7,8
 1177 1062 1177 1062 1139 1040 c 2,9,-1
 1024 972 l 2,10,11
 1012 965 1012 965 996 965 c 0,12,13
 974 965 974 965 959 990 c 2,14,15
 788 1268 l 1,16,-1
 497 990 l 2,17,18
 471 965 471 965 450 965 c 0,19,20
 439 965 439 965 426 972 c 2,21,-1
 298 1040 l 2,22,23
 279 1050 279 1050 279 1073 c 0,24,25
 279 1092 279 1092 295 1108 c 2,26,-1
 691 1499 l 2,27,28
 722 1530 722 1530 762 1530 c 2,0,1
EndSplineSet
Validated: 1
EndChar

StartChar: underscore
Encoding: 95 95 53
Width: 1233
GlyphClass: 2
Flags: W
HStem: -320 233<65.363 1081.64>
LayerCount: 2
Fore
SplineSet
142 -87 m 2,0,-1
 1055 -87 l 2,1,2
 1113 -87 1113 -87 1113 -134 c 0,3,4
 1113 -144 1113 -144 1110 -157 c 2,5,-1
 1090 -250 l 2,6,7
 1075 -320 1075 -320 1005 -320 c 2,8,-1
 92 -320 l 2,9,10
 34 -320 34 -320 34 -273 c 0,11,12
 34 -263 34 -263 37 -250 c 2,13,-1
 57 -157 l 2,14,15
 72 -87 72 -87 142 -87 c 2,0,-1
EndSplineSet
Validated: 1
EndChar

StartChar: grave
Encoding: 96 96 54
Width: 465
GlyphClass: 2
Flags: W
HStem: 1160 410<501.75 568.375>
VStem: 356 327
LayerCount: 2
Fore
SplineSet
528 1570 m 128,-1,1
 549 1570 549 1570 561 1544 c 2,2,-1
 679 1289 l 2,3,4
 683 1280 683 1280 683 1271 c 0,5,6
 683 1243 683 1243 660 1225 c 2,7,-1
 595 1174 l 2,8,9
 577 1160 577 1160 553 1160 c 0,10,11
 530 1160 530 1160 516 1181 c 2,12,-1
 364 1411 l 2,13,14
 356 1423 356 1423 356 1437 c 0,15,16
 356 1465 356 1465 383 1484 c 2,17,-1
 488 1557 l 2,18,0
 507 1570 507 1570 528 1570 c 128,-1,1
EndSplineSet
Validated: 1
EndChar

StartChar: o
Encoding: 111 111 55
Width: 1246
GlyphClass: 2
Flags: W
HStem: -20 280<553.456 821.679> 840 280<653.551 929.085>
VStem: 181 310<327.448 657.25> 988 311<437.234 780.531>
LayerCount: 2
Fore
SplineSet
653 -20 m 0,0,1
 414 -20 414 -20 292 124 c 0,2,3
 181 255 181 255 181 455 c 0,4,5
 181 501 181 501 187 550 c 0,6,7
 219 827 219 827 408 976 c 0,8,9
 591 1120 591 1120 821 1120 c 0,10,11
 1058 1120 1058 1120 1182 976 c 0,12,13
 1299 839 1299 839 1299 640 c 0,14,15
 1299 597 1299 597 1293 550 c 0,16,17
 1263 296 1263 296 1066 124 c 0,18,19
 901 -20 901 -20 653 -20 c 0,0,1
678 260 m 0,20,21
 772 260 772 260 854 326 c 0,22,23
 957 408 957 408 980 550 c 0,24,25
 988 600 988 600 988 641 c 0,26,27
 988 731 988 731 948 779 c 0,28,29
 895 840 895 840 801 840 c 128,-1,30
 707 840 707 840 630 779 c 0,31,32
 524 695 524 695 500 550 c 0,33,34
 491 500 491 500 491 459 c 0,35,36
 491 372 491 372 530 326 c 0,37,38
 588 260 588 260 678 260 c 0,20,21
EndSplineSet
Validated: 1
EndChar

StartChar: braceleft
Encoding: 123 123 56
Width: 795
GlyphClass: 2
Flags: W
HStem: -205 280<591.168 735.089> 615 280<205.283 351> 1430 280<853.656 1082.45>
VStem: 258 305<113.879 286.382>
DStem2: 176.75 -205 476.663 -205 0.207912 0.978148<462.273 838.31 1124.46 1701.52>
LayerCount: 2
Fore
SplineSet
651 -205 m 0,0,1
 461 -205 461 -205 347 -91 c 0,2,3
 258 0 258 0 258 132 c 0,4,5
 258 178 258 178 269 229 c 2,6,-1
 351 615 l 1,7,-1
 231 615 l 2,8,9
 165 615 165 615 165 669 c 0,10,11
 165 680 165 680 168 694 c 2,12,-1
 193 816 l 2,13,14
 209 895 209 895 290 895 c 2,15,-1
 410 895 l 1,16,-1
 491 1276 l 2,17,18
 540 1505 540 1505 660 1596 c 0,19,20
 810 1710 810 1710 1058 1710 c 16,21,22
 1125 1710 1125 1710 1125 1656 c 0,23,24
 1125 1645 1125 1645 1122 1631 c 2,25,-1
 1096 1509 l 2,26,27
 1079 1430 1079 1430 999 1430 c 24,28,29
 915 1430 915 1430 862 1392 c 0,30,31
 807 1353 807 1353 793 1285 c 2,32,-1
 567 220 l 2,33,34
 563 201 563 201 563 185 c 0,35,36
 563 141 563 141 590 113 c 0,37,38
 627 75 627 75 711 75 c 16,39,40
 777 75 777 75 777 21 c 0,41,42
 777 10 777 10 774 -4 c 2,43,-1
 748 -126 l 2,44,45
 731 -205 731 -205 651 -205 c 0,0,1
EndSplineSet
Validated: 1
EndChar

StartChar: bar
Encoding: 124 124 57
Width: 675
GlyphClass: 2
Flags: W
DStem2: 168.121 -150 443.121 -150 0.207912 0.978148<50.8625 1856.76>
LayerCount: 2
Fore
SplineSet
623 1660 m 2,0,-1
 758 1660 l 2,1,2
 816 1660 816 1660 816 1613 c 0,3,4
 816 1603 816 1603 813 1590 c 2,5,-1
 458 -80 l 2,6,7
 443 -150 443 -150 373 -150 c 2,8,-1
 238 -150 l 2,9,10
 180 -150 180 -150 180 -103 c 0,11,12
 180 -93 180 -93 183 -80 c 2,13,-1
 538 1590 l 2,14,15
 553 1660 553 1660 623 1660 c 2,0,-1
EndSplineSet
Validated: 1
EndChar

StartChar: braceright
Encoding: 125 125 58
Width: 795
GlyphClass: 2
Flags: W
HStem: -205 280<31.9106 256.766> 615 280<765 910.717> 1430 280<379.911 523.832>
VStem: 552 305<1119.91 1398.73>
DStem2: 231.663 -205 531.704 -205 0.207912 0.978148<320.575 900.701 1186.85 1557.79>
LayerCount: 2
Fore
SplineSet
56 -205 m 0,0,1
 -10 -205 -10 -205 -10 -151 c 0,2,3
 -10 -140 -10 -140 -7 -126 c 2,4,-1
 19 -4 l 2,5,6
 36 75 36 75 116 75 c 24,7,8
 200 75 200 75 253 113 c 0,9,10
 308 152 308 152 322 220 c 2,11,-1
 548 1285 l 2,12,13
 552 1304 552 1304 552 1320 c 0,14,15
 552 1364 552 1364 525 1392 c 0,16,17
 488 1430 488 1430 404 1430 c 16,18,19
 338 1430 338 1430 338 1484 c 0,20,21
 338 1495 338 1495 341 1509 c 2,22,-1
 367 1631 l 2,23,24
 384 1710 384 1710 463 1710 c 0,25,26
 655 1710 655 1710 768 1596 c 0,27,28
 857 1506 857 1506 857 1374 c 0,29,30
 857 1328 857 1328 846 1276 c 2,31,-1
 765 895 l 1,32,-1
 885 895 l 2,33,34
 951 895 951 895 951 841 c 0,35,36
 951 830 951 830 948 816 c 2,37,-1
 923 694 l 2,38,39
 907 615 907 615 826 615 c 2,40,-1
 706 615 l 1,41,-1
 624 229 l 2,42,43
 578 15 578 15 455 -91 c 0,44,45
 322 -205 322 -205 56 -205 c 0,0,1
EndSplineSet
Validated: 1
EndChar

StartChar: asciitilde
Encoding: 126 126 59
Width: 1138
GlyphClass: 2
Flags: W
HStem: 515 482
VStem: 961 281<797.117 964.707>
LayerCount: 2
Fore
SplineSet
1057 976 m 2,0,-1
 1175 976 l 2,1,2
 1242 976 1242 976 1242 921 c 0,3,4
 1242 910 1242 910 1239 897 c 0,5,6
 1158 515 1158 515 876 515 c 0,7,8
 720 515 720 515 626 666 c 0,9,10
 599 709 599 709 592 718 c 0,11,12
 583 729 583 729 568 729 c 0,13,14
 523 729 523 729 499 615 c 0,15,16
 482 536 482 536 402 536 c 2,17,-1
 284 536 l 2,18,19
 218 536 218 536 218 590 c 0,20,21
 218 601 218 601 221 615 c 0,22,23
 302 997 302 997 583 997 c 0,24,25
 739 997 739 997 834 846 c 0,26,27
 861 803 861 803 868 794 c 0,28,29
 877 783 877 783 894 783 c 0,30,31
 938 783 938 783 961 897 c 0,32,33
 977 976 977 976 1057 976 c 2,0,-1
EndSplineSet
Validated: 1
EndChar

StartChar: exclamdown
Encoding: 161 161 61
Width: 692
GlyphClass: 2
Flags: W
HStem: -410 21G<136 390> 755 365<429.122 663.869>
VStem: 347 264<564.134 686.627> 366 360<817.422 1057.43>
LayerCount: 2
Fore
SplineSet
546 1120 m 0,0,1
 622 1120 622 1120 674 1066 c 128,-1,2
 726 1012 726 1012 726 938 c 0,3,4
 726 862 726 862 674 809 c 0,5,6
 621 755 621 755 546 755 c 128,-1,7
 471 755 471 755 418.5 808.5 c 128,-1,8
 366 862 366 862 366 937 c 128,-1,9
 366 1012 366 1012 419 1066 c 128,-1,10
 472 1120 472 1120 546 1120 c 0,0,1
349 -410 m 2,11,-1
 169 -410 l 2,12,13
 103 -409 103 -409 103 -359 c 0,14,15
 103 -347 103 -347 107 -331 c 2,16,-1
 347 621 l 2,17,18
 367 700 367 700 445 700 c 2,19,-1
 545 700 l 2,20,21
 611 700 611 700 611 643 c 0,22,23
 611 633 611 633 609 621 c 2,24,-1
 445 -331 l 2,25,26
 431 -410 431 -410 349 -410 c 2,11,-1
EndSplineSet
Validated: 1
EndChar

StartChar: cent
Encoding: 162 162 62
Width: 1090
GlyphClass: 2
Flags: W
HStem: 745 366<939.815 1072.88>
VStem: 173 316<323.753 651.531>
DStem2: 534.141 -180 663.566 -180 0.207912 0.978148<24.8469 167.664 487.895 1037.7 1346.96 1494.67>
LayerCount: 2
Fore
SplineSet
629 -180 m 2,0,-1
 569 -180 l 2,1,2
 540 -180 540 -180 540 -156 c 0,3,4
 540 -151 540 -151 541 -145 c 2,5,-1
 569 -16 l 1,6,7
 387 5 387 5 282 123 c 0,8,9
 173 246 173 246 173 452 c 0,10,11
 173 493 173 493 177 537 c 0,12,13
 201 805 201 805 413 976 c 0,14,15
 583 1114 583 1114 810 1120 c 1,16,-1
 837 1245 l 2,17,18
 844 1280 844 1280 879 1280 c 2,19,-1
 939 1280 l 2,20,21
 968 1280 968 1280 968 1256 c 0,22,23
 968 1251 968 1251 967 1245 c 2,24,-1
 939 1111 l 1,25,26
 1106 1083 1106 1083 1192 961 c 0,27,28
 1208 941 1208 941 1208 919 c 0,29,30
 1208 883 1208 883 1163 849 c 2,31,-1
 1060 771 l 2,32,33
 1026 745 1026 745 1003 745 c 0,34,35
 969 745 969 745 949 776 c 0,36,37
 924 814 924 814 879 830 c 1,38,-1
 759 271 l 1,39,40
 811 286 811 286 853 324 c 0,41,42
 886 355 886 355 920 355 c 0,43,44
 943 355 943 355 966 329 c 2,45,-1
 1049 236 l 2,46,47
 1068 215 1068 215 1068 187 c 0,48,49
 1068 156 1068 156 1031 124 c 0,50,51
 883 -3 883 -3 698 -18 c 1,52,-1
 671 -145 l 2,53,54
 664 -180 664 -180 629 -180 c 2,0,-1
629 266 m 1,55,-1
 750 835 l 1,56,57
 684 822 684 822 630 779 c 0,58,59
 532 702 532 702 500 550 c 0,60,61
 489 498 489 498 489 455 c 0,62,63
 489 373 489 373 530 326 c 0,64,65
 570 280 570 280 629 266 c 1,55,-1
EndSplineSet
Validated: 1
EndChar

StartChar: sterling
Encoding: 163 163 63
Width: 1275
GlyphClass: 2
Flags: W
HStem: 0 300<149.438 274 594 1189.56> 550 300<267.438 327 711 1036.56> 1105 21G<1118.5 1149> 1251 279<827.96 1062.82>
VStem: 222 860<596.308 803.692>
DStem2: 210.233 0 530.233 0 0.207912 0.978148<373.234 562.258 935.541 1315.95>
LayerCount: 2
Fore
SplineSet
1105 0 m 2,0,-1
 170 0 l 2,1,2
 104 0 104 0 104 54 c 0,3,4
 104 65 104 65 107 79 c 2,5,-1
 137 221 l 2,6,7
 154 300 154 300 234 300 c 2,8,-1
 274 300 l 1,9,-1
 327 550 l 1,10,-1
 288 550 l 2,11,12
 222 550 222 550 222 604 c 0,13,14
 222 615 222 615 225 629 c 2,15,-1
 255 771 l 2,16,17
 272 850 272 850 352 850 c 2,18,-1
 391 850 l 1,19,-1
 448 1119 l 2,20,21
 493 1331 493 1331 630 1431 c 0,22,23
 766 1530 766 1530 976.5 1530 c 128,-1,24
 1187 1530 1187 1530 1300 1406 c 0,25,26
 1353 1345 1353 1345 1372 1273 c 0,27,28
 1377 1254 1377 1254 1377 1237 c 0,29,30
 1377 1196 1377 1196 1310 1168 c 2,31,-1
 1186 1116 l 2,32,33
 1160 1105 1160 1105 1138 1105 c 0,34,35
 1099 1105 1099 1105 1090 1155 c 0,36,37
 1084 1185 1084 1185 1063 1208 c 0,38,39
 1022 1251 1022 1251 952 1251 c 0,40,41
 879 1251 879 1251 831 1215 c 0,42,43
 779 1175 779 1175 764 1103 c 2,44,-1
 711 850 l 1,45,-1
 1016 850 l 2,46,47
 1082 850 1082 850 1082 796 c 0,48,49
 1082 785 1082 785 1079 771 c 2,50,-1
 1049 629 l 2,51,52
 1032 550 1032 550 952 550 c 2,53,-1
 647 550 l 1,54,-1
 594 300 l 1,55,-1
 1169 300 l 2,56,57
 1235 300 1235 300 1235 246 c 0,58,59
 1235 235 1235 235 1232 221 c 2,60,-1
 1202 79 l 2,61,62
 1185 0 1185 0 1105 0 c 2,0,-1
EndSplineSet
Validated: 1
EndChar

StartChar: currency
Encoding: 164 164 64
Width: 1590
GlyphClass: 2
Flags: W
HStem: 130 281<738.254 1061.05> 1110 281<869.256 1188.16>
VStem: 346 300<506.734 862.715> 1284 298<657.756 1011.01>
DStem2: 373 453 371 86 0.770817 0.637057<-296.13 1.02885 1306.61 1597.11> 623 1417 387 1223 0.615429 -0.788193<-34.2235 175.132 1273.11 1483.36>
LayerCount: 2
Fore
SplineSet
1100 1391 m 0,0,1
 1268 1391 1268 1391 1388 1292 c 1,2,-1
 1557 1432 l 2,3,4
 1586 1456 1586 1456 1617 1456 c 0,5,6
 1647 1456 1647 1456 1669 1429 c 2,7,-1
 1757 1322 l 2,8,9
 1771 1305 1771 1305 1771 1280 c 0,10,11
 1771 1243 1771 1243 1731 1210 c 2,12,-1
 1552 1063 l 1,13,14
 1582 965 1582 965 1582 868 c 0,15,16
 1582 814 1582 814 1573 760 c 0,17,18
 1542 571 1542 571 1403 413 c 1,19,-1
 1508 280 l 2,20,21
 1523 261 1523 261 1523 237 c 0,22,23
 1523 203 1523 203 1482 168 c 2,24,-1
 1385 85 l 2,25,26
 1357 61 1357 61 1327 61 c 0,27,28
 1295 61 1295 61 1274 87 c 2,29,-1
 1169 220 l 1,30,31
 1021 130 1021 130 848 130 c 128,-1,32
 675 130 675 130 543 229 c 1,33,-1
 371 86 l 2,34,35
 342 62 342 62 311 62 c 0,36,37
 282 62 282 62 260 89 c 2,38,-1
 172 196 l 2,39,40
 158 213 158 213 158 243 c 0,41,42
 158 276 158 276 197 308 c 2,43,-1
 373 453 l 1,44,45
 346 537 346 537 346 633 c 0,46,47
 346 694 346 694 357 760 c 0,48,49
 384 927 384 927 503 1077 c 1,50,-1
 387 1223 l 2,51,52
 373 1241 373 1241 373 1266 c 0,53,54
 373 1300 373 1300 414 1335 c 2,55,-1
 512 1419 l 2,56,57
 540 1443 540 1443 570 1443 c 0,58,59
 602 1443 602 1443 623 1417 c 2,60,-1
 728 1284 l 1,61,62
 898 1391 898 1391 1100 1391 c 0,0,1
890 411 m 0,63,64
 1022 411 1022 411 1121 498 c 0,65,66
 1239 602 1239 602 1273 760 c 0,67,68
 1284 810 1284 810 1284 854 c 0,69,70
 1284 952 1284 952 1232 1023 c 0,71,72
 1167 1110 1167 1110 1039 1110 c 0,73,74
 909 1110 909 1110 808 1023 c 0,75,76
 690 920 690 920 657 760 c 0,77,78
 646 709 646 709 646 664 c 0,79,80
 646 567 646 567 696 498 c 0,81,82
 761 411 761 411 890 411 c 0,63,64
EndSplineSet
Validated: 1
EndChar

StartChar: yen
Encoding: 165 165 65
Width: 1260
GlyphClass: 2
Flags: W
HStem: 0 21G<517 750> 310 180<248.275 536 894 1181.73> 602 180<310.689 563 1029 1244.62> 1490 20G<352.5 572 1288 1540>
DStem2: 631 1446 324 1431 0.345571 -0.938392<-81.917 525.521> 813 953 1029 782 0.621599 0.783336<0.315024 745.243>
LayerCount: 2
Fore
SplineSet
710 0 m 2,0,-1
 550 0 l 2,1,2
 484 0 484 0 484 54 c 0,3,4
 484 65 484 65 487 79 c 2,5,-1
 536 310 l 1,6,-1
 264 310 l 2,7,8
 226 310 226 310 226 340 c 0,9,10
 226 347 226 347 228 355 c 2,11,-1
 248 445 l 2,12,13
 258 490 258 490 302 490 c 2,14,-1
 574 490 l 1,15,-1
 598 602 l 1,16,-1
 326 602 l 2,17,18
 289 602 289 602 289 633 c 0,19,20
 289 639 289 639 291 647 c 2,21,-1
 310 737 l 2,22,23
 320 782 320 782 364 782 c 2,24,-1
 563 782 l 1,25,-1
 324 1431 l 2,26,27
 319 1445 319 1445 319 1459 c 0,28,29
 319 1510 319 1510 386 1510 c 2,30,-1
 537 1510 l 2,31,32
 607 1510 607 1510 631 1446 c 2,33,-1
 813 953 l 1,34,-1
 1202 1446 l 2,35,36
 1252 1510 1252 1510 1324 1510 c 2,37,-1
 1516 1510 l 2,38,39
 1564 1510 1564 1510 1564 1476 c 0,40,41
 1564 1456 1564 1456 1544 1431 c 2,42,-1
 1029 782 l 1,43,-1
 1228 782 l 2,44,45
 1266 782 1266 782 1266 752 c 0,46,47
 1266 745 1266 745 1264 737 c 2,48,-1
 1245 647 l 2,49,50
 1236 602 1236 602 1190 602 c 2,51,-1
 918 602 l 1,52,-1
 894 490 l 1,53,-1
 1166 490 l 2,54,55
 1204 490 1204 490 1204 460 c 0,56,57
 1204 453 1204 453 1202 445 c 2,58,-1
 1182 355 l 2,59,60
 1172 310 1172 310 1128 310 c 2,61,-1
 856 310 l 1,62,-1
 807 79 l 2,63,64
 790 0 790 0 710 0 c 2,0,-1
EndSplineSet
Validated: 1
EndChar

StartChar: brokenbar
Encoding: 166 166 66
Width: 675
GlyphClass: 2
Flags: W
DStem2: 168.121 -150 443.121 -150 0.207912 0.978148<50.8625 834.878 1072.49 1856.76>
LayerCount: 2
Fore
SplineSet
410 660 m 2,0,-1
 545 660 l 2,1,2
 603 660 603 660 603 613 c 0,3,4
 603 603 603 603 600 590 c 2,5,-1
 458 -80 l 2,6,7
 443 -150 443 -150 373 -150 c 2,8,-1
 238 -150 l 2,9,10
 180 -150 180 -150 180 -103 c 0,11,12
 180 -93 180 -93 183 -80 c 2,13,-1
 325 590 l 2,14,15
 340 660 340 660 410 660 c 2,0,-1
623 1660 m 2,16,-1
 758 1660 l 2,17,18
 816 1660 816 1660 816 1613 c 0,19,20
 816 1603 816 1603 813 1590 c 2,21,-1
 671 920 l 2,22,23
 656 850 656 850 586 850 c 2,24,-1
 451 850 l 2,25,26
 393 850 393 850 393 897 c 0,27,28
 393 907 393 907 396 920 c 2,29,-1
 538 1590 l 2,30,31
 553 1660 553 1660 623 1660 c 2,16,-1
EndSplineSet
Validated: 1
EndChar

StartChar: section
Encoding: 167 167 67
Width: 1046
GlyphClass: 2
Flags: W
HStem: -20 244<470.168 658.582> 1286 244<708.418 896.832>
VStem: 246 291<668.296 824.219> 407 280<1145.52 1269.6> 680 280<240.396 364.485> 830 291<685.781 841.704>
LayerCount: 2
Fore
SplineSet
549 -20 m 0,0,1
 331 -20 331 -20 237 129 c 0,2,3
 225 148 225 148 225 173 c 0,4,5
 225 209 225 209 267 241 c 2,6,-1
 339 296 l 2,7,8
 373 322 373 322 396 322 c 0,9,10
 430 322 430 322 450 291 c 0,11,12
 496 224 496 224 584 224 c 0,13,14
 623 224 623 224 648 242 c 0,15,16
 680 265 680 265 680 303 c 0,17,18
 680 351 680 351 624 371 c 2,19,-1
 458 431 l 2,20,21
 246 508 246 508 246 704 c 0,22,23
 246 722 246 722 248 742 c 0,24,25
 261 882 261 882 373 980 c 1,26,-1
 593 833 l 1,27,28
 545 798 545 798 539 761 c 0,29,30
 537 748 537 748 537 737 c 0,31,32
 537 682 537 682 594 662 c 10,33,-1
 727 615 l 2,34,35
 960 533 960 533 960 332 c 0,36,37
 960 312 960 312 958 292 c 0,38,39
 942 142 942 142 820 58 c 0,40,41
 707 -20 707 -20 549 -20 c 0,0,1
818 1530 m 0,42,43
 1036 1530 1036 1530 1130 1381 c 0,44,45
 1142 1362 1142 1362 1142 1337 c 0,46,47
 1142 1301 1142 1301 1100 1269 c 2,48,-1
 1028 1214 l 2,49,50
 994 1188 994 1188 971 1188 c 0,51,52
 937 1188 937 1188 917 1219 c 0,53,54
 871 1286 871 1286 783 1286 c 0,55,56
 744 1286 744 1286 719 1268 c 0,57,58
 687 1245 687 1245 687 1207 c 0,59,60
 687 1159 687 1159 743 1139 c 2,61,-1
 909 1079 l 2,62,63
 1121 1002 1121 1002 1121 806 c 0,64,65
 1121 788 1121 788 1119 768 c 0,66,67
 1106 628 1106 628 994 530 c 1,68,-1
 774 677 l 1,69,70
 822 712 822 712 828 749 c 0,71,72
 830 762 830 762 830 773 c 0,73,74
 830 828 830 828 773 848 c 10,75,-1
 640 895 l 2,76,77
 407 977 407 977 407 1178 c 0,78,79
 407 1198 407 1198 409 1218 c 0,80,81
 425 1368 425 1368 547 1452 c 0,82,83
 660 1530 660 1530 818 1530 c 0,42,43
EndSplineSet
Validated: 1
EndChar

StartChar: dieresis
Encoding: 168 168 68
Width: 730
GlyphClass: 2
Flags: W
HStem: 1210 297<382.833 586.652 720.833 925.167>
VStem: 339 292<1255.38 1461.62> 677 292<1255.38 1461.62>
LayerCount: 2
Fore
SplineSet
823.5 1507 m 128,-1,1
 884 1507 884 1507 926.5 1463 c 128,-1,2
 969 1419 969 1419 969 1358.5 c 128,-1,3
 969 1298 969 1298 926.5 1254 c 128,-1,4
 884 1210 884 1210 823 1210 c 128,-1,5
 762 1210 762 1210 719.5 1254 c 128,-1,6
 677 1298 677 1298 677 1358 c 0,7,8
 677 1419 677 1419 720 1462 c 0,9,0
 763 1507 763 1507 823.5 1507 c 128,-1,1
484.5 1507 m 128,-1,11
 545 1507 545 1507 588 1463 c 128,-1,12
 631 1419 631 1419 631 1358.5 c 128,-1,13
 631 1298 631 1298 588 1254 c 128,-1,14
 545 1210 545 1210 485 1210 c 0,15,16
 424 1210 424 1210 381.5 1254 c 128,-1,17
 339 1298 339 1298 339 1358 c 0,18,19
 339 1419 339 1419 381 1462 c 0,20,10
 424 1507 424 1507 484.5 1507 c 128,-1,11
EndSplineSet
Validated: 1
EndChar

StartChar: guillemotleft
Encoding: 171 171 69
Width: 1234
GlyphClass: 2
Flags: W
DStem2: 507 729 245 720 0.440101 -0.897948<0 450.031> 260 791 507 729 0.6769 0.736075<121.558 732.929> 957 729 695 720 0.440101 -0.897948<0 450.031> 710 791 957 729 0.6769 0.736075<121.558 732.929>
LayerCount: 2
Fore
SplineSet
1221 1323 m 0,0,1
 1236 1323 1236 1323 1250 1310 c 2,2,-1
 1352 1216 l 2,3,4
 1366 1203 1366 1203 1366 1184 c 0,5,6
 1366 1167 1366 1167 1346 1146 c 2,7,-1
 957 729 l 1,8,-1
 1147 350 l 2,9,10
 1154 336 1154 336 1154 324 c 0,11,12
 1154 300 1154 300 1124 280 c 2,13,-1
 1012 205 l 2,14,15
 993 192 993 192 977 192 c 0,16,17
 954 192 954 192 943 214 c 2,18,-1
 695 720 l 2,19,20
 689 732 689 732 689 746 c 0,21,22
 689 768 689 768 710 791 c 2,23,-1
 1179 1301 l 2,24,25
 1199 1323 1199 1323 1221 1323 c 0,0,1
771 1323 m 0,26,27
 786 1323 786 1323 800 1310 c 2,28,-1
 902 1216 l 2,29,30
 916 1203 916 1203 916 1184 c 0,31,32
 916 1167 916 1167 896 1146 c 2,33,-1
 507 729 l 1,34,-1
 697 350 l 2,35,36
 704 336 704 336 704 324 c 0,37,38
 704 300 704 300 674 280 c 2,39,-1
 562 205 l 2,40,41
 543 192 543 192 527 192 c 0,42,43
 504 192 504 192 493 214 c 2,44,-1
 245 720 l 2,45,46
 239 732 239 732 239 746 c 0,47,48
 239 768 239 768 260 791 c 2,49,-1
 729 1301 l 2,50,51
 749 1323 749 1323 771 1323 c 0,26,27
EndSplineSet
Validated: 1
EndChar

StartChar: logicalnot
Encoding: 172 172 70
Width: 1253
GlyphClass: 2
Flags: W
HStem: 630 250<269.656 909>
LayerCount: 2
Fore
SplineSet
342 880 m 2,0,-1
 1291 880 l 2,1,2
 1340 880 1340 880 1340 838 c 0,3,4
 1340 817 1340 817 1324 797 c 2,5,-1
 1021 410 l 2,6,7
 989 369 989 369 947 369 c 2,8,-1
 747 369 l 2,9,10
 725 369 725 369 725 385 c 0,11,12
 725 397 725 397 738 413 c 2,13,-1
 909 630 l 1,14,-1
 289 630 l 2,15,16
 236 630 236 630 236 674 c 0,17,18
 236 683 236 683 238 695 c 2,19,-1
 263 815 l 2,20,21
 277 880 277 880 342 880 c 2,0,-1
EndSplineSet
Validated: 1
EndChar

StartChar: uni00AD
Encoding: 173 173 71
Width: 1133
GlyphClass: 2
Flags: W
HStem: 630 250<269.656 1184.34>
LayerCount: 2
Fore
SplineSet
342 880 m 2,0,-1
 1165 880 l 2,1,2
 1218 880 1218 880 1218 836 c 0,3,4
 1218 827 1218 827 1216 815 c 2,5,-1
 1191 695 l 2,6,7
 1177 630 1177 630 1112 630 c 2,8,-1
 289 630 l 2,9,10
 236 630 236 630 236 674 c 0,11,12
 236 683 236 683 238 695 c 2,13,-1
 263 815 l 2,14,15
 277 880 277 880 342 880 c 2,0,-1
EndSplineSet
Validated: 1
EndChar

StartChar: macron
Encoding: 175 175 72
Width: 680
GlyphClass: 2
Flags: W
HStem: 1230 161<336.562 900.438>
VStem: 318 601<1289.88 1331.12>
LayerCount: 2
Fore
SplineSet
386 1391 m 2,0,-1
 886 1391 l 2,1,2
 919 1391 919 1391 919 1364 c 0,3,4
 919 1358 919 1358 917 1351 c 2,5,-1
 900 1270 l 2,6,7
 891 1230 891 1230 851 1230 c 2,8,-1
 351 1230 l 2,9,10
 318 1230 318 1230 318 1257 c 0,11,12
 318 1263 318 1263 320 1270 c 2,13,-1
 337 1351 l 2,14,15
 346 1391 346 1391 386 1391 c 2,0,-1
EndSplineSet
Validated: 1
EndChar

StartChar: degree
Encoding: 176 176 73
Width: 770
GlyphClass: 2
Flags: W
HStem: 895 188<533.364 716.793> 1383 187<578.497 760.2>
VStem: 309 205<1113.66 1316.86> 780 204<1148.01 1352.49>
LayerCount: 2
Fore
SplineSet
680 1383 m 128,-1,1
 625 1383 625 1383 579 1340 c 128,-1,2
 533 1297 533 1297 519 1233 c 0,3,4
 514 1212 514 1212 514 1193 c 0,5,6
 514 1155 514 1155 533 1126 c 0,7,8
 561 1083 561 1083 616 1083 c 128,-1,9
 671 1083 671 1083 716 1126 c 128,-1,10
 761 1169 761 1169 775 1233 c 0,11,12
 780 1255 780 1255 780 1274 c 0,13,14
 780 1311 780 1311 762 1340 c 0,15,0
 735 1383 735 1383 680 1383 c 128,-1,1
690 1570 m 0,16,17
 837 1570 837 1570 916 1471 c 0,18,19
 984 1386 984 1386 984 1271 c 0,20,21
 984 1252 984 1252 982 1232 c 0,22,23
 968 1084 968 1084 858 988 c 0,24,25
 752 895 752 895 612 895 c 0,26,27
 462 895 462 895 378 994 c 0,28,29
 309 1075 309 1075 309 1185 c 0,30,31
 309 1209 309 1209 312 1233 c 0,32,33
 331 1382 331 1382 438 1475 c 0,34,35
 547 1570 547 1570 690 1570 c 0,16,17
EndSplineSet
Validated: 1
EndChar

StartChar: plusminus
Encoding: 177 177 74
Width: 1133
GlyphClass: 2
Flags: W
HStem: 130 250<163.319 1077.01> 762 250<297.656 604 907 1212.34>
DStem2: 469.455 130 719.455 130 0.207912 0.978148<331.893 646.163 953.697 1266.78>
LayerCount: 2
Fore
SplineSet
236 380 m 2,0,-1
 1059 380 l 2,1,2
 1112 380 1112 380 1112 336 c 0,3,4
 1112 327 1112 327 1110 315 c 2,5,-1
 1084 195 l 2,6,7
 1070 130 1070 130 1006 130 c 2,8,-1
 183 130 l 2,9,10
 129 130 129 130 129 175 c 0,11,12
 129 184 129 184 131 195 c 2,13,-1
 157 315 l 2,14,15
 171 380 171 380 236 380 c 2,0,-1
796 1364 m 2,16,-1
 916 1364 l 2,17,18
 970 1364 970 1364 970 1319 c 0,19,20
 970 1309 970 1309 968 1298 c 2,21,-1
 907 1012 l 1,22,-1
 1193 1012 l 2,23,24
 1246 1012 1246 1012 1246 968 c 0,25,26
 1246 959 1246 959 1244 947 c 2,27,-1
 1219 827 l 2,28,29
 1205 762 1205 762 1140 762 c 2,30,-1
 854 762 l 1,31,-1
 793 476 l 2,32,33
 779 410 779 410 713 410 c 2,34,-1
 593 410 l 2,35,36
 540 410 540 410 540 454 c 0,37,38
 540 464 540 464 543 476 c 2,39,-1
 604 762 l 1,40,-1
 317 762 l 2,41,42
 264 762 264 762 264 806 c 0,43,44
 264 815 264 815 266 827 c 2,45,-1
 291 947 l 2,46,47
 305 1012 305 1012 370 1012 c 2,48,-1
 657 1012 l 1,49,-1
 718 1298 l 2,50,51
 732 1364 732 1364 796 1364 c 2,16,-1
EndSplineSet
Validated: 1
EndChar

StartChar: acute
Encoding: 180 180 75
Width: 465
GlyphClass: 2
Flags: W
HStem: 1160 410
VStem: 316 408
LayerCount: 2
Fore
SplineSet
570 1570 m 0,0,1
 584 1570 584 1570 604 1557 c 2,2,-1
 703 1493 l 2,3,4
 724 1480 724 1480 724 1456 c 0,5,6
 724 1436 724 1436 701 1411 c 2,7,-1
 486 1181 l 2,8,9
 466 1160 466 1160 441 1160 c 0,10,11
 430 1160 430 1160 405 1174 c 2,12,-1
 336 1213 l 2,13,14
 316 1224 316 1224 316 1248 c 0,15,16
 316 1265 316 1265 334 1289 c 2,17,-1
 525 1544 l 2,18,19
 544 1570 544 1570 570 1570 c 0,0,1
EndSplineSet
Validated: 1
EndChar

StartChar: uni00B5
Encoding: 181 181 76
Width: 1230
GlyphClass: 2
Flags: W
HStem: -410 21G<100 313> -20 280<552.879 761.944> 0 21G<837 1050> 1080 20G<414 627 1064 1277>
DStem2: 53.208 -410 353.208 -410 0.207912 0.978148<58.0247 483.623 871.287 1548> 702.684 -410 1003.06 -410 0.207912 0.978148<702.674 1548.11>
LayerCount: 2
Fore
SplineSet
1010 0 m 2,0,-1
 870 0 l 2,1,2
 804 0 804 0 804 51 c 1,3,4
 709 -20 709 -20 584 -20 c 0,5,6
 505 -20 505 -20 441 2 c 1,7,-1
 370 -331 l 2,8,9
 353 -410 353 -410 273 -410 c 2,10,-1
 133 -410 l 2,11,12
 67 -410 67 -410 67 -356 c 0,13,14
 67 -345 67 -345 70 -331 c 2,15,-1
 357 1021 l 2,16,17
 374 1100 374 1100 454 1100 c 2,18,-1
 594 1100 l 2,19,20
 660 1100 660 1100 660 1046 c 0,21,22
 660 1035 660 1035 657 1021 c 2,23,-1
 528 413 l 2,24,25
 525 395 525 395 525 380 c 0,26,27
 525 333 525 333 552 303 c 0,28,29
 591 260 591 260 684 260 c 128,-1,30
 777 260 777 260 857 316 c 1,31,-1
 1007 1021 l 2,32,33
 1024 1100 1024 1100 1104 1100 c 2,34,-1
 1244 1100 l 2,35,36
 1310 1100 1310 1100 1310 1046 c 0,37,38
 1310 1035 1310 1035 1307 1021 c 2,39,-1
 1107 79 l 2,40,41
 1090 0 1090 0 1010 0 c 2,0,-1
EndSplineSet
Validated: 1
EndChar

StartChar: paragraph
Encoding: 182 182 77
Width: 1296
GlyphClass: 2
Flags: W
HStem: 0 130<954 1054> 1380 130<1219 1319> 1510 20G<783 947.5>
DStem2: 796.208 0 926.368 0 0.207912 0.978148<159.966 469.302> 1026.37 0 1156.21 0 0.207912 0.978148<132.904 1410.69>
LayerCount: 2
Fore
SplineSet
1076 0 m 2,0,1
 876 0 l 2,2,3
 810 0 810 0 810 54 c 0,4,5
 810 65 810 65 813 79 c 2,6,-1
 894 459 l 1,7,8
 806 390 806 390 687 390 c 0,9,10
 500 390 500 390 398 501 c 16,11,12
 278 632 278 632 278 843 c 0,13,14
 278 899 278 899 286 960 c 0,15,16
 326 1253 326 1253 548 1419 c 0,17,18
 697 1530 697 1530 869 1530 c 0,19,20
 1026 1530 1026 1530 1109 1459 c 1,21,22
 1120 1510 1120 1510 1197 1510 c 2,23,-1
 1397 1510 l 2,24,25
 1463 1510 1463 1510 1463 1456 c 0,26,27
 1463 1445 1463 1445 1460 1431 c 2,28,-1
 1173 79 l 2,29,30
 1156 0 1156 0 1076 0 c 2,0,1
954 130 m 1,31,-1
 1054 130 l 1,32,-1
 1319 1380 l 1,33,-1
 1219 1380 l 1,34,-1
 954 130 l 1,31,-1
EndSplineSet
Validated: 1
EndChar

StartChar: periodcentered
Encoding: 183 183 78
Width: 460
GlyphClass: 2
Flags: W
HStem: 573 365<272.131 506.878>
VStem: 210 360<635.566 875.578>
LayerCount: 2
Fore
SplineSet
390 938 m 128,-1,1
 465 938 465 938 517.5 884.5 c 128,-1,2
 570 831 570 831 570 756 c 128,-1,3
 570 681 570 681 517 627 c 128,-1,4
 464 573 464 573 390 573 c 0,5,6
 314 573 314 573 262 627 c 128,-1,7
 210 681 210 681 210 755 c 0,8,9
 210 831 210 831 262 884 c 0,10,0
 315 938 315 938 390 938 c 128,-1,1
EndSplineSet
Validated: 1
EndChar

StartChar: cedilla
Encoding: 184 184 79
Width: 435
GlyphClass: 2
Flags: W
HStem: -430 138<-21.9089 123.281> -107 107<59 122.179>
VStem: 146 193<-268.38 -129.628>
LayerCount: 2
Fore
SplineSet
59 0 m 1,0,-1
 209 0 l 1,1,-1
 201 -39 l 1,2,3
 250 -50 250 -50 284 -82 c 0,4,5
 339 -133 339 -133 339 -206 c 0,6,7
 339 -213 339 -213 338 -221 c 0,8,9
 332 -301 332 -301 270 -356 c 0,10,11
 187 -430 187 -430 -6 -430 c 16,12,13
 -35 -430 -35 -430 -35 -406 c 0,14,15
 -35 -401 -35 -401 -34 -395 c 2,16,-1
 -20 -327 l 2,17,18
 -13 -292 -13 -292 26 -292 c 0,19,20
 73 -292 73 -292 105 -266 c 0,21,22
 138 -240 138 -240 145 -197 c 0,23,24
 146 -189 146 -189 146 -181 c 0,25,26
 146 -149 146 -149 123 -129 c 0,27,28
 97 -107 97 -107 36 -107 c 1,29,-1
 59 0 l 1,0,-1
EndSplineSet
Validated: 1
EndChar

StartChar: guillemotright
Encoding: 187 187 80
Width: 1234
GlyphClass: 2
Flags: W
DStem2: 613 1301 409 1165 0.440101 -0.897948<6.25089 456.282> 599 786 377 214 0.6769 0.736075<-611.371 0> 1063 1301 859 1165 0.440101 -0.897948<6.25089 456.282> 1049 786 827 214 0.6769 0.736075<-611.371 0>
LayerCount: 2
Fore
SplineSet
335 192 m 0,0,1
 320 192 320 192 306 205 c 2,2,-1
 204 299 l 2,3,4
 190 312 190 312 190 331 c 0,5,6
 190 348 190 348 210 369 c 2,7,-1
 599 786 l 1,8,-1
 409 1165 l 2,9,10
 402 1179 402 1179 402 1191 c 0,11,12
 402 1215 402 1215 432 1235 c 2,13,-1
 544 1310 l 2,14,15
 563 1323 563 1323 579 1323 c 0,16,17
 602 1323 602 1323 613 1301 c 2,18,-1
 861 795 l 2,19,20
 867 783 867 783 867 769 c 0,21,22
 867 747 867 747 846 724 c 2,23,-1
 377 214 l 2,24,25
 357 192 357 192 335 192 c 0,0,1
785 192 m 0,26,27
 770 192 770 192 756 205 c 2,28,-1
 654 299 l 2,29,30
 640 312 640 312 640 331 c 0,31,32
 640 348 640 348 660 369 c 2,33,-1
 1049 786 l 1,34,-1
 859 1165 l 2,35,36
 852 1179 852 1179 852 1191 c 0,37,38
 852 1215 852 1215 882 1235 c 2,39,-1
 994 1310 l 2,40,41
 1013 1323 1013 1323 1029 1323 c 0,42,43
 1052 1323 1052 1323 1063 1301 c 2,44,-1
 1311 795 l 2,45,46
 1317 783 1317 783 1317 769 c 0,47,48
 1317 747 1317 747 1296 724 c 2,49,-1
 827 214 l 2,50,51
 807 192 807 192 785 192 c 0,26,27
EndSplineSet
Validated: 1
EndChar

StartChar: questiondown
Encoding: 191 191 81
Width: 1200
GlyphClass: 2
Flags: W
HStem: -430 300<470.321 771.708> -31 20G<868 900> 755 365<758.122 992.869>
VStem: 100 322<-78.6309 158.542> 695 360<817.422 1057.43>
LayerCount: 2
Fore
SplineSet
875 1120 m 0,0,1
 951 1120 951 1120 1003 1066 c 128,-1,2
 1055 1012 1055 1012 1055 938 c 0,3,4
 1055 862 1055 862 1003 809 c 0,5,6
 950 755 950 755 875 755 c 128,-1,7
 800 755 800 755 747.5 808.5 c 128,-1,8
 695 862 695 862 695 937 c 128,-1,9
 695 1012 695 1012 748 1066 c 128,-1,10
 801 1120 801 1120 875 1120 c 0,0,1
584 -430 m 0,11,12
 324 -430 324 -430 195 -266 c 0,13,14
 100 -145 100 -145 100 2 c 0,15,16
 100 34 100 34 104 66 c 0,17,18
 141 349 141 349 472 491 c 0,19,20
 628 558 628 558 641 621 c 0,21,22
 658 700 658 700 738 700 c 2,23,-1
 898 700 l 2,24,25
 964 700 964 700 964 646 c 0,26,27
 964 635 964 635 961 621 c 0,28,29
 914 396 914 396 669 299 c 0,30,31
 449 212 449 212 425 64 c 0,32,33
 422 44 422 44 422 26 c 0,34,35
 422 -24 422 -24 446 -59 c 0,36,37
 496 -130 496 -130 618 -130 c 0,38,39
 747 -130 747 -130 824 -40 c 24,40,41
 849 -11 849 -11 887 -11 c 0,42,43
 913 -11 913 -11 935 -31 c 2,44,-1
 1046 -131 l 2,45,46
 1069 -152 1069 -152 1069 -181 c 128,-1,47
 1069 -210 1069 -210 1038 -242 c 0,48,49
 860 -430 860 -430 584 -430 c 0,11,12
EndSplineSet
Validated: 1
EndChar

StartChar: figuredash
Encoding: 8210 8210 82
Width: 1133
GlyphClass: 2
Flags: W
HStem: 630 250<269.656 1184.34>
LayerCount: 2
Fore
SplineSet
342 880 m 2,0,-1
 1165 880 l 2,1,2
 1218 880 1218 880 1218 836 c 0,3,4
 1218 827 1218 827 1216 815 c 2,5,-1
 1191 695 l 2,6,7
 1177 630 1177 630 1112 630 c 2,8,-1
 289 630 l 2,9,10
 236 630 236 630 236 674 c 0,11,12
 236 683 236 683 238 695 c 2,13,-1
 263 815 l 2,14,15
 277 880 277 880 342 880 c 2,0,-1
EndSplineSet
Validated: 1
EndChar

StartChar: endash
Encoding: 8211 8211 83
Width: 1533
GlyphClass: 2
Flags: W
HStem: 630 250<269.656 1584.34>
LayerCount: 2
Fore
SplineSet
342 880 m 2,0,-1
 1565 880 l 2,1,2
 1618 880 1618 880 1618 836 c 0,3,4
 1618 827 1618 827 1616 815 c 2,5,-1
 1591 695 l 2,6,7
 1577 630 1577 630 1512 630 c 2,8,-1
 289 630 l 2,9,10
 236 630 236 630 236 674 c 0,11,12
 236 683 236 683 238 695 c 2,13,-1
 263 815 l 2,14,15
 277 880 277 880 342 880 c 2,0,-1
EndSplineSet
Validated: 1
EndChar

StartChar: emdash
Encoding: 8212 8212 84
Width: 1533
GlyphClass: 2
Flags: W
HStem: 630 250<269.656 1584.34>
LayerCount: 2
Fore
SplineSet
342 880 m 2,0,-1
 1565 880 l 2,1,2
 1618 880 1618 880 1618 836 c 0,3,4
 1618 827 1618 827 1616 815 c 2,5,-1
 1591 695 l 2,6,7
 1577 630 1577 630 1512 630 c 2,8,-1
 289 630 l 2,9,10
 236 630 236 630 236 674 c 0,11,12
 236 683 236 683 238 695 c 2,13,-1
 263 815 l 2,14,15
 277 880 277 880 342 880 c 2,0,-1
EndSplineSet
Validated: 1
EndChar

StartChar: quoteleft
Encoding: 8216 8216 85
Width: 415
GlyphClass: 2
Flags: W
HStem: 973 637
VStem: 307 248<1064.78 1361.98>
LayerCount: 2
Fore
SplineSet
590 1610 m 0,0,1
 608 1610 608 1610 625 1595 c 2,2,-1
 673 1552 l 2,3,4
 687 1540 687 1540 687 1523 c 128,-1,5
 687 1506 687 1506 664 1488 c 0,6,7
 590 1426 590 1426 563 1305 c 0,8,9
 555 1269 555 1269 555 1239 c 0,10,11
 555 1182 555 1182 583 1144 c 0,12,13
 598 1124 598 1124 598 1105 c 0,14,15
 598 1075 598 1075 555 1049 c 2,16,-1
 450 986 l 2,17,18
 428 973 428 973 406 973 c 128,-1,19
 384 973 384 973 364 996 c 0,20,21
 307 1061 307 1061 307 1164 c 0,22,23
 307 1209 307 1209 318 1261 c 0,24,25
 357 1447 357 1447 540 1589 c 0,26,27
 567 1610 567 1610 590 1610 c 0,0,1
EndSplineSet
Validated: 1
EndChar

StartChar: quoteright
Encoding: 8217 8217 86
Width: 415
GlyphClass: 2
Flags: W
HStem: 973 637
VStem: 409 248<1221.19 1477.41>
LayerCount: 2
Fore
SplineSet
558 1610 m 128,-1,1
 580 1610 580 1610 600 1587 c 0,2,3
 657 1522 657 1522 657 1419 c 0,4,5
 657 1374 657 1374 646 1322 c 0,6,7
 607 1136 607 1136 424 994 c 0,8,9
 397 973 397 973 374 973 c 0,10,11
 356 973 356 973 339 988 c 2,12,-1
 291 1031 l 2,13,14
 277 1043 277 1043 277 1060 c 128,-1,15
 277 1077 277 1077 300 1095 c 0,16,17
 374 1157 374 1157 401 1278 c 0,18,19
 409 1314 409 1314 409 1344 c 0,20,21
 409 1401 409 1401 381 1439 c 0,22,23
 366 1459 366 1459 366 1478 c 0,24,25
 366 1508 366 1508 409 1534 c 2,26,-1
 514 1597 l 2,27,0
 536 1610 536 1610 558 1610 c 128,-1,1
EndSplineSet
Validated: 1
EndChar

StartChar: quotesinglbase
Encoding: 8218 8218 87
Width: 415
GlyphClass: 2
Flags: W
HStem: -317 637
VStem: 135 248<-68.8125 187.406>
LayerCount: 2
Fore
SplineSet
284 320 m 128,-1,1
 306 320 306 320 326 297 c 0,2,3
 383 232 383 232 383 129 c 0,4,5
 383 84 383 84 372 32 c 0,6,7
 333 -154 333 -154 150 -296 c 0,8,9
 123 -317 123 -317 100 -317 c 0,10,11
 82 -317 82 -317 65 -302 c 2,12,-1
 17 -259 l 2,13,14
 3 -247 3 -247 3 -230 c 128,-1,15
 3 -213 3 -213 26 -195 c 0,16,17
 100 -133 100 -133 127 -12 c 0,18,19
 135 24 135 24 135 54 c 0,20,21
 135 111 135 111 107 149 c 0,22,23
 92 169 92 169 92 188 c 0,24,25
 92 218 92 218 135 244 c 2,26,-1
 240 307 l 2,27,0
 262 320 262 320 284 320 c 128,-1,1
EndSplineSet
Validated: 1
EndChar

StartChar: quotereversed
Encoding: 8219 8219 88
Width: 415
GlyphClass: 2
Flags: W
HStem: 973 637<464.672 541.375>
VStem: 325 219<1079.16 1375.55>
LayerCount: 2
Fore
SplineSet
541 1610 m 128,-1,1
 563 1610 563 1610 579 1597 c 2,2,-1
 658 1534 l 2,3,4
 680 1516 680 1516 680 1491 c 128,-1,5
 680 1466 680 1466 646 1439 c 0,6,7
 564 1374 564 1374 548 1260 c 0,8,9
 544 1234 544 1234 544 1211 c 0,10,11
 544 1140 544 1140 581 1095 c 0,12,13
 590 1084 590 1084 590 1070 c 0,14,15
 590 1049 590 1049 562 1031 c 2,16,-1
 496 988 l 2,17,18
 473 973 473 973 455 973 c 0,19,20
 432 973 432 973 413 994 c 0,21,22
 325 1094 325 1094 325 1242 c 0,23,24
 325 1281 325 1281 331 1322 c 0,25,26
 354 1483 354 1483 489 1587 c 0,27,0
 519 1610 519 1610 541 1610 c 128,-1,1
EndSplineSet
Validated: 1
EndChar

StartChar: quotedblleft
Encoding: 8220 8220 89
Width: 785
GlyphClass: 2
Flags: W
HStem: 973 637
VStem: 307 248<1064.78 1361.98> 677 248<1064.78 1361.98>
LayerCount: 2
Fore
SplineSet
960 1610 m 0,0,1
 978 1610 978 1610 995 1595 c 2,2,-1
 1043 1552 l 2,3,4
 1057 1540 1057 1540 1057 1523 c 128,-1,5
 1057 1506 1057 1506 1034 1488 c 0,6,7
 960 1426 960 1426 933 1305 c 0,8,9
 925 1269 925 1269 925 1239 c 0,10,11
 925 1182 925 1182 953 1144 c 0,12,13
 968 1124 968 1124 968 1105 c 0,14,15
 968 1075 968 1075 925 1049 c 2,16,-1
 820 986 l 2,17,18
 798 973 798 973 776 973 c 128,-1,19
 754 973 754 973 734 996 c 0,20,21
 677 1061 677 1061 677 1164 c 0,22,23
 677 1209 677 1209 688 1261 c 0,24,25
 727 1447 727 1447 910 1589 c 0,26,27
 937 1610 937 1610 960 1610 c 0,0,1
590 1610 m 0,28,29
 608 1610 608 1610 625 1595 c 2,30,-1
 673 1552 l 2,31,32
 687 1540 687 1540 687 1523 c 128,-1,33
 687 1506 687 1506 664 1488 c 0,34,35
 590 1426 590 1426 563 1305 c 0,36,37
 555 1269 555 1269 555 1239 c 0,38,39
 555 1182 555 1182 583 1144 c 0,40,41
 598 1124 598 1124 598 1105 c 0,42,43
 598 1075 598 1075 555 1049 c 2,44,-1
 450 986 l 2,45,46
 428 973 428 973 406 973 c 128,-1,47
 384 973 384 973 364 996 c 0,48,49
 307 1061 307 1061 307 1164 c 0,50,51
 307 1209 307 1209 318 1261 c 0,52,53
 357 1447 357 1447 540 1589 c 0,54,55
 567 1610 567 1610 590 1610 c 0,28,29
EndSplineSet
Validated: 1
EndChar

StartChar: quotedblright
Encoding: 8221 8221 90
Width: 785
GlyphClass: 2
Flags: W
HStem: 973 637
VStem: 409 248<1221.19 1477.41> 779 248<1221.19 1477.41>
LayerCount: 2
Fore
SplineSet
928 1610 m 128,-1,1
 950 1610 950 1610 970 1587 c 0,2,3
 1027 1522 1027 1522 1027 1419 c 0,4,5
 1027 1374 1027 1374 1016 1322 c 0,6,7
 977 1136 977 1136 794 994 c 0,8,9
 767 973 767 973 744 973 c 0,10,11
 726 973 726 973 709 988 c 2,12,-1
 661 1031 l 2,13,14
 647 1043 647 1043 647 1060 c 128,-1,15
 647 1077 647 1077 670 1095 c 0,16,17
 744 1157 744 1157 771 1278 c 0,18,19
 779 1314 779 1314 779 1344 c 0,20,21
 779 1401 779 1401 751 1439 c 0,22,23
 736 1459 736 1459 736 1478 c 0,24,25
 736 1508 736 1508 779 1534 c 2,26,-1
 884 1597 l 2,27,0
 906 1610 906 1610 928 1610 c 128,-1,1
558 1610 m 128,-1,29
 580 1610 580 1610 600 1587 c 0,30,31
 657 1522 657 1522 657 1419 c 0,32,33
 657 1374 657 1374 646 1322 c 0,34,35
 607 1136 607 1136 424 994 c 0,36,37
 397 973 397 973 374 973 c 0,38,39
 356 973 356 973 339 988 c 2,40,-1
 291 1031 l 2,41,42
 277 1043 277 1043 277 1060 c 128,-1,43
 277 1077 277 1077 300 1095 c 0,44,45
 374 1157 374 1157 401 1278 c 0,46,47
 409 1314 409 1314 409 1344 c 0,48,49
 409 1401 409 1401 381 1439 c 0,50,51
 366 1459 366 1459 366 1478 c 0,52,53
 366 1508 366 1508 409 1534 c 2,54,-1
 514 1597 l 2,55,28
 536 1610 536 1610 558 1610 c 128,-1,29
EndSplineSet
Validated: 1
EndChar

StartChar: quotedblbase
Encoding: 8222 8222 91
Width: 785
GlyphClass: 2
Flags: W
HStem: -317 637
VStem: 135 248<-68.8125 187.406> 505 248<-68.8125 187.406>
LayerCount: 2
Fore
SplineSet
654 320 m 128,-1,1
 676 320 676 320 696 297 c 0,2,3
 753 232 753 232 753 129 c 0,4,5
 753 84 753 84 742 32 c 0,6,7
 703 -154 703 -154 520 -296 c 0,8,9
 493 -317 493 -317 470 -317 c 0,10,11
 452 -317 452 -317 435 -302 c 2,12,-1
 387 -259 l 2,13,14
 373 -247 373 -247 373 -230 c 128,-1,15
 373 -213 373 -213 396 -195 c 0,16,17
 470 -133 470 -133 497 -12 c 0,18,19
 505 24 505 24 505 54 c 0,20,21
 505 111 505 111 477 149 c 0,22,23
 462 169 462 169 462 188 c 0,24,25
 462 218 462 218 505 244 c 2,26,-1
 610 307 l 2,27,0
 632 320 632 320 654 320 c 128,-1,1
284 320 m 128,-1,29
 306 320 306 320 326 297 c 0,30,31
 383 232 383 232 383 129 c 0,32,33
 383 84 383 84 372 32 c 0,34,35
 333 -154 333 -154 150 -296 c 0,36,37
 123 -317 123 -317 100 -317 c 0,38,39
 82 -317 82 -317 65 -302 c 2,40,-1
 17 -259 l 2,41,42
 3 -247 3 -247 3 -230 c 128,-1,43
 3 -213 3 -213 26 -195 c 0,44,45
 100 -133 100 -133 127 -12 c 0,46,47
 135 24 135 24 135 54 c 0,48,49
 135 111 135 111 107 149 c 0,50,51
 92 169 92 169 92 188 c 0,52,53
 92 218 92 218 135 244 c 2,54,-1
 240 307 l 2,55,28
 262 320 262 320 284 320 c 128,-1,29
EndSplineSet
Validated: 1
EndChar

StartChar: dagger
Encoding: 8224 8224 92
Width: 1150
GlyphClass: 2
Flags: W
HStem: 0 21G<462 695> 918 300<344.438 610 994 1259.56> 1490 20G<776 1009>
DStem2: 415.208 0 735.208 0 0.207912 0.978148<62.183 938.439 1311.72 1548>
LayerCount: 2
Fore
SplineSet
495 0 m 2,0,1
 429 0 429 0 429 54 c 0,2,3
 429 65 429 65 432 79 c 2,4,-1
 610 918 l 1,5,-1
 365 918 l 2,6,7
 299 918 299 918 299 972 c 0,8,9
 299 983 299 983 302 997 c 2,10,-1
 332 1139 l 2,11,12
 349 1218 349 1218 429 1218 c 2,13,-1
 674 1218 l 1,14,-1
 719 1431 l 2,15,16
 736 1510 736 1510 816 1510 c 2,17,-1
 976 1510 l 2,18,19
 1042 1510 1042 1510 1042 1456 c 0,20,21
 1042 1445 1042 1445 1039 1431 c 2,22,-1
 994 1218 l 1,23,-1
 1239 1218 l 2,24,25
 1305 1218 1305 1218 1305 1164 c 0,26,27
 1305 1153 1305 1153 1302 1139 c 2,28,-1
 1272 997 l 2,29,30
 1255 918 1255 918 1175 918 c 2,31,-1
 930 918 l 1,32,-1
 752 79 l 2,33,34
 735 0 735 0 655 0 c 2,35,-1
 495 0 l 2,0,1
EndSplineSet
Validated: 1
EndChar

StartChar: daggerdbl
Encoding: 8225 8225 93
Width: 1150
GlyphClass: 2
Flags: W
HStem: 0 21G<462 695> 292 300<211.438 477 861 1126.56> 918 300<344.438 610 994 1259.56> 1490 20G<776 1009>
DStem2: 415.208 0 735.208 0 0.207912 0.978148<62.183 298.466 671.749 938.439 1311.72 1548>
LayerCount: 2
Fore
SplineSet
655 0 m 2,0,-1
 495 0 l 2,1,2
 429 0 429 0 429 54 c 0,3,4
 429 65 429 65 432 79 c 2,5,-1
 477 292 l 1,6,-1
 232 292 l 2,7,8
 166 292 166 292 166 346 c 0,9,10
 166 357 166 357 169 371 c 2,11,-1
 199 513 l 2,12,13
 216 592 216 592 296 592 c 2,14,-1
 541 592 l 1,15,-1
 610 918 l 1,16,-1
 365 918 l 2,17,18
 299 918 299 918 299 972 c 0,19,20
 299 983 299 983 302 997 c 2,21,-1
 332 1139 l 2,22,23
 349 1218 349 1218 429 1218 c 2,24,-1
 674 1218 l 1,25,-1
 719 1431 l 2,26,27
 736 1510 736 1510 816 1510 c 2,28,-1
 976 1510 l 2,29,30
 1042 1510 1042 1510 1042 1456 c 0,31,32
 1042 1445 1042 1445 1039 1431 c 2,33,-1
 994 1218 l 1,34,-1
 1239 1218 l 2,35,36
 1305 1218 1305 1218 1305 1164 c 0,37,38
 1305 1153 1305 1153 1302 1139 c 2,39,-1
 1272 997 l 2,40,41
 1255 918 1255 918 1175 918 c 2,42,-1
 930 918 l 1,43,-1
 861 592 l 1,44,-1
 1106 592 l 2,45,46
 1172 592 1172 592 1172 538 c 0,47,48
 1172 527 1172 527 1169 513 c 2,49,-1
 1139 371 l 2,50,51
 1122 292 1122 292 1042 292 c 2,52,-1
 797 292 l 1,53,-1
 752 79 l 2,54,55
 735 0 735 0 655 0 c 2,0,-1
EndSplineSet
Validated: 1
EndChar

StartChar: bullet
Encoding: 8226 8226 94
Width: 888
GlyphClass: 2
Flags: W
HStem: 385 740<428.128 779.872>
VStem: 240 728<576.566 933.434>
LayerCount: 2
Fore
SplineSet
604 1125 m 128,-1,1
 756 1125 756 1125 862 1017 c 128,-1,2
 968 909 968 909 968 755 c 128,-1,3
 968 601 968 601 862 493 c 128,-1,4
 756 385 756 385 604 385 c 128,-1,5
 452 385 452 385 346 493 c 128,-1,6
 240 601 240 601 240 755 c 128,-1,7
 240 909 240 909 346 1017 c 128,-1,0
 452 1125 452 1125 604 1125 c 128,-1,1
EndSplineSet
Validated: 1
EndChar

StartChar: ellipsis
Encoding: 8230 8230 95
Width: 1332
GlyphClass: 2
Flags: W
HStem: -20 365<146.131 380.878 582.131 816.878 1018.13 1252.88>
VStem: 84 360<42.5657 282.578> 520 360<42.5657 282.578> 956 360<42.5657 282.578>
CounterMasks: 1 70
LayerCount: 2
Fore
SplineSet
1136 -20 m 0,0,1
 1060 -20 1060 -20 1008 34 c 128,-1,2
 956 88 956 88 956 162 c 0,3,4
 956 238 956 238 1008 291 c 0,5,6
 1061 345 1061 345 1136 345 c 128,-1,7
 1211 345 1211 345 1263.5 291.5 c 128,-1,8
 1316 238 1316 238 1316 163 c 128,-1,9
 1316 88 1316 88 1263 34 c 128,-1,10
 1210 -20 1210 -20 1136 -20 c 0,0,1
700 -20 m 0,11,12
 624 -20 624 -20 572 34 c 128,-1,13
 520 88 520 88 520 162 c 0,14,15
 520 238 520 238 572 291 c 0,16,17
 625 345 625 345 700 345 c 128,-1,18
 775 345 775 345 827.5 291.5 c 128,-1,19
 880 238 880 238 880 163 c 128,-1,20
 880 88 880 88 827 34 c 128,-1,21
 774 -20 774 -20 700 -20 c 0,11,12
264 -20 m 0,22,23
 188 -20 188 -20 136 34 c 128,-1,24
 84 88 84 88 84 162 c 0,25,26
 84 238 84 238 136 291 c 0,27,28
 189 345 189 345 264 345 c 128,-1,29
 339 345 339 345 391.5 291.5 c 128,-1,30
 444 238 444 238 444 163 c 128,-1,31
 444 88 444 88 391 34 c 128,-1,32
 338 -20 338 -20 264 -20 c 0,22,23
EndSplineSet
Validated: 1
EndChar

StartChar: perthousand
Encoding: 8240 8240 96
Width: 2564
GlyphClass: 2
Flags: W
HStem: -20 206<1289.18 1484.43 2067.18 2262.43> 517 205<1340.61 1535.09 2118.61 2313.09> 788 206<572.18 764.616> 1325 205<623.61 818.089>
VStem: 323 226<1043 1247.31> 840 228<1070.89 1291.34> 1040 226<235.002 439.314> 1557 228<262.887 483.342> 1818 226<235.002 439.314> 2335 228<262.887 483.342>
DStem2: 396 129 608 0 0.624074 0.781365<-39.0561 1838.59>
LayerCount: 2
Fore
SplineSet
2227.5 517 m 128,-1,1
 2167 517 2167 517 2115.5 469.5 c 128,-1,2
 2064 422 2064 422 2049 352 c 0,3,4
 2044 329 2044 329 2044 308 c 0,5,6
 2044 266 2044 266 2065 234 c 0,7,8
 2096 186 2096 186 2156 186 c 128,-1,9
 2216 186 2216 186 2266 234 c 0,10,11
 2315 282 2315 282 2330 352 c 0,12,13
 2335 375 2335 375 2335 397 c 0,14,15
 2335 438 2335 438 2316 470 c 0,16,0
 2288 517 2288 517 2227.5 517 c 128,-1,1
2131 -20 m 0,17,18
 1966 -20 1966 -20 1884 89 c 0,19,20
 1818 176 1818 176 1818 293 c 0,21,22
 1818 322 1818 322 1822 352 c 0,23,24
 1842 508 1842 508 1961 616 c 0,25,26
 2077 722 2077 722 2249 722 c 0,27,28
 2412 722 2412 722 2496 613 c 0,29,30
 2563 526 2563 526 2563 414 c 0,31,32
 2563 383 2563 383 2558 350 c 0,33,34
 2534 197 2534 197 2419 88 c 0,35,36
 2304 -20 2304 -20 2131 -20 c 0,17,18
1449.5 517 m 128,-1,38
 1389 517 1389 517 1337.5 469.5 c 128,-1,39
 1286 422 1286 422 1271 352 c 0,40,41
 1266 329 1266 329 1266 308 c 0,42,43
 1266 266 1266 266 1287 234 c 0,44,45
 1318 186 1318 186 1378 186 c 128,-1,46
 1438 186 1438 186 1488 234 c 0,47,48
 1537 282 1537 282 1552 352 c 0,49,50
 1557 375 1557 375 1557 397 c 0,51,52
 1557 438 1557 438 1538 470 c 0,53,37
 1510 517 1510 517 1449.5 517 c 128,-1,38
1353 -20 m 0,54,55
 1188 -20 1188 -20 1106 89 c 0,56,57
 1040 176 1040 176 1040 293 c 0,58,59
 1040 322 1040 322 1044 352 c 0,60,61
 1064 508 1064 508 1183 616 c 0,62,63
 1299 722 1299 722 1471 722 c 0,64,65
 1634 722 1634 722 1718 613 c 0,66,67
 1785 526 1785 526 1785 414 c 0,68,69
 1785 383 1785 383 1780 350 c 0,70,71
 1756 197 1756 197 1641 88 c 0,72,73
 1526 -20 1526 -20 1353 -20 c 0,54,55
732.5 1325 m 128,-1,75
 672 1325 672 1325 620.5 1277.5 c 128,-1,76
 569 1230 569 1230 554 1160 c 0,77,78
 549 1137 549 1137 549 1116 c 0,79,80
 549 1074 549 1074 570 1042 c 0,81,82
 601 994 601 994 661 994 c 128,-1,83
 721 994 721 994 770 1042 c 0,84,85
 820 1090 820 1090 835 1160 c 0,86,87
 840 1183 840 1183 840 1205 c 0,88,89
 840 1246 840 1246 821 1278 c 0,90,74
 793 1325 793 1325 732.5 1325 c 128,-1,75
754 1530 m 0,91,92
 917 1530 917 1530 1001 1421 c 0,93,94
 1068 1334 1068 1334 1068 1222 c 0,95,96
 1068 1191 1068 1191 1063 1158 c 0,97,98
 1039 1005 1039 1005 924 896 c 0,99,100
 809 788 809 788 636 788 c 0,101,102
 471 788 471 788 389 897 c 0,103,104
 323 984 323 984 323 1101 c 0,105,106
 323 1130 323 1130 327 1160 c 0,107,108
 347 1316 347 1316 466 1424 c 0,109,110
 582 1530 582 1530 754 1530 c 0,91,92
544 -40 m 0,111,112
 525 -40 525 -40 502 -27 c 2,113,-1
 401 29 l 2,114,115
 373 45 373 45 373 75 c 24,116,117
 373 100 373 100 396 129 c 2,118,-1
 1499 1510 l 2,119,120
 1531 1550 1531 1550 1564 1550 c 0,121,122
 1581 1550 1581 1550 1604 1537 c 2,123,-1
 1705 1481 l 2,124,125
 1733 1465 1733 1465 1733 1436 c 24,126,127
 1733 1409 1733 1409 1711 1381 c 2,128,-1
 608 0 l 2,129,130
 576 -40 576 -40 544 -40 c 0,111,112
EndSplineSet
Validated: 1
EndChar

StartChar: minute
Encoding: 8242 8242 97
Width: 416
GlyphClass: 2
Flags: W
HStem: 1150 420<466.641 488.906>
VStem: 310 371
LayerCount: 2
Fore
SplineSet
513 1570 m 0,0,1
 520 1570 520 1570 530 1566 c 2,2,-1
 659 1516 l 2,3,4
 681 1507 681 1507 681 1489 c 0,5,6
 681 1475 681 1475 670 1459 c 2,7,-1
 480 1178 l 2,8,9
 461 1150 461 1150 438 1150 c 0,10,11
 431 1150 431 1150 421 1154 c 2,12,-1
 332 1190 l 2,13,14
 310 1199 310 1199 310 1216 c 0,15,16
 310 1227 310 1227 317 1240 c 2,17,-1
 474 1540 l 2,18,19
 490 1570 490 1570 513 1570 c 0,0,1
EndSplineSet
Validated: 1
EndChar

StartChar: second
Encoding: 8243 8243 98
Width: 736
GlyphClass: 2
Flags: W
HStem: 1150 420<466.641 488.906 786.641 808.906>
LayerCount: 2
Fore
SplineSet
833 1570 m 0,0,1
 840 1570 840 1570 850 1566 c 2,2,-1
 979 1516 l 2,3,4
 1001 1507 1001 1507 1001 1489 c 0,5,6
 1001 1475 1001 1475 990 1459 c 2,7,-1
 800 1178 l 2,8,9
 781 1150 781 1150 758 1150 c 0,10,11
 751 1150 751 1150 741 1154 c 2,12,-1
 652 1190 l 2,13,14
 630 1199 630 1199 630 1216 c 0,15,16
 630 1227 630 1227 637 1240 c 2,17,-1
 794 1540 l 2,18,19
 810 1570 810 1570 833 1570 c 0,0,1
513 1570 m 0,20,21
 520 1570 520 1570 530 1566 c 2,22,-1
 659 1516 l 2,23,24
 681 1507 681 1507 681 1489 c 0,25,26
 681 1475 681 1475 670 1459 c 2,27,-1
 480 1178 l 2,28,29
 461 1150 461 1150 438 1150 c 0,30,31
 431 1150 431 1150 421 1154 c 2,32,-1
 332 1190 l 2,33,34
 310 1199 310 1199 310 1216 c 0,35,36
 310 1227 310 1227 317 1240 c 2,37,-1
 474 1540 l 2,38,39
 490 1570 490 1570 513 1570 c 0,20,21
EndSplineSet
Validated: 1
EndChar

StartChar: guilsinglleft
Encoding: 8249 8249 99
Width: 784
GlyphClass: 2
Flags: W
VStem: 239 677
DStem2: 507 729 245 720 0.440101 -0.897948<0 450.031> 260 791 507 729 0.6769 0.736075<121.558 732.929>
LayerCount: 2
Fore
SplineSet
771 1323 m 0,0,1
 786 1323 786 1323 800 1310 c 2,2,-1
 902 1216 l 2,3,4
 916 1203 916 1203 916 1184 c 0,5,6
 916 1167 916 1167 896 1146 c 2,7,-1
 507 729 l 1,8,-1
 697 350 l 2,9,10
 704 336 704 336 704 324 c 0,11,12
 704 300 704 300 674 280 c 2,13,-1
 562 205 l 2,14,15
 543 192 543 192 527 192 c 0,16,17
 504 192 504 192 493 214 c 2,18,-1
 245 720 l 2,19,20
 239 732 239 732 239 746 c 0,21,22
 239 768 239 768 260 791 c 2,23,-1
 729 1301 l 2,24,25
 749 1323 749 1323 771 1323 c 0,0,1
EndSplineSet
Validated: 1
EndChar

StartChar: guilsinglright
Encoding: 8250 8250 100
Width: 784
GlyphClass: 2
Flags: W
VStem: 190 677
DStem2: 613 1301 409 1165 0.440101 -0.897948<6.25089 456.282> 599 786 377 214 0.6769 0.736075<-611.371 0>
LayerCount: 2
Fore
SplineSet
335 192 m 0,0,1
 320 192 320 192 306 205 c 2,2,-1
 204 299 l 2,3,4
 190 312 190 312 190 331 c 0,5,6
 190 348 190 348 210 369 c 2,7,-1
 599 786 l 1,8,-1
 409 1165 l 2,9,10
 402 1179 402 1179 402 1191 c 0,11,12
 402 1215 402 1215 432 1235 c 2,13,-1
 544 1310 l 2,14,15
 563 1323 563 1323 579 1323 c 0,16,17
 602 1323 602 1323 613 1301 c 2,18,-1
 861 795 l 2,19,20
 867 783 867 783 867 769 c 0,21,22
 867 747 867 747 846 724 c 2,23,-1
 377 214 l 2,24,25
 357 192 357 192 335 192 c 0,0,1
EndSplineSet
Validated: 1
EndChar

StartChar: fraction
Encoding: 8260 8260 101
Width: 1091
GlyphClass: 2
Flags: W
DStem2: 49 129 261 0 0.624074 0.781365<-39.0561 1838.59>
LayerCount: 2
Fore
SplineSet
197 -40 m 0,0,1
 178 -40 178 -40 155 -27 c 2,2,-1
 54 29 l 2,3,4
 26 45 26 45 26 75 c 24,5,6
 26 100 26 100 49 129 c 2,7,-1
 1152 1510 l 2,8,9
 1184 1550 1184 1550 1217 1550 c 0,10,11
 1234 1550 1234 1550 1257 1537 c 2,12,-1
 1358 1481 l 2,13,14
 1386 1465 1386 1465 1386 1436 c 24,15,16
 1386 1409 1386 1409 1364 1381 c 2,17,-1
 261 0 l 2,18,19
 229 -40 229 -40 197 -40 c 0,0,1
EndSplineSet
Validated: 1
EndChar

StartChar: Euro
Encoding: 8364 8364 102
Width: 1491
GlyphClass: 2
Flags: W
HStem: -20 300<751.387 1105.11> 519 180<189.689 297.008 626 1123.31> 811 180<251.689 308 727 1185.31> 1230 300<932.598 1287.82>
LayerCount: 2
Fore
SplineSet
885 -20 m 0,0,1
 560 -20 560 -20 401 211 c 0,2,3
 311 342 311 342 293 519 c 1,4,-1
 205 519 l 2,5,6
 168 519 168 519 168 549 c 0,7,8
 168 556 168 556 170 564 c 2,9,-1
 189 654 l 2,10,11
 199 699 199 699 244 699 c 2,12,-1
 293 699 l 1,13,14
 295 727 295 727 299 755 c 128,-1,15
 303 783 303 783 308 811 c 1,16,-1
 267 811 l 2,17,18
 230 811 230 811 230 841 c 0,19,20
 230 848 230 848 232 856 c 2,21,-1
 251 946 l 2,22,23
 261 991 261 991 306 991 c 2,24,-1
 363 991 l 1,25,26
 435 1158 435 1158 577 1299 c 0,27,28
 810 1530 810 1530 1159 1530 c 0,29,30
 1495 1530 1495 1530 1660 1276 c 0,31,32
 1673 1256 1673 1256 1673 1235 c 0,33,34
 1673 1198 1673 1198 1624 1164 c 2,35,-1
 1495 1074 l 2,36,37
 1462 1051 1462 1051 1438 1051 c 0,38,39
 1406 1051 1406 1051 1386 1085 c 0,40,41
 1296 1230 1296 1230 1122 1230 c 0,42,43
 949 1230 949 1230 821 1106 c 0,44,45
 767 1054 767 1054 727 991 c 1,46,-1
 1170 991 l 2,47,48
 1207 991 1207 991 1207 960 c 0,49,50
 1207 954 1207 954 1205 946 c 2,51,-1
 1186 856 l 2,52,53
 1176 811 1176 811 1131 811 c 2,54,-1
 648 811 l 1,55,56
 640 784 640 784 634 755 c 128,-1,57
 628 726 628 726 624 699 c 1,58,-1
 1108 699 l 2,59,60
 1145 699 1145 699 1145 668 c 0,61,62
 1145 662 1145 662 1143 654 c 2,63,-1
 1124 564 l 2,64,65
 1114 519 1114 519 1069 519 c 2,66,-1
 626 519 l 1,67,68
 639 455 639 455 672 404 c 0,69,70
 752 280 752 280 923 280 c 0,71,72
 1100 280 1100 280 1245 425 c 0,73,74
 1279 459 1279 459 1311 459 c 0,75,76
 1335 459 1335 459 1359 436 c 2,77,-1
 1478 321 l 2,78,79
 1500 300 1500 300 1500 272 c 0,80,81
 1500 243 1500 243 1466 209 c 0,82,83
 1238 -19 1238 -19 885 -20 c 0,0,1
EndSplineSet
Validated: 1
EndChar

StartChar: afii61248
Encoding: 8453 8453 103
Width: 1831
GlyphClass: 2
Flags: W
HStem: -20 191<1295.67 1521.7> 602 191<1368.91 1592.22> 717 192<559.139 786.41> 1340 190<634.17 856.03>
VStem: 313 213<966.129 1220.39> 1057 207<229.067 483.387> 1626 213<289.613 543.84>
DStem2: 397 129 609 0 0.624074 0.781365<-39.0561 1838.59>
LayerCount: 2
Fore
SplineSet
1379 -20 m 0,0,1
 1211 -20 1211 -20 1124 100 c 0,2,3
 1057 192 1057 192 1057 313 c 0,4,5
 1057 350 1057 350 1063 388 c 0,6,7
 1089 556 1089 556 1216.5 674.5 c 128,-1,8
 1344 793 1344 793 1517 793 c 0,9,10
 1685 793 1685 793 1772 673 c 0,11,12
 1839 581 1839 581 1839 460 c 0,13,14
 1839 423 1839 423 1833 385 c 0,15,16
 1807 217 1807 217 1679.5 98.5 c 128,-1,17
 1552 -20 1552 -20 1379 -20 c 0,0,1
545 -40 m 0,18,19
 526 -40 526 -40 503 -27 c 2,20,-1
 402 29 l 2,21,22
 374 45 374 45 374 75 c 24,23,24
 374 100 374 100 397 129 c 2,25,-1
 1500 1510 l 2,26,27
 1532 1550 1532 1550 1565 1550 c 0,28,29
 1582 1550 1582 1550 1605 1537 c 2,30,-1
 1706 1481 l 2,31,32
 1734 1465 1734 1465 1734 1436 c 24,33,34
 1734 1409 1734 1409 1712 1381 c 2,35,-1
 609 0 l 2,36,37
 577 -40 577 -40 545 -40 c 0,18,19
773 1530 m 0,38,39
 958 1530 958 1530 1036 1400 c 0,40,41
 1045 1385 1045 1385 1045 1370 c 0,42,43
 1045 1342 1045 1342 1019 1324 c 2,44,-1
 949 1275 l 2,45,46
 926 1259 926 1259 904 1259 c 0,47,48
 881 1259 881 1259 866 1284 c 0,49,50
 833 1340 833 1340 753 1340 c 0,51,52
 676 1340 676 1340 616 1281 c 0,53,54
 556 1221 556 1221 534 1121 c 0,55,56
 526 1084 526 1084 526 1054 c 0,57,58
 526 1001 526 1001 549 965 c 0,59,60
 586 909 586 909 663.5 909 c 128,-1,61
 741 909 741 909 798 963 c 0,62,63
 824 988 824 988 846 988 c 0,64,65
 869 988 869 988 885 972 c 2,66,-1
 933 923 l 2,67,68
 951 905 951 905 951 889 c 0,69,70
 951 869 951 869 940 858 c 0,71,72
 803 717 803 717 635 717 c 128,-1,73
 467 717 467 717 380 837 c 0,74,75
 313 929 313 929 313 1050 c 0,76,77
 313 1087 313 1087 319 1125 c 0,78,79
 345 1293 345 1293 472.5 1411.5 c 128,-1,80
 600 1530 600 1530 773 1530 c 0,38,39
1489.5 602 m 128,-1,82
 1413 602 1413 602 1353 544 c 0,83,84
 1294 484 1294 484 1272 384 c 0,85,86
 1264 348 1264 348 1264 316 c 0,87,88
 1264 262 1264 262 1286 228 c 0,89,90
 1323 171 1323 171 1400 171 c 128,-1,91
 1477 171 1477 171 1537 229 c 0,92,93
 1596 288 1596 288 1618 388 c 0,94,95
 1626 425 1626 425 1626 455 c 0,96,97
 1626 508 1626 508 1603 545 c 0,98,81
 1566 602 1566 602 1489.5 602 c 128,-1,82
EndSplineSet
Validated: 1
EndChar

StartChar: afii61289
Encoding: 8467 8467 104
Width: 1197
GlyphClass: 2
Flags: W
HStem: -20 236<602 770.691> 0 21G<80 460.364> 1510 20G<1099.5 1197>
LayerCount: 2
Fore
SplineSet
656 -20 m 0,0,1
 548 -20 548 -20 480 44 c 1,2,-1
 444 0 l 1,3,-1
 80 0 l 1,4,5
 276 162 276 162 414 325 c 1,6,7
 423 420 423 420 445 524 c 0,8,9
 479 686 479 686 565 865 c 0,10,11
 743 1240 743 1240 933 1423 c 0,12,13
 1044 1530 1044 1530 1155 1530 c 0,14,15
 1239 1530 1239 1530 1279 1480 c 0,16,17
 1311 1439 1311 1439 1311 1371 c 0,18,19
 1311 1331 1311 1331 1300 1281 c 0,20,21
 1280 1186 1280 1186 1220 1041 c 0,22,23
 1075 688 1075 688 704 272 c 1,24,25
 704 216 704 216 720 216 c 128,-1,26
 736 216 736 216 770 260 c 0,27,28
 791 286 791 286 809 319 c 1,29,-1
 1125 319 l 1,30,31
 1038 173 1038 173 928.5 76.5 c 128,-1,32
 819 -20 819 -20 656 -20 c 0,0,1
EndSplineSet
Validated: 1
EndChar

StartChar: trademark
Encoding: 8482 8482 105
Width: 1697
GlyphClass: 2
Flags: W
HStem: 1339 191<387.571 572 772 996.429>
VStem: 1170 189<1009 1166>
DStem2: 443.459 735 643.459 735 0.207912 0.978148<41.5628 617.526> 862 795 1065 793 0.272844 0.962058<-18.7509 440.96> 1359 1009 1448 783 0.428824 0.903388<0 258.472> 1576 793 1776 796 0.146125 0.989266<-14.738 377.033>
LayerCount: 2
Fore
SplineSet
1284 1530 m 2,0,1
 1335 1530 1335 1530 1337 1483 c 2,2,-1
 1359 1009 l 1,3,-1
 1584 1483 l 2,4,5
 1606 1530 1606 1530 1658 1530 c 2,6,-1
 1826 1530 l 2,7,8
 1877 1530 1877 1530 1877 1486 c 0,9,10
 1877 1480 1877 1480 1876 1473 c 2,11,-1
 1776 796 l 18,12,13
 1767 735 1767 735 1705 735 c 2,14,-1
 1625 735 l 2,15,16
 1575 735 1575 735 1575 778 c 0,17,18
 1575 786 1575 786 1576 793 c 2,19,-1
 1631 1166 l 1,20,-1
 1448 783 l 2,21,22
 1425 735 1425 735 1376 735 c 2,23,-1
 1240 735 l 2,24,25
 1189 735 1189 735 1187 782 c 2,26,-1
 1170 1166 l 1,27,-1
 1065 793 l 2,28,29
 1049 735 1049 735 990 735 c 2,30,-1
 906 735 l 2,31,32
 858 735 858 735 858 772 c 0,33,34
 858 781 858 781 862 795 c 10,35,-1
 1054 1472 l 2,36,37
 1070 1530 1070 1530 1128 1530 c 2,38,-1
 1284 1530 l 2,0,1
456 794 m 2,39,-1
 572 1339 l 1,40,-1
 415 1339 l 2,41,42
 365 1339 365 1339 365 1381 c 0,43,44
 365 1389 365 1389 367 1399 c 2,45,-1
 383 1471 l 2,46,47
 396 1530 396 1530 455 1530 c 2,48,-1
 969 1530 l 2,49,50
 1019 1530 1019 1530 1019 1489 c 0,51,52
 1019 1481 1019 1481 1017 1471 c 2,53,-1
 1001 1399 l 2,54,55
 988 1339 988 1339 929 1339 c 2,56,-1
 772 1339 l 1,57,-1
 656 794 l 2,58,59
 643 735 643 735 583 735 c 2,60,-1
 503 735 l 2,61,62
 454 735 454 735 454 775 c 0,63,64
 454 783 454 783 456 794 c 2,39,-1
EndSplineSet
Validated: 1
EndChar

StartChar: uni2126
Encoding: 8486 8486 106
Width: 1614
GlyphClass: 2
Flags: W
HStem: 0 300<149.438 377 1415 1528.56> 1230 300<876.598 1237.31>
VStem: 104 691<44.4375 253.692> 234 327<437.933 850.599> 1371 329<659.798 1088.86>
LayerCount: 2
Fore
SplineSet
666 0 m 2,0,-1
 170 0 l 2,1,2
 104 0 104 0 104 54 c 0,3,4
 104 65 104 65 107 79 c 2,5,-1
 137 221 l 2,6,7
 154 300 154 300 234 300 c 2,8,-1
 377 300 l 1,9,10
 234 422 234 422 234 636 c 0,11,12
 234 686 234 686 243 755 c 0,13,14
 284 1064 284 1064 521 1299 c 0,15,16
 754 1530 754 1530 1103 1530 c 0,17,18
 1429 1530 1429 1530 1588 1299 c 0,19,20
 1700 1137 1700 1137 1700 903 c 0,21,22
 1700 824 1700 824 1685 752 c 0,23,24
 1626 469 1626 469 1415 300 c 1,25,-1
 1508 300 l 2,26,27
 1574 300 1574 300 1574 246 c 0,28,29
 1574 235 1574 235 1571 221 c 2,30,-1
 1541 79 l 2,31,32
 1524 0 1524 0 1444 0 c 2,33,-1
 948 0 l 2,34,35
 882 0 882 0 882 54 c 0,36,37
 882 65 882 65 885 79 c 2,38,-1
 915 221 l 2,39,40
 927 280 927 280 991 300 c 16,41,42
 1088 331 1088 331 1171 412 c 0,43,44
 1309 547 1309 547 1354 755 c 0,45,46
 1371 834 1371 834 1371 902 c 0,47,48
 1371 1023 1371 1023 1317 1106 c 0,49,50
 1237 1230 1237 1230 1066 1230 c 0,51,52
 893 1230 893 1230 765 1106 c 24,53,54
 624 970 624 970 578 755 c 0,55,56
 561 677 561 677 561 610 c 0,57,58
 561 508 561 508 619 412 c 0,59,60
 668 331 668 331 751 300 c 0,61,62
 795 284 795 284 795 242 c 0,63,64
 795 230 795 230 793 221 c 2,65,-1
 763 79 l 2,66,67
 746 0 746 0 666 0 c 2,0,-1
EndSplineSet
Validated: 1
EndChar

StartChar: estimated
Encoding: 8494 8494 107
Width: 1261
GlyphClass: 2
Flags: W
HStem: -20 183<494.071 854.178> 491 189<548 1000> 935 185<639.618 998.502>
LayerCount: 2
Fore
SplineSet
625 -20 m 0,0,1
 374 -20 374 -20 255 145 c 0,2,3
 172 260 172 260 172 412 c 0,4,5
 172 479 172 479 188 553 c 0,6,7
 241 802 241 802 430 960 c 0,8,9
 622 1120 622 1120 864 1120 c 0,10,11
 1107 1120 1107 1120 1224 974 c 0,12,13
 1316 858 1316 858 1316 679 c 0,14,15
 1316 593 1316 593 1295 491 c 1,16,-1
 507 491 l 1,17,-1
 454 239 l 1,18,19
 533 163 533 163 664 163 c 0,20,21
 872 163 872 163 1030 351 c 1,22,-1
 1173 255 l 1,23,24
 1013 85 1013 85 883 32.5 c 128,-1,25
 753 -20 753 -20 625 -20 c 0,0,1
1000 680 m 1,26,-1
 1038 862 l 1,27,28
 956 935 956 935 826 935 c 0,29,30
 694 935 694 935 586 861 c 1,31,-1
 548 680 l 1,32,-1
 1000 680 l 1,26,-1
EndSplineSet
Validated: 1
EndChar

StartChar: partialdiff
Encoding: 8706 8706 108
Width: 1265
GlyphClass: 2
Flags: W
HStem: -20 273<488.171 700.08> 823 260<712.537 955.899> 1257 273<751.982 1056.06>
VStem: 153 317<275.435 519.417> 1100 310<1024.77 1213.04>
LayerCount: 2
Fore
SplineSet
498 -20 m 0,0,1
 228 -20 228 -20 169 171 c 0,2,3
 153 223 153 223 153 285 c 0,4,5
 153 345 153 345 168 416 c 0,6,7
 223 673 223 673 420.5 878 c 128,-1,8
 618 1083 618 1083 890 1083 c 0,9,10
 1009 1083 1009 1083 1094 1024 c 1,11,12
 1100 1059 1100 1059 1100 1089 c 0,13,14
 1100 1138 1100 1138 1084 1173 c 0,15,16
 1045 1257 1045 1257 923 1257 c 0,17,18
 768 1257 768 1257 591 1132 c 1,19,-1
 657 1443 l 1,20,21
 821 1530 821 1530 1018 1530 c 0,22,23
 1335 1530 1335 1530 1396 1271 c 0,24,25
 1410 1213 1410 1213 1410 1145 c 0,26,27
 1410 1057 1410 1057 1387 950 c 0,28,29
 1305 563 1305 563 1060 272 c 0,30,31
 817 -20 817 -20 498 -20 c 0,0,1
998 699 m 1,32,33
 989 756 989 756 952 788 c 0,34,35
 912 823 912 823 845 823 c 0,36,37
 736 823 736 823 630 706 c 0,38,39
 505 567 505 567 477 431 c 0,40,41
 470 396 470 396 470 367 c 0,42,43
 470 324 470 324 486 295 c 0,44,45
 509 253 509 253 569 253 c 0,46,47
 676 253 676 253 797 376 c 128,-1,48
 918 499 918 499 998 699 c 1,32,33
EndSplineSet
Validated: 1
EndChar

StartChar: uni2206
Encoding: 8710 8710 109
Width: 1474
GlyphClass: 2
Flags: W
HStem: 0 300<496 1136> 1490 20G<861 1254.5>
DStem2: 30 77 496 300 0.486131 0.873886<421.414 1486.82> 1297 1445 1014 1231 0.129742 -0.991548<175.474 1114.43>
LayerCount: 2
Fore
SplineSet
67 0 m 2,0,1
 19 0 19 0 19 36 c 0,2,3
 19 57 19 57 30 77 c 2,4,-1
 791 1445 l 2,5,6
 827 1510 827 1510 895 1510 c 2,7,-1
 1221 1510 l 2,8,9
 1288 1510 1288 1510 1297 1445 c 2,10,-1
 1476 77 l 2,11,12
 1477 69 1477 69 1477 59 c 0,13,14
 1477 0 1477 0 1407 0 c 2,15,-1
 67 0 l 2,0,1
496 300 m 1,16,-1
 1136 300 l 1,17,-1
 1014 1231 l 1,18,-1
 496 300 l 1,16,-1
EndSplineSet
Validated: 1
EndChar

StartChar: product
Encoding: 8719 8719 110
Width: 1400
GlyphClass: 2
Flags: W
HStem: -410 21G<100 333 900 1133> 1210 300<717 1197>
DStem2: 53.208 -410 373.208 -410 0.207912 0.978148<62.183 1722.61> 853.208 -410 1173.21 -410 0.207912 0.978148<62.183 1656.08>
LayerCount: 2
Fore
SplineSet
133 -410 m 2,0,1
 67 -410 67 -410 67 -356 c 0,2,3
 67 -345 67 -345 70 -331 c 2,4,-1
 444 1431 l 2,5,6
 461 1510 461 1510 541 1510 c 2,7,-1
 1501 1510 l 2,8,9
 1567 1510 1567 1510 1567 1456 c 0,10,11
 1567 1445 1567 1445 1564 1431 c 2,12,-1
 1190 -331 l 2,13,14
 1173 -410 1173 -410 1093 -410 c 2,15,-1
 933 -410 l 2,16,17
 867 -410 867 -410 867 -356 c 0,18,19
 867 -345 867 -345 870 -331 c 2,20,-1
 1197 1210 l 1,21,-1
 717 1210 l 1,22,-1
 390 -331 l 2,23,24
 373 -410 373 -410 293 -410 c 2,25,-1
 133 -410 l 2,0,1
EndSplineSet
Validated: 1
EndChar

StartChar: summation
Encoding: 8721 8721 111
Width: 1212
GlyphClass: 2
Flags: W
HStem: -410 300<524 1039.56> 1210 300<767 1359.56>
DStem2: -19 -331 524 -110 0.587805 0.809003<497.968 1134.73> 767 1210 324 1431 0.358386 -0.933573<0 538.968>
LayerCount: 2
Fore
SplineSet
-19 -331 m 2,0,1
 648 587 l 1,2,-1
 324 1431 l 2,3,4
 320 1441 320 1441 320 1452 c 0,5,6
 320 1510 320 1510 386 1510 c 2,7,-1
 1339 1510 l 2,8,9
 1405 1510 1405 1510 1405 1456 c 0,10,11
 1405 1445 1405 1445 1402 1431 c 2,12,-1
 1372 1289 l 2,13,14
 1355 1210 1355 1210 1275 1210 c 2,15,-1
 767 1210 l 1,16,-1
 1003 606 l 2,17,18
 1011 586 1011 586 1011 563 c 0,19,20
 1011 525 1011 525 973 475 c 2,21,-1
 524 -110 l 1,22,-1
 1019 -110 l 2,23,24
 1085 -110 1085 -110 1085 -164 c 0,25,26
 1085 -175 1085 -175 1082 -189 c 2,27,-1
 1052 -331 l 2,28,29
 1035 -410 1035 -410 955 -410 c 2,30,-1
 9 -410 l 2,31,32
 -39 -410 -39 -410 -39 -377 c 0,33,34
 -39 -359 -39 -359 -19 -331 c 2,0,1
EndSplineSet
Validated: 1
EndChar

StartChar: minus
Encoding: 8722 8722 112
Width: 1133
GlyphClass: 2
Flags: W
HStem: 630 250<269.656 1184.34>
LayerCount: 2
Fore
SplineSet
342 880 m 2,0,-1
 1165 880 l 2,1,2
 1218 880 1218 880 1218 836 c 0,3,4
 1218 827 1218 827 1216 815 c 2,5,-1
 1191 695 l 2,6,7
 1177 630 1177 630 1112 630 c 2,8,-1
 289 630 l 2,9,10
 236 630 236 630 236 674 c 0,11,12
 236 683 236 683 238 695 c 2,13,-1
 263 815 l 2,14,15
 277 880 277 880 342 880 c 2,0,-1
EndSplineSet
Validated: 1
EndChar

StartChar: uni2215
Encoding: 8725 8725 113
Width: 1091
GlyphClass: 2
Flags: W
DStem2: 49 129 261 0 0.624074 0.781365<-39.0561 1838.59>
LayerCount: 2
Fore
SplineSet
197 -40 m 0,0,1
 178 -40 178 -40 155 -27 c 2,2,-1
 54 29 l 2,3,4
 26 45 26 45 26 75 c 24,5,6
 26 100 26 100 49 129 c 2,7,-1
 1152 1510 l 2,8,9
 1184 1550 1184 1550 1217 1550 c 0,10,11
 1234 1550 1234 1550 1257 1537 c 2,12,-1
 1358 1481 l 2,13,14
 1386 1465 1386 1465 1386 1436 c 24,15,16
 1386 1409 1386 1409 1364 1381 c 2,17,-1
 261 0 l 2,18,19
 229 -40 229 -40 197 -40 c 0,0,1
EndSplineSet
Validated: 1
EndChar

StartChar: uni2219
Encoding: 8729 8729 114
Width: 460
GlyphClass: 2
Flags: W
HStem: 573 365<272.131 506.878>
VStem: 210 360<635.566 875.578>
LayerCount: 2
Fore
SplineSet
390 938 m 128,-1,1
 465 938 465 938 517.5 884.5 c 128,-1,2
 570 831 570 831 570 756 c 128,-1,3
 570 681 570 681 517 627 c 128,-1,4
 464 573 464 573 390 573 c 0,5,6
 314 573 314 573 262 627 c 128,-1,7
 210 681 210 681 210 755 c 0,8,9
 210 831 210 831 262 884 c 0,10,0
 315 938 315 938 390 938 c 128,-1,1
EndSplineSet
Validated: 1
EndChar

StartChar: radical
Encoding: 8730 8730 115
Width: 1372
GlyphClass: 2
Flags: W
HStem: 0 21G<425.5 732.5> 1230 280<1392 1617.09>
DStem2: 620 338 801 65 0.452411 0.891809<0 1144.76>
LayerCount: 2
Fore
SplineSet
697 0 m 2,0,-1
 458 0 l 2,1,2
 393 0 393 0 382 65 c 2,3,-1
 297 552 l 1,4,-1
 218 553 l 2,5,6
 151 554 151 554 151 608 c 0,7,8
 151 619 151 619 154 632 c 2,9,-1
 180 754 l 2,10,11
 197 833 197 833 277 833 c 2,12,-1
 468 833 l 2,13,14
 548 833 548 833 558 762 c 2,15,-1
 620 338 l 1,16,-1
 1175 1432 l 2,17,18
 1215 1510 1215 1510 1300 1510 c 2,19,-1
 1593 1510 l 2,20,21
 1659 1510 1659 1510 1659 1456 c 0,22,23
 1659 1445 1659 1445 1656 1431 c 2,24,-1
 1630 1309 l 2,25,26
 1613 1230 1613 1230 1533 1230 c 2,27,-1
 1392 1230 l 1,28,-1
 801 65 l 2,29,30
 768 0 768 0 697 0 c 2,0,-1
EndSplineSet
Validated: 1
EndChar

StartChar: infinity
Encoding: 8734 8734 116
Width: 1416
GlyphClass: 2
Flags: W
HStem: 384 204<467.533 690.119 994.462 1218.38> 920 204<519.447 742.673 1046.65 1270.71>
VStem: 225 211<637.066 836.986> 773 191<670.731 839.014> 1301 211<670.855 880.131>
CounterMasks: 1 38
LayerCount: 2
Fore
SplineSet
898 1010 m 1,0,1
 1028 1124 1028 1124 1183 1124 c 128,-1,2
 1338 1124 1338 1124 1434 1016 c 0,3,4
 1512 928 1512 928 1512 806 c 0,5,6
 1512 781 1512 781 1509 754 c 0,7,8
 1489 600 1489 600 1360 492 c 128,-1,9
 1231 384 1231 384 1079 384 c 0,10,11
 917 384 917 384 839 498 c 1,12,13
 714 384 714 384 556 384 c 0,14,15
 400 384 400 384 304 492 c 0,16,17
 225 581 225 581 225 702 c 0,18,19
 225 727 225 727 228 754 c 0,20,21
 248 908 248 908 377 1016 c 128,-1,22
 506 1124 506 1124 660.5 1124 c 128,-1,23
 815 1124 815 1124 898 1010 c 1,0,1
640 920 m 128,-1,25
 572 920 572 920 514 872 c 0,26,27
 454 824 454 824 440 754 c 0,28,29
 436 735 436 735 436 717 c 0,30,31
 436 670 436 670 464 636 c 0,32,33
 502 588 502 588 569.5 588 c 128,-1,34
 637 588 637 588 696 636 c 0,35,36
 750 682 750 682 768 754 c 0,37,38
 773 774 773 774 773 791 c 0,39,40
 773 839 773 839 746 872 c 0,41,24
 708 920 708 920 640 920 c 128,-1,25
1168 920 m 128,-1,43
 1100 920 1100 920 1042 872 c 0,44,45
 982 824 982 824 968 754 c 0,46,47
 964 735 964 735 964 717 c 0,48,49
 964 670 964 670 992 636 c 0,50,51
 1030 588 1030 588 1097.5 588 c 128,-1,52
 1165 588 1165 588 1224 636 c 0,53,54
 1278 682 1278 682 1296 754 c 0,55,56
 1301 774 1301 774 1301 791 c 0,57,58
 1301 839 1301 839 1274 872 c 0,59,42
 1236 920 1236 920 1168 920 c 128,-1,43
EndSplineSet
Validated: 1
EndChar

StartChar: approxequal
Encoding: 8776 8776 117
Width: 1158
GlyphClass: 2
Flags: W
VStem: 896 281<488.117 655.707> 1022 281<987.117 1154.71>
LayerCount: 2
Fore
SplineSet
992 667 m 2,0,-1
 1110 667 l 2,1,2
 1177 667 1177 667 1177 612 c 0,3,4
 1177 601 1177 601 1174 588 c 0,5,6
 1093 206 1093 206 811 206 c 0,7,8
 655 206 655 206 561 357 c 0,9,10
 534 400 534 400 527 409 c 0,11,12
 518 420 518 420 503 420 c 0,13,14
 458 420 458 420 434 306 c 0,15,16
 417 227 417 227 337 227 c 2,17,-1
 219 227 l 2,18,19
 153 227 153 227 153 281 c 0,20,21
 153 292 153 292 156 306 c 0,22,23
 237 688 237 688 518 688 c 0,24,25
 674 688 674 688 769 537 c 0,26,27
 796 494 796 494 803 485 c 0,28,29
 812 474 812 474 829 474 c 0,30,31
 873 474 873 474 896 588 c 0,32,33
 912 667 912 667 992 667 c 2,0,-1
1118 1166 m 2,34,-1
 1236 1166 l 2,35,36
 1303 1166 1303 1166 1303 1111 c 0,37,38
 1303 1100 1303 1100 1300 1087 c 0,39,40
 1219 705 1219 705 937 705 c 0,41,42
 781 705 781 705 687 856 c 0,43,44
 660 899 660 899 653 908 c 0,45,46
 644 919 644 919 629 919 c 0,47,48
 584 919 584 919 560 805 c 0,49,50
 543 726 543 726 463 726 c 2,51,-1
 345 726 l 2,52,53
 279 726 279 726 279 780 c 0,54,55
 279 791 279 791 282 805 c 0,56,57
 363 1187 363 1187 644 1187 c 0,58,59
 800 1187 800 1187 895 1036 c 0,60,61
 922 993 922 993 929 984 c 0,62,63
 938 973 938 973 955 973 c 0,64,65
 999 973 999 973 1022 1087 c 0,66,67
 1038 1166 1038 1166 1118 1166 c 2,34,-1
EndSplineSet
Validated: 1
EndChar

StartChar: notequal
Encoding: 8800 8800 118
Width: 1133
GlyphClass: 2
Flags: W
HStem: 430 250<227.648 394 545 592 743 1141.35> 830 250<312.648 710 861 908 1059 1226.35>
DStem2: 202 186 301 121 0.61975 0.784799<-24.0673 310.483 722.976 820.244 1232.74 1567.29>
LayerCount: 2
Fore
SplineSet
385 1080 m 2,0,-1
 908 1080 l 1,1,-1
 1152 1389 l 2,2,3
 1167 1408 1167 1408 1184 1408 c 0,4,5
 1194 1408 1194 1408 1203 1402 c 2,6,-1
 1249 1372 l 2,7,8
 1262 1364 1262 1364 1262 1349 c 0,9,10
 1262 1338 1262 1338 1251 1324 c 2,11,-1
 1059 1080 l 1,12,-1
 1208 1080 l 2,13,14
 1262 1080 1262 1080 1262 1036 c 0,15,16
 1262 1026 1262 1026 1259 1015 c 2,17,-1
 1233 895 l 2,18,19
 1219 830 1219 830 1154 830 c 2,20,-1
 861 830 l 1,21,-1
 743 680 l 1,22,-1
 1123 680 l 2,23,24
 1177 680 1177 680 1177 636 c 0,25,26
 1177 626 1177 626 1174 615 c 2,27,-1
 1148 495 l 2,28,29
 1134 430 1134 430 1069 430 c 2,30,-1
 545 430 l 1,31,-1
 301 121 l 2,32,33
 286 102 286 102 269 102 c 0,34,35
 259 102 259 102 250 108 c 2,36,-1
 204 138 l 2,37,38
 191 147 191 147 191 162 c 0,39,40
 191 172 191 172 202 186 c 2,41,-1
 394 430 l 1,42,-1
 246 430 l 2,43,44
 192 430 192 430 192 474 c 0,45,46
 192 484 192 484 195 495 c 2,47,-1
 221 615 l 2,48,49
 235 680 235 680 300 680 c 2,50,-1
 592 680 l 1,51,-1
 710 830 l 1,52,-1
 331 830 l 2,53,54
 277 830 277 830 277 874 c 0,55,56
 277 884 277 884 280 895 c 2,57,-1
 306 1015 l 2,58,59
 320 1080 320 1080 385 1080 c 2,0,-1
EndSplineSet
Validated: 1
EndChar

StartChar: lessequal
Encoding: 8804 8804 119
Width: 1173
GlyphClass: 2
Flags: W
HStem: 97 250<146.319 1060.01>
DStem2: 584 879 295 773 0.85125 -0.524761<0 594.359> 346 1014 584 879 0.898588 0.438794<154.627 932.269>
LayerCount: 2
Fore
SplineSet
281 944 m 2,0,1
 290 987 290 987 346 1014 c 2,2,-1
 1159 1411 l 2,3,4
 1177 1420 1177 1420 1190 1420 c 0,5,6
 1214 1420 1214 1420 1224 1393 c 2,7,-1
 1272 1257 l 2,8,9
 1276 1246 1276 1246 1276 1235 c 0,10,11
 1276 1207 1276 1207 1239 1189 c 2,12,-1
 584 879 l 1,13,-1
 1095 574 l 2,14,15
 1114 563 1114 563 1114 543 c 0,16,17
 1114 527 1114 527 1098 506 c 2,18,-1
 1011 394 l 2,19,20
 990 367 990 367 967 367 c 0,21,22
 954 367 954 367 939 376 c 2,23,-1
 295 773 l 2,24,25
 258 796 258 796 258 829 c 0,26,27
 258 836 258 836 260 843 c 2,28,-1
 281 944 l 2,0,1
219 347 m 2,29,-1
 1042 347 l 2,30,31
 1095 347 1095 347 1095 303 c 0,32,33
 1095 294 1095 294 1093 282 c 2,34,-1
 1067 162 l 2,35,36
 1053 97 1053 97 989 97 c 2,37,-1
 166 97 l 2,38,39
 112 97 112 97 112 142 c 0,40,41
 112 151 112 151 114 162 c 2,42,-1
 140 282 l 2,43,44
 154 347 154 347 219 347 c 2,29,-1
EndSplineSet
Validated: 1
EndChar

StartChar: greaterequal
Encoding: 8805 8805 120
Width: 1173
GlyphClass: 2
Flags: W
HStem: 97 250<206.319 1120.01>
DStem2: 1225 1014 936 908 0.85125 -0.524761<-784.745 -190.386> 936 908 361 376 0.898588 0.438794<-777.642 0>
LayerCount: 2
Fore
SplineSet
1239 843 m 2,0,1
 1230 800 1230 800 1174 773 c 2,2,-1
 361 376 l 2,3,4
 343 367 343 367 330 367 c 0,5,6
 306 367 306 367 296 394 c 2,7,-1
 248 530 l 2,8,9
 244 541 244 541 244 552 c 0,10,11
 244 580 244 580 281 598 c 2,12,-1
 936 908 l 1,13,-1
 425 1213 l 2,14,15
 406 1224 406 1224 406 1244 c 0,16,17
 406 1260 406 1260 422 1281 c 2,18,-1
 509 1393 l 2,19,20
 530 1420 530 1420 553 1420 c 0,21,22
 566 1420 566 1420 581 1411 c 2,23,-1
 1225 1014 l 2,24,25
 1262 991 1262 991 1262 958 c 0,26,27
 1262 951 1262 951 1260 944 c 2,28,-1
 1239 843 l 2,0,1
279 347 m 2,29,-1
 1102 347 l 2,30,31
 1155 347 1155 347 1155 303 c 0,32,33
 1155 294 1155 294 1153 282 c 2,34,-1
 1127 162 l 2,35,36
 1113 97 1113 97 1049 97 c 2,37,-1
 226 97 l 2,38,39
 172 97 172 97 172 142 c 0,40,41
 172 151 172 151 174 162 c 2,42,-1
 200 282 l 2,43,44
 214 347 214 347 279 347 c 2,29,-1
EndSplineSet
Validated: 1
EndChar

StartChar: lozenge
Encoding: 9674 9674 121
Width: 1198
GlyphClass: 2
Flags: W
HStem: -20 21G<585.29 613.16> 1510 20G<906.399 933.176>
DStem2: 227 738 532 708 0.660649 0.750695<178.977 649.434> 673 418 595 -20 0.672237 0.740336<0 463.273>
LayerCount: 2
Fore
SplineSet
673 418 m 1,0,-1
 980 765 l 1,1,-1
 843 1061 l 1,2,-1
 532 708 l 1,3,-1
 673 418 l 1,0,-1
595 -20 m 1,4,-1
 227 738 l 1,5,-1
 924 1530 l 1,6,-1
 1286 741 l 1,7,-1
 595 -20 l 1,4,-1
EndSplineSet
Validated: 1
EndChar

StartChar: circumflex
Encoding: 710 710 122
Width: 680
Flags: W
HStem: 1180 297<706.773 784.71>
VStem: 306 581<1180 1218>
DStem2: 334 1248 528 1230 0.680139 0.733084<9.4074 299.417>
LayerCount: 2
Fore
SplineSet
587 1477 m 2,0,1
 721 1477 l 2,2,3
 763 1477 763 1477 787 1428 c 2,4,-1
 876 1248 l 2,5,6
 887 1226 887 1226 887 1211 c 0,7,8
 887 1180 887 1180 842 1180 c 2,9,-1
 784 1180 l 2,10,11
 725 1180 725 1180 704 1230 c 2,12,13
 646 1367 l 1,14,-1
 528 1230 l 2,15,16
 485 1180 485 1180 428 1180 c 2,17,-1
 340 1180 l 2,18,19
 306 1180 306 1180 306 1201 c 0,20,21
 306 1218 306 1218 334 1248 c 2,22,-1
 501 1428 l 2,23,24
 546 1477 546 1477 587 1477 c 2,0,1
EndSplineSet
Validated: 1
EndChar

StartChar: caron
Encoding: 711 711 123
Width: 680
Flags: W
HStem: 1180 297<460.29 538.227>
VStem: 358 581<1439 1477>
DStem2: 599 1290 744 1229 0.680139 0.733084<0.023227 296.579>
LayerCount: 2
Fore
SplineSet
461 1477 m 2,0,1
 520 1477 520 1477 541 1427 c 2,2,-1
 599 1290 l 1,3,-1
 717 1427 l 2,4,5
 760 1477 760 1477 817 1477 c 2,6,-1
 905 1477 l 2,7,8
 939 1477 939 1477 939 1456 c 0,9,10
 939 1439 939 1439 911 1409 c 2,11,-1
 744 1229 l 2,12,13
 699 1180 699 1180 658 1180 c 2,14,-1
 524 1180 l 2,15,16
 482 1180 482 1180 458 1229 c 2,17,-1
 369 1409 l 2,18,19
 358 1431 358 1431 358 1446 c 0,20,21
 358 1477 358 1477 403 1477 c 2,22,-1
 461 1477 l 2,0,1
EndSplineSet
Validated: 1
EndChar

StartChar: uni02C9
Encoding: 713 713 124
Width: 680
Flags: W
HStem: 1230 161<336.562 900.438>
VStem: 318 601<1289.88 1331.12>
LayerCount: 2
Fore
SplineSet
386 1391 m 2,0,-1
 886 1391 l 2,1,2
 919 1391 919 1391 919 1364 c 0,3,4
 919 1358 919 1358 917 1351 c 2,5,-1
 900 1270 l 2,6,7
 891 1230 891 1230 851 1230 c 2,8,-1
 351 1230 l 2,9,10
 318 1230 318 1230 318 1257 c 0,11,12
 318 1263 318 1263 320 1270 c 2,13,-1
 337 1351 l 2,14,15
 346 1391 346 1391 386 1391 c 2,0,-1
EndSplineSet
Validated: 1
EndChar

StartChar: breve
Encoding: 728 728 125
Width: 680
Flags: W
HStem: 1180 169<517.9 757.784>
VStem: 347 168<1360.23 1468.17>
LayerCount: 2
Fore
SplineSet
402 1469 m 2,0,1
 482 1469 l 2,2,3
 515 1469 515 1469 515 1441 c 0,4,5
 515 1435 515 1435 514 1429 c 0,6,7
 512 1420 512 1420 512 1412 c 0,8,9
 512 1349 512 1349 627 1349 c 0,10,11
 757 1349 757 1349 774 1429 c 0,12,13
 783 1469 783 1469 822 1469 c 2,14,-1
 902 1469 l 2,15,16
 935 1469 935 1469 935 1441 c 0,17,18
 935 1435 935 1435 934 1429 c 0,19,20
 881 1180 881 1180 621 1180 c 0,21,22
 347 1180 347 1180 347 1366 c 0,23,24
 347 1395 347 1395 354 1429 c 0,25,26
 362 1469 362 1469 402 1469 c 2,0,1
EndSplineSet
Validated: 1
EndChar

StartChar: dotaccent
Encoding: 729 729 126
Width: 460
Flags: W
HStem: 1180 364<402.131 636.338>
VStem: 340 360<1244.3 1481.73>
LayerCount: 2
Fore
SplineSet
520 1544 m 0,0,1
 596 1544 596 1544 648 1491 c 128,-1,2
 700 1438 700 1438 700 1363 c 0,3,4
 700 1289 700 1289 647 1234 c 0,5,6
 595 1180 595 1180 520 1180 c 0,7,8
 443 1180 443 1180 391.5 1234 c 128,-1,9
 340 1288 340 1288 340 1362 c 0,10,11
 340 1438 340 1438 392 1490 c 0,12,13
 445 1544 445 1544 520 1544 c 0,0,1
EndSplineSet
Validated: 1
EndChar

StartChar: ring
Encoding: 730 730 127
Width: 496
Flags: W
HStem: 1160 112<469.15 606.342> 1448 112<468.9 606.373>
VStem: 339 111<1291.16 1428.97> 624 111<1292.14 1428.97>
LayerCount: 2
Fore
SplineSet
538.5 1448 m 128,-1,1
 501 1448 501 1448 475.5 1422 c 128,-1,2
 450 1396 450 1396 450 1360 c 128,-1,3
 450 1324 450 1324 475.5 1298 c 128,-1,4
 501 1272 501 1272 537 1272 c 256,5,6
 575 1272 575 1272 601 1300 c 0,7,8
 624 1325 624 1325 624 1360 c 0,9,10
 624 1396 624 1396 600 1422 c 128,-1,0
 576 1448 576 1448 538.5 1448 c 128,-1,1
539 1560 m 0,11,12
 619 1560 619 1560 677 1502 c 0,13,14
 735 1442 735 1442 735 1361 c 0,15,16
 735 1277 735 1277 677 1219 c 0,17,18
 618 1160 618 1160 537 1160 c 256,19,20
 457 1160 457 1160 397 1219 c 0,21,22
 339 1277 339 1277 339 1361 c 0,23,24
 339 1442 339 1442 397 1502 c 0,25,26
 455 1560 455 1560 539 1560 c 0,11,12
EndSplineSet
Validated: 1
EndChar

StartChar: ogonek
Encoding: 731 731 128
Width: 452
Flags: W
HStem: -430 186<208.76 319.5> -20 20G<110 315>
VStem: 0 203<-301.5 -114.947>
LayerCount: 2
Fore
SplineSet
186 0 m 1,0,-1
 315 0 l 1,1,2
 223 -71 223 -71 206 -152 c 0,3,4
 203 -165 203 -165 203 -175 c 0,5,6
 203 -244 203 -244 312 -244 c 0,7,8
 344 -244 344 -244 344 -269 c 0,9,10
 344 -274 344 -274 343 -279 c 2,11,-1
 318 -395 l 2,12,13
 311 -430 311 -430 276 -430 c 0,14,15
 140 -429 140 -429 75 -390 c 0,16,17
 0 -345 0 -345 0 -258 c 0,18,19
 0 -233 0 -233 6 -204 c 0,20,21
 34 -76 34 -76 186 0 c 1,0,-1
EndSplineSet
Validated: 1
EndChar

StartChar: tilde
Encoding: 732 732 129
Width: 680
Flags: W
HStem: 1200 169<673.887 766.59> 1320 169<485.067 578.035>
VStem: 312 162<1200.16 1311.73> 778 161<1377.27 1488.91>
LayerCount: 2
Fore
SplineSet
826 1489 m 2,0,1
 906 1489 l 2,2,3
 939 1489 939 1489 939 1461 c 0,4,5
 939 1455 939 1455 938 1449 c 8,6,7
 885 1200 885 1200 708 1200 c 0,8,9
 627 1200 627 1200 571 1288 c 0,10,11
 551 1320 551 1320 532 1320 c 0,12,13
 491 1320 491 1320 474 1240 c 0,14,15
 465 1200 465 1200 425 1200 c 2,16,-1
 345 1200 l 2,17,18
 312 1200 312 1200 312 1227 c 0,19,20
 312 1233 312 1233 314 1240 c 8,21,22
 367 1489 367 1489 543 1489 c 0,23,24
 626 1489 626 1489 681 1401 c 0,25,26
 701 1369 701 1369 720 1369 c 0,27,28
 761 1369 761 1369 778 1449 c 0,29,30
 786 1489 786 1489 826 1489 c 2,0,1
EndSplineSet
Validated: 1
EndChar

StartChar: hungarumlaut
Encoding: 733 733 130
Width: 688
Flags: W
HStem: 1190 368
VStem: 320 628
LayerCount: 2
Fore
SplineSet
817 1558 m 0,0,1
 829 1558 829 1558 846 1547 c 2,2,-1
 930 1493 l 2,3,4
 948 1481 948 1481 948 1461 c 0,5,6
 948 1445 948 1445 928 1423 c 2,7,-1
 735 1208 l 2,8,9
 719 1190 719 1190 697 1190 c 0,10,11
 687 1190 687 1190 666 1202 c 2,12,-1
 608 1235 l 2,13,14
 591 1245 591 1245 591 1265 c 0,15,16
 591 1278 591 1278 606 1300 c 2,17,-1
 779 1536 l 2,18,19
 795 1558 795 1558 817 1558 c 0,0,1
546 1558 m 0,20,21
 558 1558 558 1558 575 1547 c 2,22,-1
 659 1493 l 2,23,24
 677 1481 677 1481 677 1461 c 0,25,26
 677 1445 677 1445 657 1423 c 2,27,-1
 464 1208 l 2,28,29
 448 1190 448 1190 426 1190 c 0,30,31
 416 1190 416 1190 395 1202 c 2,32,-1
 337 1235 l 2,33,34
 320 1245 320 1245 320 1265 c 0,35,36
 320 1278 320 1278 335 1300 c 2,37,-1
 508 1536 l 2,38,39
 524 1558 524 1558 546 1558 c 0,20,21
EndSplineSet
Validated: 1
EndChar

StartChar: C
Encoding: 67 67 131
Width: 1426
Flags: W
HStem: -20 300<676.387 1030.11> 1230 300<857.598 1212.82>
VStem: 214 328<422.701 850.778>
LayerCount: 2
Fore
SplineSet
810 -20 m 0,0,1
 485 -20 485 -20 326 211 c 0,2,3
 214 373 214 373 214 607 c 0,4,5
 214 678 214 678 224 755 c 0,6,7
 265 1064 265 1064 502 1299 c 0,8,9
 735 1530 735 1530 1084 1530 c 0,10,11
 1420 1530 1420 1530 1585 1276 c 0,12,13
 1598 1256 1598 1256 1598 1235 c 0,14,15
 1598 1198 1598 1198 1549 1164 c 2,16,-1
 1420 1074 l 2,17,18
 1387 1051 1387 1051 1363 1051 c 0,19,20
 1331 1051 1331 1051 1311 1085 c 0,21,22
 1221 1230 1221 1230 1047 1230 c 0,23,24
 874 1230 874 1230 746 1106 c 0,25,26
 605 971 605 971 559 755 c 0,27,28
 542 677 542 677 542 610 c 0,29,30
 542 489 542 489 597 404 c 0,31,32
 677 280 677 280 848 280 c 0,33,34
 1025 280 1025 280 1170 425 c 0,35,36
 1204 459 1204 459 1236 459 c 0,37,38
 1260 459 1260 459 1284 436 c 2,39,-1
 1403 321 l 2,40,41
 1425 300 1425 300 1425 272 c 0,42,43
 1425 243 1425 243 1391 209 c 0,44,45
 1163 -19 1163 -19 810 -20 c 0,0,1
EndSplineSet
Validated: 1
EndChar

StartChar: G
Encoding: 71 71 132
Width: 1524
Flags: W
HStem: -20 300<676.387 1031.02> 605 300<962.698 1192> 1230 300<857.598 1212.82>
VStem: 214 328<422.701 850.958>
CounterMasks: 1 e0
LayerCount: 2
Fore
SplineSet
810 -20 m 0,0,1
 485 -20 485 -20 326 211 c 0,2,3
 214 373 214 373 214 607 c 0,4,5
 214 678 214 678 224 755 c 0,6,7
 265 1064 265 1064 502 1299 c 0,8,9
 735 1530 735 1530 1084 1530 c 0,10,11
 1420 1530 1420 1530 1585 1276 c 0,12,13
 1598 1256 1598 1256 1598 1235 c 0,14,15
 1598 1198 1598 1198 1549 1164 c 2,16,-1
 1420 1074 l 2,17,18
 1387 1051 1387 1051 1363 1051 c 0,19,20
 1331 1051 1331 1051 1311 1085 c 0,21,22
 1221 1230 1221 1230 1047 1230 c 0,23,24
 874 1230 874 1230 746 1106 c 0,25,26
 606 972 606 972 559 755 c 0,27,28
 542 677 542 677 542 610 c 0,29,30
 542 489 542 489 597 404 c 0,31,32
 677 280 677 280 848 280 c 0,33,34
 1013 280 1013 280 1150 406 c 1,35,-1
 1192 604 l 1,36,-1
 982 605 l 2,37,38
 915 605 915 605 915 659 c 0,39,40
 915 670 915 670 918 684 c 2,41,-1
 949 826 l 2,42,43
 966 905 966 905 1045 905 c 2,44,-1
 1496 905 l 2,45,46
 1563 905 1563 905 1563 851 c 0,47,48
 1563 840 1563 840 1560 826 c 2,49,-1
 1440 260 l 1,50,51
 1424 242 1424 242 1393 211 c 0,52,53
 1162 -20 1162 -20 810 -20 c 0,0,1
EndSplineSet
Validated: 1
EndChar

StartChar: J
Encoding: 74 74 133
Width: 1165
Flags: W
HStem: -20 300<352.736 665.057> 1210 300<439.438 962>
DStem2: 700.505 -20 1021.12 -20 0.207912 0.978148<407.008 1257.49>
LayerCount: 2
Fore
SplineSet
466 -20 m 128,-1,1
 218 -20 218 -20 84 136 c 0,2,3
 66 157 66 157 66 177 c 0,4,5
 66 214 66 214 107 248 c 2,6,-1
 222 343 l 2,7,8
 256 371 256 371 286 371 c 0,9,10
 315 371 315 371 334 343 c 0,11,12
 378 280 378 280 492 280 c 0,13,14
 616 280 616 280 699 346 c 0,15,16
 794 420 794 420 824 561 c 2,17,-1
 962 1210 l 1,18,-1
 460 1210 l 2,19,20
 394 1210 394 1210 394 1264 c 0,21,22
 394 1275 394 1275 397 1289 c 2,23,-1
 427 1431 l 2,24,25
 444 1510 444 1510 524 1510 c 2,26,-1
 1266 1510 l 2,27,28
 1332 1510 1332 1510 1332 1456 c 0,29,30
 1332 1445 1332 1445 1329 1431 c 2,31,-1
 1141 544 l 2,32,33
 1081 262 1081 262 897 120 c 0,34,0
 714 -20 714 -20 466 -20 c 128,-1,1
EndSplineSet
Validated: 1
EndChar

StartChar: M
Encoding: 77 77 134
Width: 1942
Flags: W
HStem: 0 21G<145 371.5 804.5 1142.5 1580.5 1805.5> 1490 20G<554.5 945 1629 2024.5>
VStem: 724 259<1006.49 1138> 766 255<281 430.592>
DStem2: 117 79 432 79 0.268599 0.963252<-5.01612 1183.12> 1021 281 1208 64 0.42182 0.90668<0 1066.81> 1549 79 1859 79 0.144187 0.98955<-19.8614 1070.86>
LayerCount: 2
Fore
SplineSet
333 0 m 2,0,1
 178 0 l 2,2,3
 112 0 112 0 112 48 c 0,4,5
 112 61 112 61 117 79 c 2,6,-1
 494 1431 l 2,7,8
 516 1510 516 1510 593 1510 c 2,9,-1
 909 1510 l 2,10,11
 981 1510 981 1510 983 1446 c 2,12,-1
 1021 281 l 1,13,-1
 1563 1446 l 2,14,15
 1593 1510 1593 1510 1665 1510 c 2,16,-1
 1991 1510 l 2,17,18
 2058 1510 2058 1510 2058 1451 c 0,19,20
 2058 1445 2058 1445 2056 1431 c 2,21,-1
 1859 79 l 2,22,23
 1847 0 1847 0 1764 0 c 2,24,-1
 1614 0 l 2,25,26
 1547 0 1547 0 1547 59 c 0,27,28
 1547 66 1547 66 1549 79 c 2,29,-1
 1708 1138 l 1,30,-1
 1208 64 l 2,31,32
 1178 0 1178 0 1107 0 c 2,33,-1
 840 0 l 2,34,35
 769 0 769 0 766 64 c 2,36,-1
 724 1138 l 1,37,-1
 432 79 l 2,38,39
 410 0 410 0 333 0 c 2,0,1
EndSplineSet
Validated: 1
EndChar

StartChar: Y
Encoding: 89 89 135
Width: 1260
Flags: W
HStem: 0 21G<517 750> 1490 20G<352.5 572 1288 1540>
DStem2: 631 1446 324 1431 0.345144 -0.93855<-81.8971 525.521> 470.208 0 790.208 0 0.207912 0.978148<62.183 670.521> 813 953 929 656 0.621609 0.783328<0 745.244>
LayerCount: 2
Fore
SplineSet
550 0 m 2,0,1
 484 0 484 0 484 54 c 0,2,3
 484 65 484 65 487 79 c 2,4,-1
 609 656 l 1,5,-1
 324 1431 l 2,6,7
 319 1445 319 1445 319 1459 c 0,8,9
 319 1510 319 1510 386 1510 c 2,10,-1
 537 1510 l 2,11,12
 607 1510 607 1510 631 1446 c 2,13,-1
 813 953 l 1,14,-1
 1202 1446 l 2,15,16
 1252 1510 1252 1510 1324 1510 c 2,17,-1
 1516 1510 l 2,18,19
 1564 1510 1564 1510 1564 1476 c 0,20,21
 1564 1456 1564 1456 1544 1431 c 2,22,-1
 929 656 l 1,23,-1
 807 79 l 2,24,25
 790 0 790 0 710 0 c 2,26,-1
 550 0 l 2,0,1
EndSplineSet
Validated: 1
EndChar

StartChar: X
Encoding: 88 88 136
Width: 1216
Flags: W
HStem: 0 21G<50.5 307 946.5 1175.5> 1490 20G<361 590.5 1230 1486.5>
DStem2: 47 79 394 64 0.62553 0.7802<88.7752 728.226 1229.24 1868.7> 651 1446 334 1431 0.374429 -0.927255<-84.7567 440.101 929.357 1454.21>
LayerCount: 2
Fore
SplineSet
271 0 m 2,0,-1
 74 0 l 2,1,2
 27 0 27 0 27 33 c 0,3,4
 27 54 27 54 47 79 c 2,5,-1
 601 770 l 1,6,-1
 334 1431 l 2,7,8
 327 1448 327 1448 327 1464 c 0,9,10
 327 1510 327 1510 395 1510 c 2,11,-1
 556 1510 l 2,12,13
 625 1510 625 1510 651 1446 c 2,14,-1
 816 1038 l 1,15,-1
 1143 1446 l 2,16,17
 1194 1510 1194 1510 1266 1510 c 2,18,-1
 1463 1510 l 2,19,20
 1510 1510 1510 1510 1510 1477 c 0,21,22
 1510 1456 1510 1456 1490 1431 c 2,23,-1
 936 740 l 1,24,-1
 1203 79 l 2,25,26
 1209 64 1209 64 1209 49 c 0,27,28
 1209 0 1209 0 1142 0 c 2,29,-1
 981 0 l 2,30,31
 912 0 912 0 886 64 c 2,32,-1
 721 472 l 1,33,-1
 394 64 l 2,34,35
 343 0 343 0 271 0 c 2,0,-1
EndSplineSet
Validated: 1
EndChar

StartChar: S
Encoding: 83 83 137
Width: 1251
Flags: W
HStem: -20 300<476.495 819.82> 1252 278<781.115 997.865>
VStem: 427 326<1048.09 1221.14> 952 330<396.412 618.721>
LayerCount: 2
Fore
SplineSet
596 -20 m 0,0,1
 285 -20 285 -20 154 216 c 0,2,3
 143 234 143 234 143 257 c 0,4,5
 143 295 143 295 193 327 c 2,6,-1
 318 408 l 2,7,8
 349 428 349 428 375 428 c 0,9,10
 411 428 411 428 425 393 c 0,11,12
 470 280 470 280 637 280 c 0,13,14
 762 280 762 280 853 344 c 0,15,16
 936 402 936 402 950 494 c 0,17,18
 952 508 952 508 952 521 c 0,19,20
 952 608 952 608 860 653 c 2,21,-1
 649 756 l 2,22,23
 427 864 427 864 427 1081 c 0,24,25
 427 1102 427 1102 429 1124 c 0,26,27
 448 1327 448 1327 629 1447 c 0,28,29
 754 1530 754 1530 931 1530 c 0,30,31
 1178 1530 1178 1530 1283 1358 c 0,32,33
 1294 1340 1294 1340 1294 1317 c 0,34,35
 1294 1279 1294 1279 1245 1247 c 2,36,-1
 1120 1166 l 2,37,38
 1089 1146 1089 1146 1063 1146 c 0,39,40
 1027 1146 1027 1146 1013 1181 c 24,41,42
 985 1252 985 1252 901 1252 c 0,43,44
 835 1252 835 1252 795 1220 c 0,45,46
 762 1194 762 1194 755 1158 c 0,47,48
 753 1147 753 1147 753 1137 c 0,49,50
 753 1057 753 1057 869 1001 c 2,51,-1
 1061 908 l 2,52,53
 1282 801 1282 801 1282 567 c 0,54,55
 1282 534 1282 534 1277 498 c 0,56,57
 1253 304 1253 304 1096 158 c 0,58,59
 904 -20 904 -20 596 -20 c 0,0,1
EndSplineSet
Validated: 1
EndChar

StartChar: P
Encoding: 80 80 138
Width: 1238
Flags: W
HStem: 0 21G<187 420> 485 301<627 942.562> 1210 300<717 1014.09>
VStem: 1056 328<903.691 1167.17>
DStem2: 140.208 0 460.208 0 0.207912 0.978148<62.183 562.305 870.034 1303.48>
LayerCount: 2
Fore
SplineSet
380 0 m 2,0,-1
 220 0 l 2,1,2
 154 0 154 0 154 54 c 0,3,4
 154 65 154 65 157 79 c 2,5,-1
 444 1431 l 2,6,7
 461 1510 461 1510 541 1510 c 2,8,-1
 914 1510 l 2,9,10
 1156 1510 1156 1510 1286 1351 c 0,11,12
 1384 1228 1384 1228 1384 1067 c 0,13,14
 1384 1033 1384 1033 1380 998 c 0,15,16
 1355 788 1355 788 1196 644 c 0,17,18
 1022 485 1022 485 756 485 c 2,19,-1
 563 485 l 1,20,-1
 477 79 l 2,21,22
 460 0 460 0 380 0 c 2,0,-1
717 1210 m 1,23,-1
 627 786 l 1,24,-1
 790 786 l 2,25,26
 894 786 894 786 960 844 c 0,27,28
 1030 905 1030 905 1050 999 c 0,29,30
 1056 1028 1056 1028 1056 1054 c 0,31,32
 1056 1112 1056 1112 1026 1152 c 0,33,34
 982 1210 982 1210 880 1210 c 2,35,-1
 717 1210 l 1,23,-1
EndSplineSet
Validated: 1
EndChar

StartChar: s
Encoding: 115 115 139
Width: 985
Flags: W
HStem: -20 249<384.374 663.026> 876 244<590.449 778.832>
VStem: 289 280<735.515 859.604> 712 291<276.835 432.079>
LayerCount: 2
Fore
SplineSet
462 -20 m 0,0,1
 245 -20 245 -20 122 141 c 0,2,3
 107 162 107 162 107 185 c 0,4,5
 107 218 107 218 152 253 c 2,6,-1
 237 319 l 2,7,8
 270 345 270 345 293 345 c 0,9,10
 327 345 327 345 348 314 c 0,11,12
 406 229 406 229 517 229 c 0,13,14
 604 229 604 229 656 267 c 0,15,16
 702 300 702 300 710 339 c 0,17,18
 712 352 712 352 712 363 c 0,19,20
 712 418 712 418 655 438 c 10,21,-1
 522 485 l 2,22,23
 289 567 289 567 289 768 c 0,24,25
 289 788 289 788 291 808 c 0,26,27
 307 958 307 958 429 1042 c 0,28,29
 542 1120 542 1120 700 1120 c 0,30,31
 918 1120 918 1120 1012 971 c 0,32,33
 1024 952 1024 952 1024 927 c 0,34,35
 1024 891 1024 891 982 859 c 2,36,-1
 910 804 l 2,37,38
 876 778 876 778 853 778 c 0,39,40
 819 778 819 778 799 809 c 0,41,42
 753 876 753 876 665 876 c 0,43,44
 628 876 628 876 601 858 c 0,45,46
 569 835 569 835 569 797 c 0,47,48
 569 749 569 749 625 729 c 2,49,-1
 791 669 l 2,50,51
 1003 592 1003 592 1003 396 c 0,52,53
 1003 378 1003 378 1001 358 c 0,54,55
 986 199 986 199 843 93 c 0,56,57
 695 -20 695 -20 462 -20 c 0,0,1
EndSplineSet
Validated: 1
EndChar

StartChar: K
Encoding: 75 75 140
Width: 1315
Flags: W
HStem: 0 21G<187 420 1014.5 1271.5> 1490 20G<501 734 1278.5 1550>
DStem2: 140.208 0 460.208 0 0.207912 0.978148<62.183 511.111 1005.95 1548> 655 919 1002 885 0.707464 0.70675<221.46 880.337> 1002 885 750 632 0.345759 -0.938323<150.264 838.28>
LayerCount: 2
Fore
SplineSet
380 0 m 2,0,1
 220 0 l 2,2,3
 154 0 154 0 154 54 c 0,4,5
 154 65 154 65 157 79 c 2,6,-1
 444 1431 l 2,7,8
 461 1510 461 1510 541 1510 c 2,9,-1
 701 1510 l 2,10,11
 767 1510 767 1510 767 1456 c 0,12,13
 767 1445 767 1445 764 1431 c 2,14,-1
 655 919 l 1,15,-1
 1182 1446 l 2,16,17
 1246 1510 1246 1510 1311 1510 c 2,18,-1
 1528 1510 l 2,19,20
 1572 1510 1572 1510 1572 1477 c 0,21,22
 1572 1454 1572 1454 1543 1425 c 2,23,-1
 1002 885 l 1,24,-1
 1299 79 l 2,25,26
 1306 60 1306 60 1306 45 c 0,27,28
 1306 0 1306 0 1237 0 c 2,29,-1
 1050 0 l 2,30,31
 979 -0 979 -0 956 64 c 2,32,-1
 750 632 l 1,33,-1
 552 435 l 1,34,-1
 477 79 l 2,35,36
 460 0 460 0 380 0 c 2,0,1
EndSplineSet
Validated: 1
EndChar

StartChar: R
Encoding: 82 82 141
Width: 1305
Flags: W
HStem: 0 21G<187 420 1024.5 1271> 485 301<627 810.156> 1210 300<717 1014.09>
VStem: 1056 328<903.691 1167.17>
DStem2: 140.208 0 460.208 0 0.207912 0.978148<62.183 562.305 870.034 1303.48> 1115 582 811 487 0.343541 -0.939138<-11.4874 517.003>
LayerCount: 2
Fore
SplineSet
717 1210 m 1,0,-1
 627 786 l 1,1,-1
 790 786 l 2,2,3
 894 786 894 786 960 844 c 0,4,5
 1030 905 1030 905 1050 999 c 0,6,7
 1056 1028 1056 1028 1056 1054 c 0,8,9
 1056 1112 1056 1112 1026 1152 c 0,10,11
 982 1210 982 1210 880 1210 c 2,12,-1
 717 1210 l 1,0,-1
380 0 m 2,13,-1
 220 0 l 2,14,15
 154 0 154 0 154 54 c 0,16,17
 154 65 154 65 157 79 c 2,18,-1
 444 1431 l 2,19,20
 461 1510 461 1510 541 1510 c 2,21,-1
 914 1510 l 2,22,23
 1156 1510 1156 1510 1286 1351 c 0,24,25
 1384 1228 1384 1228 1384 1067 c 0,26,27
 1384 1033 1384 1033 1380 998 c 0,28,29
 1355 788 1355 788 1196 644 c 0,30,31
 1158 609 1158 609 1115 582 c 1,32,-1
 1299 79 l 2,33,34
 1305 62 1305 62 1305 47 c 0,35,36
 1305 0 1305 0 1237 0 c 2,37,-1
 1060 0 l 2,38,39
 989 0 989 0 966 64 c 2,40,-1
 811 487 l 1,41,42
 784 485 784 485 756 485 c 2,43,-1
 563 485 l 1,44,-1
 477 79 l 2,45,46
 460 0 460 0 380 0 c 2,13,-1
EndSplineSet
Validated: 1
EndChar

StartChar: B
Encoding: 66 66 142
Width: 1300
Flags: W
HStem: 0 300<524 909.895> 676 281<663 972.134> 1230 280<721 1028.84>
VStem: 1019 318<401.111 629.168> 1065 314<1016.07 1201.2>
DStem2: 140.208 0 460.233 0 0.207912 0.978148<373.239 757.656 1044.78 1323.87>
LayerCount: 2
Fore
SplineSet
663 957 m 1,0,-1
 878 957 l 2,1,2
 937 957 937 957 985 987 c 0,3,4
 1049 1029 1049 1029 1062 1093 c 0,5,6
 1065 1109 1065 1109 1065 1123 c 0,7,8
 1065 1170 1065 1170 1030 1200 c 0,9,10
 993 1230 993 1230 936 1230 c 2,11,-1
 721 1230 l 1,12,-1
 663 957 l 1,0,-1
524 300 m 1,13,-1
 729 300 l 2,14,15
 857 300 857 300 937 363 c 0,16,17
 997 411 997 411 1014 488 c 0,18,19
 1019 510 1019 510 1019 529 c 0,20,21
 1019 578 1019 578 990 614 c 0,22,23
 939 676 939 676 809 676 c 2,24,-1
 604 676 l 1,25,-1
 524 300 l 1,13,-1
220 0 m 2,26,27
 154 0 154 0 154 54 c 0,28,29
 154 65 154 65 157 79 c 2,30,-1
 444 1431 l 2,31,32
 461 1510 461 1510 541 1510 c 2,33,-1
 956 1510 l 2,34,35
 1150 1510 1150 1510 1261 1414 c 0,36,37
 1379 1312 1379 1312 1379 1168 c 0,38,39
 1379 1141 1379 1141 1375 1112 c 0,40,41
 1352 958 1352 958 1197 858 c 1,42,43
 1214 845 1214 845 1228 831 c 0,44,45
 1337 716 1337 716 1337 547 c 0,46,47
 1337 517 1337 517 1333 484 c 0,48,49
 1310 271 1310 271 1144 143 c 0,50,51
 957 0 957 0 695 0 c 2,52,-1
 220 0 l 2,26,27
EndSplineSet
Validated: 1
EndChar

StartChar: l
Encoding: 108 108 143
Width: 580
Flags: W
HStem: 0 21G<187 400> 1490 20G<501 714>
VStem: 154 593
DStem2: 140.208 0 440.208 0 0.207912 0.978148<58.0247 1548>
LayerCount: 2
Fore
SplineSet
220 0 m 2,0,1
 154 0 154 0 154 54 c 0,2,3
 154 65 154 65 157 79 c 2,4,-1
 444 1431 l 2,5,6
 461 1510 461 1510 541 1510 c 2,7,-1
 681 1510 l 2,8,9
 747 1510 747 1510 747 1456 c 0,10,11
 747 1445 747 1445 744 1431 c 2,12,-1
 457 79 l 2,13,14
 440 0 440 0 360 0 c 2,15,-1
 220 0 l 2,0,1
EndSplineSet
Validated: 1
EndChar

StartChar: i
Encoding: 105 105 144
Width: 580
Flags: W
HStem: 0 21G<187 400> 1080 20G<414 627> 1180 365<462.131 696.878>
VStem: 400 360<1242.57 1482.58>
DStem2: 140.208 0 440.208 0 0.207912 0.978148<58.0247 1128.88>
LayerCount: 2
Fore
SplineSet
580 1545 m 128,-1,1
 655 1545 655 1545 707.5 1491.5 c 128,-1,2
 760 1438 760 1438 760 1363 c 128,-1,3
 760 1288 760 1288 707 1234 c 128,-1,4
 654 1180 654 1180 580 1180 c 0,5,6
 504 1180 504 1180 452 1234 c 128,-1,7
 400 1288 400 1288 400 1362 c 0,8,9
 400 1438 400 1438 452 1491 c 0,10,0
 505 1545 505 1545 580 1545 c 128,-1,1
220 0 m 2,11,12
 154 0 154 0 154 54 c 0,13,14
 154 65 154 65 157 79 c 2,15,-1
 357 1021 l 2,16,17
 374 1100 374 1100 454 1100 c 2,18,-1
 594 1100 l 2,19,20
 660 1100 660 1100 660 1046 c 0,21,22
 660 1035 660 1035 657 1021 c 2,23,-1
 457 79 l 2,24,25
 440 0 440 0 360 0 c 2,26,-1
 220 0 l 2,11,12
EndSplineSet
Validated: 1
EndChar

StartChar: t
Encoding: 116 116 145
Width: 894
Flags: W
HStem: 0 21G<349 552> 820 280<249.911 476 826 1052.09> 1490 20G<663 866>
VStem: 208 886<859.056 1060.94>
DStem2: 302.208 0 592.208 0 0.207912 0.978148<56.0246 838.214 1184.86 1547.93>
LayerCount: 2
Fore
SplineSet
382 0 m 2,0,1
 316 0 316 0 316 54 c 0,2,3
 316 65 316 65 319 79 c 2,4,-1
 476 820 l 1,5,-1
 274 820 l 2,6,7
 208 820 208 820 208 874 c 0,8,9
 208 885 208 885 211 899 c 2,10,-1
 237 1021 l 2,11,12
 254 1100 254 1100 334 1100 c 2,13,-1
 536 1100 l 1,14,-1
 606 1431 l 2,15,16
 623 1510 623 1510 703 1510 c 2,17,-1
 833 1510 l 2,18,19
 899 1510 899 1510 899 1456 c 0,20,21
 899 1445 899 1445 896 1431 c 2,22,-1
 826 1100 l 1,23,-1
 1028 1100 l 2,24,25
 1094 1100 1094 1100 1094 1046 c 0,26,27
 1094 1035 1094 1035 1091 1021 c 2,28,-1
 1065 899 l 2,29,30
 1048 820 1048 820 968 820 c 2,31,-1
 766 820 l 1,32,-1
 609 79 l 2,33,34
 592 0 592 0 512 0 c 2,35,-1
 382 0 l 2,0,1
EndSplineSet
Validated: 1
EndChar

StartChar: j
Encoding: 106 106 146
Width: 580
Flags: W
HStem: -410 280<-96.0894 86.9072> 1080 20G<414 627> 1180 365<462.131 696.878>
VStem: 400 360<1242.57 1482.58>
DStem2: 52.8316 -410 352.832 -410 0.207912 0.978148<311.769 1548.08>
LayerCount: 2
Fore
SplineSet
580 1545 m 128,-1,1
 655 1545 655 1545 707.5 1491.5 c 128,-1,2
 760 1438 760 1438 760 1363 c 128,-1,3
 760 1288 760 1288 707 1234 c 128,-1,4
 654 1180 654 1180 580 1180 c 0,5,6
 504 1180 504 1180 452 1234 c 128,-1,7
 400 1288 400 1288 400 1362 c 0,8,9
 400 1438 400 1438 452 1491 c 0,10,0
 505 1545 505 1545 580 1545 c 128,-1,1
-72 -410 m 0,11,12
 -138 -410 -138 -410 -138 -356 c 0,13,14
 -138 -345 -138 -345 -135 -331 c 2,15,-1
 -109 -209 l 2,16,17
 -92 -130 -92 -130 -13 -130 c 0,18,19
 47 -130 47 -130 91 -84 c 0,20,21
 131 -43 131 -43 146 27 c 2,22,-1
 357 1021 l 2,23,24
 374 1100 374 1100 454 1100 c 2,25,-1
 594 1100 l 2,26,27
 660 1100 660 1100 660 1046 c 0,28,29
 660 1035 660 1035 657 1021 c 2,30,-1
 449 41 l 2,31,32
 401 -186 401 -186 277 -291 c 0,33,34
 138 -410 138 -410 -72 -410 c 0,11,12
EndSplineSet
Validated: 1
EndChar

StartChar: f
Encoding: 102 102 147
Width: 850
Flags: W
HStem: -410 280<-96.0894 86.9072> 660 280<640 934.089> 1230 280<740.664 1095.09>
DStem2: 53.1409 -410 352.564 -410 0.207912 0.978148<311.705 1156.16 1442.51 1705.4>
LayerCount: 2
Fore
SplineSet
-72 -410 m 0,0,1
 -138 -410 -138 -410 -138 -356 c 0,2,3
 -138 -345 -138 -345 -135 -331 c 2,4,-1
 -109 -209 l 2,5,6
 -92 -130 -92 -130 -13 -130 c 0,7,8
 47 -130 47 -130 91 -84 c 0,9,10
 131 -43 131 -43 146 27 c 2,11,-1
 369 1076 l 2,12,13
 418 1307 418 1307 556 1410 c 0,14,15
 690 1510 690 1510 906 1510 c 2,16,-1
 1071 1510 l 2,17,18
 1137 1510 1137 1510 1137 1456 c 0,19,20
 1137 1445 1137 1445 1134 1431 c 2,21,-1
 1108 1309 l 2,22,23
 1091 1230 1091 1230 1011 1230 c 2,24,-1
 876 1230 l 2,25,26
 792 1230 792 1230 739 1192 c 0,27,28
 686 1153 686 1153 671 1085 c 2,29,-1
 640 940 l 1,30,-1
 910 940 l 2,31,32
 976 940 976 940 976 886 c 0,33,34
 976 875 976 875 973 861 c 2,35,-1
 947 739 l 2,36,37
 930 660 930 660 850 660 c 2,38,-1
 580 660 l 1,39,-1
 449 41 l 2,40,41
 401 -186 401 -186 277 -291 c 0,42,43
 138 -410 138 -410 -72 -410 c 0,0,1
EndSplineSet
Validated: 1
EndChar

StartChar: d
Encoding: 100 100 148
Width: 1216
Flags: W
HStem: -20 280<548.774 747.389> 0 21G<821.5 1036> 840 280<651.606 930.785> 1490 20G<1137 1350>
VStem: 168 318<326.551 646.967>
DStem2: 769.006 -20 1071.96 -20 0.207912 0.978148<301.997 845.491 1093.46 1567.95>
LayerCount: 2
Fore
SplineSet
996 0 m 2,0,-1
 856 0 l 2,1,2
 787 0 787 0 787 51 c 1,3,4
 697 -20 697 -20 577 -20 c 0,5,6
 390 -20 390 -20 288 91 c 16,7,8
 168 222 168 222 168 433 c 0,9,10
 168 489 168 489 176 550 c 0,11,12
 216 843 216 843 438 1009 c 0,13,14
 587 1120 587 1120 759 1120 c 0,15,16
 916 1120 916 1120 999 1049 c 1,17,-1
 1080 1431 l 2,18,19
 1097 1510 1097 1510 1177 1510 c 2,20,-1
 1317 1510 l 2,21,22
 1383 1510 1383 1510 1383 1456 c 0,23,24
 1383 1445 1383 1445 1380 1431 c 2,25,-1
 1093 79 l 2,26,27
 1076 0 1076 0 996 0 c 2,0,-1
940 787 m 1,28,29
 889 840 889 840 797.5 840 c 128,-1,30
 706 840 706 840 627 779 c 0,31,32
 530 704 530 704 497 550 c 0,33,34
 486 499 486 499 486 457 c 0,35,36
 486 375 486 375 527 326 c 0,37,38
 583 260 583 260 674.5 260 c 128,-1,39
 766 260 766 260 840 314 c 1,40,-1
 940 787 l 1,28,29
EndSplineSet
Validated: 1
EndChar

StartChar: p
Encoding: 112 112 149
Width: 1216
Flags: W
HStem: -410 21G<100 313.5> -20 280<516.215 795.394> 840 280<699.611 898.226> 1080 20G<414 627>
VStem: 961 318<453.033 773.449>
DStem2: 53.208 -410 353.208 -410 0.207912 0.978148<58.1027 533.008 780.975 1326.08>
LayerCount: 2
Fore
SplineSet
273 -410 m 2,0,-1
 133 -410 l 2,1,2
 67 -410 67 -410 67 -356 c 0,3,4
 67 -345 67 -345 70 -331 c 2,5,-1
 357 1021 l 2,6,7
 374 1100 374 1100 454 1100 c 2,8,-1
 594 1100 l 2,9,10
 660 1100 660 1100 660 1049 c 1,11,12
 750 1120 750 1120 870 1120 c 0,13,14
 1057 1120 1057 1120 1159 1009 c 16,15,16
 1279 878 1279 878 1279 667 c 0,17,18
 1279 611 1279 611 1271 550 c 0,19,20
 1231 257 1231 257 1009 91 c 0,21,22
 860 -20 860 -20 688 -20 c 0,23,24
 531 -20 531 -20 448 51 c 1,25,-1
 370 -331 l 2,26,27
 354 -410 354 -410 273 -410 c 2,0,-1
507 313 m 1,28,29
 558 260 558 260 649.5 260 c 128,-1,30
 741 260 741 260 820 321 c 0,31,32
 917 396 917 396 950 550 c 0,33,34
 961 601 961 601 961 643 c 0,35,36
 961 725 961 725 920 774 c 0,37,38
 864 840 864 840 772.5 840 c 128,-1,39
 681 840 681 840 607 786 c 1,40,-1
 507 313 l 1,28,29
EndSplineSet
Validated: 1
EndChar

StartChar: b
Encoding: 98 98 150
Width: 1216
Flags: W
HStem: -20 280<516.215 795.394> 0 21G<187 398.5> 840 280<699.611 898.226> 1490 20G<501 714>
VStem: 961 318<453.033 773.449>
DStem2: 135.957 -20 432.908 -20 0.207912 0.978148<76.4714 134.326 382.978 924.148 1154.59 1568.45>
LayerCount: 2
Fore
SplineSet
360 0 m 2,0,-1
 220 0 l 2,1,2
 154 0 154 0 154 54 c 0,3,4
 154 65 154 65 157 79 c 2,5,-1
 444 1431 l 2,6,7
 461 1510 461 1510 541 1510 c 2,8,-1
 681 1510 l 2,9,10
 747 1510 747 1510 747 1456 c 0,11,12
 747 1445 747 1445 744 1431 c 2,13,-1
 660 1049 l 1,14,15
 750 1120 750 1120 870 1120 c 0,16,17
 1057 1120 1057 1120 1159 1009 c 16,18,19
 1279 878 1279 878 1279 667 c 0,20,21
 1279 611 1279 611 1271 550 c 0,22,23
 1231 257 1231 257 1009 91 c 0,24,25
 860 -20 860 -20 688 -20 c 0,26,27
 531 -20 531 -20 448 51 c 1,28,29
 437 0 437 0 360 0 c 2,0,-1
507 313 m 1,30,31
 558 260 558 260 649.5 260 c 128,-1,32
 741 260 741 260 820 321 c 0,33,34
 917 396 917 396 950 550 c 0,35,36
 961 601 961 601 961 643 c 0,37,38
 961 725 961 725 920 774 c 0,39,40
 864 840 864 840 772.5 840 c 128,-1,41
 681 840 681 840 607 786 c 1,42,-1
 507 313 l 1,30,31
EndSplineSet
Validated: 1
EndChar

StartChar: q
Encoding: 113 113 151
Width: 1216
Flags: W
HStem: -410 21G<736 949> -20 280<551.774 748.984> 840 280<654.606 933.785> 1080 20G<1051.5 1263>
VStem: 171 318<326.551 646.967>
DStem2: 689.208 -410 989.208 -410 0.207912 0.978148<58.0247 469.094 700.689 1244.18 1492.15 1549.28>
LayerCount: 2
Fore
SplineSet
909 -410 m 2,0,1
 769 -410 l 2,2,3
 703 -410 703 -410 703 -356 c 0,4,5
 703 -345 703 -345 706 -331 c 2,6,-1
 786 49 l 1,7,8
 698 -20 698 -20 580 -20 c 0,9,10
 393 -20 393 -20 291 91 c 16,11,12
 171 222 171 222 171 433 c 0,13,14
 171 489 171 489 179 550 c 0,15,16
 219 843 219 843 441 1009 c 0,17,18
 590 1120 590 1120 762 1120 c 0,19,20
 919 1120 919 1120 1002 1049 c 1,21,22
 1013 1100 1013 1100 1090 1100 c 2,23,-1
 1230 1100 l 2,24,25
 1296 1100 1296 1100 1296 1046 c 0,26,27
 1296 1035 1296 1035 1293 1021 c 2,28,-1
 1006 -331 l 2,29,30
 989 -410 989 -410 909 -410 c 2,0,1
943 787 m 1,31,32
 892 840 892 840 800.5 840 c 128,-1,33
 709 840 709 840 630 779 c 0,34,35
 533 704 533 704 500 550 c 0,36,37
 489 499 489 499 489 457 c 0,38,39
 489 375 489 375 530 326 c 0,40,41
 586 260 586 260 677.5 260 c 128,-1,42
 769 260 769 260 843 314 c 1,43,-1
 943 787 l 1,31,32
EndSplineSet
Validated: 1
EndChar

StartChar: a
Encoding: 97 97 152
Width: 1216
Flags: W
HStem: -20 280<551.774 750.389> 0 21G<823 1036> 840 280<654.606 933.785> 1080 20G<1051.5 1263>
VStem: 171 318<326.551 646.967>
DStem2: 772.006 -20 1071.96 -20 0.207912 0.978148<301.997 845.491 1093.46 1150.58>
LayerCount: 2
Fore
SplineSet
996 0 m 2,0,1
 856 0 l 2,2,3
 790 0 790 0 790 51 c 1,4,5
 700 -20 700 -20 580 -20 c 0,6,7
 393 -20 393 -20 291 91 c 16,8,9
 171 222 171 222 171 433 c 0,10,11
 171 489 171 489 179 550 c 0,12,13
 219 843 219 843 441 1009 c 0,14,15
 590 1120 590 1120 762 1120 c 0,16,17
 919 1120 919 1120 1002 1049 c 1,18,19
 1013 1100 1013 1100 1090 1100 c 2,20,-1
 1230 1100 l 2,21,22
 1296 1100 1296 1100 1296 1046 c 0,23,24
 1296 1035 1296 1035 1293 1021 c 2,25,-1
 1093 79 l 2,26,27
 1076 0 1076 0 996 0 c 2,0,1
943 787 m 1,28,29
 892 840 892 840 800.5 840 c 128,-1,30
 709 840 709 840 630 779 c 0,31,32
 533 704 533 704 500 550 c 0,33,34
 489 499 489 499 489 457 c 0,35,36
 489 375 489 375 530 326 c 0,37,38
 586 260 586 260 677.5 260 c 128,-1,39
 769 260 769 260 843 314 c 1,40,-1
 943 787 l 1,28,29
EndSplineSet
Validated: 1
EndChar

StartChar: c
Encoding: 99 99 153
Width: 1090
Flags: W
HStem: -20 280<554.472 828.009> 840 280<652.546 933.102>
VStem: 173 316<323.844 651.531>
LayerCount: 2
Fore
SplineSet
649 -20 m 0,0,1
 409 -20 409 -20 282 123 c 0,2,3
 173 246 173 246 173 452 c 0,4,5
 173 493 173 493 177 537 c 0,6,7
 201 805 201 805 413 976 c 0,8,9
 591 1120 591 1120 831 1120 c 0,10,11
 1079 1120 1079 1120 1192 961 c 0,12,13
 1208 941 1208 941 1208 919 c 0,14,15
 1208 883 1208 883 1163 849 c 2,16,-1
 1060 771 l 2,17,18
 1026 745 1026 745 1003 745 c 0,19,20
 969 745 969 745 949 776 c 0,21,22
 908 840 908 840 808 840 c 0,23,24
 707 840 707 840 630 779 c 0,25,26
 532 702 532 702 500 550 c 0,27,28
 489 498 489 498 489 455 c 0,29,30
 489 373 489 373 530 326 c 0,31,32
 587 260 587 260 684 260 c 0,33,34
 783 260 783 260 853 324 c 0,35,36
 886 355 886 355 920 355 c 0,37,38
 943 355 943 355 966 329 c 2,39,-1
 1049 236 l 2,40,41
 1068 215 1068 215 1068 187 c 0,42,43
 1068 156 1068 156 1031 124 c 0,44,45
 864 -20 864 -20 649 -20 c 0,0,1
EndSplineSet
Validated: 1
EndChar

StartChar: e
Encoding: 101 101 154
Width: 1125
Flags: W
HStem: -20 280<533.759 827.167> 850 270<645.97 917.078>
DStem2: 496 572 498 355 0.96245 0.27146<0 458.09>
LayerCount: 2
Fore
SplineSet
649 -20 m 0,0,1
 409 -20 409 -20 282 123 c 0,2,3
 173 246 173 246 173 452 c 0,4,5
 173 493 173 493 177 537 c 0,6,7
 203 806 203 806 413 976 c 0,8,9
 591 1120 591 1120 831 1120 c 0,10,11
 1092 1120 1092 1120 1195 960 c 0,12,13
 1241 889 1241 889 1241 810 c 0,14,15
 1241 781 1241 781 1234 750 c 0,16,17
 1192 551 1192 551 966 487 c 2,18,-1
 498 355 l 1,19,20
 508 330 508 330 527 309 c 0,21,22
 573 260 573 260 684 260 c 0,23,24
 783 260 783 260 853 324 c 0,25,26
 886 355 886 355 920 355 c 0,27,28
 942 355 942 355 966 329 c 2,29,-1
 1049 236 l 2,30,31
 1068 215 1068 215 1068 187 c 0,32,33
 1068 156 1068 156 1031 124 c 0,34,35
 873 -20 873 -20 649 -20 c 0,0,1
496 572 m 1,36,-1
 837 669 l 2,37,38
 920 693 920 693 932 747 c 0,39,40
 934 758 934 758 934 768 c 0,41,42
 934 798 934 798 912 818 c 0,43,44
 875 850 875 850 803 850 c 0,45,46
 700 850 700 850 630 794 c 0,47,48
 526 711 526 711 496 572 c 1,36,-1
EndSplineSet
Validated: 1
EndChar

StartChar: g
Encoding: 103 103 155
Width: 1216
Flags: W
HStem: -410 260<247.125 709.173> -20 280<551.774 750.389> 840 280<654.606 933.785> 1080 20G<1051.5 1263>
VStem: 171 318<326.551 646.967>
DStem2: 692.011 -410 988.75 -410 0.207912 0.978148<300.458 471.299 701.746 1242.92 1491.57 1549.42>
LayerCount: 2
Fore
SplineSet
544 -410 m 2,0,-1
 276 -410 l 2,1,2
 210 -410 210 -410 210 -356 c 0,3,4
 210 -346 210 -346 213 -331 c 2,5,-1
 234 -229 l 2,6,7
 250 -150 250 -150 331 -150 c 2,8,-1
 569 -150 l 2,9,10
 653 -150 653 -150 706 -112 c 0,11,12
 765 -69 765 -69 779 -2 c 2,13,-1
 790 51 l 1,14,15
 700 -20 700 -20 580 -20 c 0,16,17
 393 -20 393 -20 291 91 c 16,18,19
 171 222 171 222 171 433 c 0,20,21
 171 489 171 489 179 550 c 0,22,23
 219 843 219 843 441 1009 c 0,24,25
 590 1120 590 1120 762 1120 c 0,26,27
 919 1120 919 1120 1002 1049 c 1,28,29
 1013 1100 1013 1100 1090 1100 c 2,30,-1
 1230 1100 l 2,31,32
 1296 1100 1296 1100 1296 1046 c 0,33,34
 1296 1035 1296 1035 1293 1021 c 2,35,-1
 1081 24 l 2,36,37
 1034 -196 1034 -196 912 -296 c 0,38,39
 773 -410 773 -410 544 -410 c 2,0,-1
943 787 m 1,40,41
 892 840 892 840 800.5 840 c 128,-1,42
 709 840 709 840 630 779 c 0,43,44
 533 704 533 704 500 550 c 0,45,46
 489 499 489 499 489 457 c 0,47,48
 489 375 489 375 530 326 c 0,49,50
 586 260 586 260 677.5 260 c 128,-1,51
 769 260 769 260 843 314 c 1,52,-1
 943 787 l 1,40,41
EndSplineSet
Validated: 1
EndChar

StartChar: v
Encoding: 118 118 156
Width: 1142
Flags: W
HStem: 0 21G<451.5 689> 1080 20G<294 518 1085 1309>
VStem: 214 308<464.913 1057.4>
LayerCount: 2
Fore
SplineSet
483 0 m 2,0,1
 420 0 420 0 400 44 c 0,2,3
 214 461 214 461 214 796 c 0,4,5
 214 913 214 913 237 1021 c 0,6,7
 254 1100 254 1100 334 1100 c 2,8,-1
 485 1100 l 2,9,10
 551 1100 551 1100 551 1046 c 0,11,12
 551 1035 551 1035 548 1021 c 0,13,14
 522 900 522 900 522 779 c 0,15,16
 522 546 522 546 618 313 c 1,17,18
 966 728 966 728 1028 1021 c 24,19,20
 1045 1100 1045 1100 1125 1100 c 2,21,-1
 1276 1100 l 2,22,23
 1342 1100 1342 1100 1342 1046 c 0,24,25
 1342 1035 1342 1035 1339 1021 c 0,26,27
 1241 559 1241 559 766 50 c 24,28,29
 719 0 719 0 659 0 c 2,30,-1
 483 0 l 2,0,1
EndSplineSet
Validated: 1
EndChar

StartChar: y
Encoding: 121 121 157
Width: 1230
Flags: W
HStem: -410 260<261.125 723.649> -20 280<552.352 761.944> 1080 20G<414 627 1064 1277>
VStem: 216 309<303.942 465.834>
DStem2: 53.1915 -410 352.728 -410 0.207912 0.978148<871.444 1548.01> 706.011 -410 1002.75 -410 0.207912 0.978148<300.458 471.299 703.718 1549.4>
LayerCount: 2
Fore
SplineSet
558 -410 m 2,0,-1
 290 -410 l 2,1,2
 224 -410 224 -410 224 -356 c 0,3,4
 224 -346 224 -346 227 -331 c 2,5,-1
 248 -229 l 2,6,7
 264 -150 264 -150 345 -150 c 2,8,-1
 583 -150 l 2,9,10
 667 -150 667 -150 720 -112 c 0,11,12
 779 -69 779 -69 793 -2 c 2,13,-1
 804 51 l 1,14,15
 709 -20 709 -20 584 -20 c 0,16,17
 407 -20 407 -20 305 91 c 0,18,19
 216 188 216 188 216 315 c 0,20,21
 216 356 216 356 226 403 c 2,22,-1
 357 1021 l 2,23,24
 374 1100 374 1100 454 1100 c 2,25,-1
 594 1100 l 2,26,27
 660 1100 660 1100 660 1046 c 0,28,29
 660 1035 660 1035 657 1021 c 2,30,-1
 530 424 l 2,31,32
 525 400 525 400 525 380 c 0,33,34
 525 333 525 333 552 303 c 0,35,36
 591 260 591 260 684 260 c 128,-1,37
 777 260 777 260 857 316 c 1,38,-1
 1007 1021 l 2,39,40
 1024 1100 1024 1100 1104 1100 c 2,41,-1
 1244 1100 l 2,42,43
 1310 1100 1310 1100 1310 1046 c 0,44,45
 1310 1035 1310 1035 1307 1021 c 2,46,-1
 1095 24 l 2,47,48
 1048 -196 1048 -196 926 -296 c 0,49,50
 788 -410 788 -410 558 -410 c 2,0,-1
EndSplineSet
Validated: 1
EndChar

StartChar: z
Encoding: 122 122 158
Width: 999
Flags: W
HStem: 0 280<577 933.089> 820 280<340.911 755>
VStem: 84 891<39.0564 238.656>
LayerCount: 2
Fore
SplineSet
849 0 m 2,0,-1
 150 0 l 2,1,2
 84 0 84 0 84 54 c 0,3,4
 84 65 84 65 87 79 c 2,5,-1
 113 201 l 2,6,7
 122 244 122 244 159 271 c 0,8,9
 563 552 563 552 755 820 c 1,10,-1
 365 820 l 2,11,12
 299 820 299 820 299 874 c 0,13,14
 299 885 299 885 302 899 c 2,15,-1
 328 1021 l 2,16,17
 345 1100 345 1100 425 1100 c 2,18,-1
 1083 1100 l 2,19,20
 1149 1100 1149 1100 1149 1046 c 0,21,22
 1149 1035 1149 1035 1146 1021 c 2,23,-1
 1120 899 l 2,24,25
 1116 880 1116 880 1106 862 c 0,26,27
 894 518 894 518 577 280 c 1,28,-1
 909 280 l 2,29,30
 975 280 975 280 975 226 c 0,31,32
 975 215 975 215 972 201 c 2,33,-1
 946 79 l 2,34,35
 929 0 929 0 849 0 c 2,0,-1
EndSplineSet
Validated: 1
EndChar

StartChar: n
Encoding: 110 110 159
Width: 1230
Flags: W
HStem: 0 21G<187 400 837 1050> 840 280<702.056 911.648> 1080 20G<414 627>
VStem: 939 309<634.166 796.058>
DStem2: 140.208 0 440.208 0 0.207912 0.978148<58.0247 903.465> 790.208 0 1090.21 0 0.207912 0.978148<58.0247 734.589>
LayerCount: 2
Fore
SplineSet
360 0 m 2,0,-1
 220 0 l 2,1,2
 154 0 154 0 154 54 c 0,3,4
 154 65 154 65 157 79 c 2,5,-1
 357 1021 l 2,6,7
 374 1100 374 1100 454 1100 c 2,8,-1
 594 1100 l 2,9,10
 660 1100 660 1100 660 1049 c 1,11,12
 755 1120 755 1120 880 1120 c 0,13,14
 1057 1120 1057 1120 1159 1009 c 0,15,16
 1248 912 1248 912 1248 785 c 0,17,18
 1248 744 1248 744 1238 697 c 2,19,-1
 1107 79 l 2,20,21
 1090 0 1090 0 1010 0 c 2,22,-1
 870 0 l 2,23,24
 804 0 804 0 804 54 c 0,25,26
 804 65 804 65 807 79 c 2,27,-1
 934 676 l 2,28,29
 939 700 939 700 939 720 c 0,30,31
 939 767 939 767 912 797 c 0,32,33
 873 840 873 840 780 840 c 128,-1,34
 687 840 687 840 607 784 c 1,35,-1
 457 79 l 2,36,37
 440 0 440 0 360 0 c 2,0,-1
EndSplineSet
Validated: 1
EndChar

StartChar: u
Encoding: 117 117 160
Width: 1230
Flags: W
HStem: -20 280<552.352 761.944> 0 21G<837 1050> 1080 20G<414 627 1064 1277>
VStem: 216 309<303.942 465.834>
DStem2: 136.089 -20 435.625 -20 0.207912 0.978148<472.731 1149.3> 785.581 -20 1085.96 -20 0.207912 0.978148<303.961 1149.4>
LayerCount: 2
Fore
SplineSet
1010 0 m 2,0,-1
 870 0 l 2,1,2
 804 0 804 0 804 51 c 1,3,4
 709 -20 709 -20 584 -20 c 0,5,6
 407 -20 407 -20 305 91 c 0,7,8
 216 188 216 188 216 315 c 0,9,10
 216 356 216 356 226 403 c 2,11,-1
 357 1021 l 2,12,13
 374 1100 374 1100 454 1100 c 2,14,-1
 594 1100 l 2,15,16
 660 1100 660 1100 660 1046 c 0,17,18
 660 1035 660 1035 657 1021 c 2,19,-1
 530 424 l 2,20,21
 525 400 525 400 525 380 c 0,22,23
 525 333 525 333 552 303 c 0,24,25
 591 260 591 260 684 260 c 128,-1,26
 777 260 777 260 857 316 c 1,27,-1
 1007 1021 l 2,28,29
 1024 1100 1024 1100 1104 1100 c 2,30,-1
 1244 1100 l 2,31,32
 1310 1100 1310 1100 1310 1046 c 0,33,34
 1310 1035 1310 1035 1307 1021 c 2,35,-1
 1107 79 l 2,36,37
 1090 0 1090 0 1010 0 c 2,0,-1
EndSplineSet
Validated: 1
EndChar

StartChar: h
Encoding: 104 104 161
Width: 1230
Flags: W
HStem: 0 21G<187 400 837 1050> 840 280<702.056 911.648> 1490 20G<501 714>
VStem: 939 309<634.166 796.058>
DStem2: 140.208 0 440.208 0 0.207912 0.978148<58.0247 903.465 1134.15 1548> 790.208 0 1090.21 0 0.207912 0.978148<58.0247 734.589>
LayerCount: 2
Fore
SplineSet
360 0 m 2,0,-1
 220 0 l 2,1,2
 154 0 154 0 154 54 c 0,3,4
 154 65 154 65 157 79 c 2,5,-1
 444 1431 l 2,6,7
 461 1510 461 1510 541 1510 c 2,8,-1
 681 1510 l 2,9,10
 747 1510 747 1510 747 1456 c 0,11,12
 747 1445 747 1445 744 1431 c 2,13,-1
 660 1049 l 1,14,15
 755 1120 755 1120 880 1120 c 0,16,17
 1057 1120 1057 1120 1159 1009 c 0,18,19
 1248 912 1248 912 1248 785 c 0,20,21
 1248 744 1248 744 1238 697 c 2,22,-1
 1107 79 l 2,23,24
 1090 0 1090 0 1010 0 c 2,25,-1
 870 0 l 2,26,27
 804 0 804 0 804 54 c 0,28,29
 804 65 804 65 807 79 c 2,30,-1
 934 676 l 2,31,32
 939 700 939 700 939 720 c 0,33,34
 939 767 939 767 912 797 c 0,35,36
 873 840 873 840 780 840 c 128,-1,37
 687 840 687 840 607 784 c 1,38,-1
 457 79 l 2,39,40
 440 0 440 0 360 0 c 2,0,-1
EndSplineSet
Validated: 1
EndChar

StartChar: m
Encoding: 109 109 162
Width: 1880
Flags: W
HStem: 0 21G<187 400 837 1050 1487 1700> 840 280<706.289 910.321 1293.04 1559.64> 1080 20G<414 627>
VStem: 939 305<613.529 796.058> 1589 308<633.717 796.058>
DStem2: 140.208 0 440.208 0 0.207912 0.978148<58.0247 904.649> 790.208 0 1090.21 0 0.207912 0.978148<58.0247 734.589> 1440.21 0 1740.21 0 0.207912 0.978148<58.0247 734.589>
LayerCount: 2
Fore
SplineSet
360 0 m 2,0,-1
 220 0 l 2,1,2
 154 0 154 0 154 54 c 0,3,4
 154 65 154 65 157 79 c 2,5,-1
 357 1021 l 2,6,7
 374 1100 374 1100 454 1100 c 2,8,-1
 594 1100 l 2,9,10
 660 1100 660 1100 660 1049 c 1,11,12
 764 1120 764 1120 894 1120 c 0,13,14
 1065 1120 1065 1120 1165 1003 c 1,15,16
 1326 1120 1326 1120 1511 1120 c 0,17,18
 1707 1120 1707 1120 1808 1009 c 0,19,20
 1897 911 1897 911 1897 783 c 0,21,22
 1897 741 1897 741 1888 697 c 2,23,-1
 1757 79 l 2,24,25
 1740 0 1740 0 1660 0 c 2,26,-1
 1520 0 l 2,27,28
 1454 0 1454 0 1454 54 c 0,29,30
 1454 65 1454 65 1457 79 c 2,31,-1
 1584 676 l 2,32,33
 1589 700 1589 700 1589 720 c 0,34,35
 1589 767 1589 767 1562 797 c 0,36,37
 1523 840 1523 840 1427 840 c 0,38,39
 1326 840 1326 840 1244 772 c 1,40,41
 1243 718 1243 718 1234 676 c 2,42,-1
 1107 79 l 2,43,44
 1090 0 1090 0 1010 0 c 2,45,-1
 870 0 l 2,46,47
 804 0 804 0 804 54 c 0,48,49
 804 65 804 65 807 79 c 2,50,-1
 934 676 l 2,51,52
 939 700 939 700 939 720 c 0,53,54
 939 767 939 767 912 797 c 0,55,56
 873 840 873 840 777 840 c 0,57,58
 682 840 682 840 607 784 c 1,59,-1
 457 79 l 2,60,61
 440 0 440 0 360 0 c 2,0,-1
EndSplineSet
Validated: 1
EndChar

StartChar: r
Encoding: 114 114 163
Width: 994
Flags: W
HStem: 0 21G<187 400> 840 280<701.977 992.405> 1080 20G<414 627>
DStem2: 140.208 0 440.208 0 0.207912 0.978148<58.0247 903.455>
LayerCount: 2
Fore
SplineSet
360 0 m 2,0,-1
 220 0 l 2,1,2
 154 0 154 0 154 54 c 0,3,4
 154 65 154 65 157 79 c 2,5,-1
 357 1021 l 2,6,7
 374 1100 374 1100 454 1100 c 2,8,-1
 594 1100 l 2,9,10
 660 1100 660 1100 660 1049 c 1,11,12
 755 1120 755 1120 880 1120 c 0,13,14
 1061 1120 1061 1120 1165 1002 c 0,15,16
 1180 985 1180 985 1180 961 c 0,17,18
 1180 928 1180 928 1136 890 c 2,19,-1
 1022 792 l 2,20,21
 992 766 992 766 966 766 c 128,-1,22
 940 766 940 766 911 797 c 24,23,24
 872 840 872 840 779.5 840 c 128,-1,25
 687 840 687 840 607 784 c 1,26,-1
 457 79 l 2,27,28
 440 0 440 0 360 0 c 2,0,-1
EndSplineSet
Validated: 1
EndChar

StartChar: x
Encoding: 120 120 164
Width: 1041
Flags: W
HStem: 0 21G<83.5 316.5 773 979> 1080 20G<296 502 958.5 1191.5>
VStem: 249 292<873.075 1092.79> 734 292<7.21362 225.079>
LayerCount: 2
Fore
SplineSet
288 0 m 2,0,-1
 117 0 l 2,1,2
 50 0 50 0 50 59 c 0,3,4
 50 77 50 77 61 97 c 0,5,6
 213 374 213 374 437 549 c 1,7,8
 279 790 279 790 251 1001 c 0,9,10
 249 1016 249 1016 249 1029 c 0,11,12
 249 1100 249 1100 343 1100 c 2,13,-1
 474 1100 l 2,14,15
 530 1100 530 1100 541 1033 c 24,16,17
 566 875 566 875 658 727 c 1,18,19
 814 871 814 871 890 1021 c 0,20,21
 930 1100 930 1100 987 1100 c 2,22,-1
 1158 1100 l 2,23,24
 1225 1100 1225 1100 1225 1041 c 0,25,26
 1225 1023 1225 1023 1214 1003 c 0,27,28
 1060 723 1060 723 838 549 c 1,29,30
 996 306 996 306 1024 99 c 0,31,32
 1026 84 1026 84 1026 71 c 0,33,34
 1026 0 1026 0 932 0 c 2,35,-1
 801 0 l 2,36,37
 745 0 745 0 734 67 c 24,38,39
 709 225 709 225 617 373 c 1,40,41
 459 227 459 227 385 80 c 0,42,43
 345 0 345 0 288 0 c 2,0,-1
EndSplineSet
Validated: 1
EndChar

StartChar: k
Encoding: 107 107 165
Width: 1083
Flags: W
HStem: 0 21G<187 400 808 1022.5> 1080 20G<1014 1218.5> 1490 20G<501 714>
VStem: 771 299<7.61719 266.234>
DStem2: 140.208 0 440.208 0 0.207912 0.978148<58.0247 413.03 726.818 1548>
LayerCount: 2
Fore
SplineSet
360 0 m 2,0,-1
 220 0 l 2,1,2
 154 0 154 0 154 54 c 0,3,4
 154 65 154 65 157 79 c 2,5,-1
 444 1431 l 2,6,7
 461 1510 461 1510 541 1510 c 2,8,-1
 681 1510 l 2,9,10
 747 1510 747 1510 747 1456 c 0,11,12
 747 1445 747 1445 744 1431 c 2,13,-1
 578 650 l 1,14,15
 814 839 814 839 935 1022 c 24,16,17
 987 1100 987 1100 1041 1100 c 2,18,-1
 1184 1100 l 2,19,20
 1253 1100 1253 1100 1253 1041 c 0,21,22
 1253 1010 1253 1010 1235 977 c 0,23,24
 1126 766 1126 766 878 580 c 1,25,26
 1070 346 1070 346 1070 78 c 0,27,28
 1070 0 1070 0 975 0 c 2,29,-1
 841 0 l 2,30,31
 775 0 775 0 771 78 c 0,32,33
 761 250 761 250 655 396 c 1,34,35
 580 343 580 343 505 307 c 1,36,-1
 457 79 l 2,37,38
 440 0 440 0 360 0 c 2,0,-1
EndSplineSet
Validated: 1
EndChar

StartChar: w
Encoding: 119 119 166
Width: 1880
Flags: W
HStem: -20 280<550.554 810.681 1200.77 1458.63> 1080 20G<414 627 1064 1277 1714 1927>
VStem: 223 304<285.031 509.302>
DStem2: 135.524 -20 435.524 -20 0.207912 0.978148<478.4 1149.41> 785.729 -20 1085.73 -20 0.207912 0.978148<478.358 1149.37> 1435.73 -20 1735.52 -20 0.207912 0.978148<326.316 1149.37>
LayerCount: 2
Fore
SplineSet
641 -20 m 0,0,1
 409 -20 409 -20 308 103 c 0,2,3
 223 207 223 207 223 343 c 0,4,5
 223 393 223 393 235 448 c 2,6,-1
 357 1021 l 2,7,8
 374 1100 374 1100 454 1100 c 2,9,-1
 594 1100 l 2,10,11
 660 1100 660 1100 660 1046 c 0,12,13
 660 1035 660 1035 657 1021 c 2,14,-1
 535 448 l 2,15,16
 527 413 527 413 527 385 c 0,17,18
 527 338 527 338 548 306 c 0,19,20
 578 260 578 260 670 260 c 0,21,22
 764 260 764 260 812 306 c 0,23,24
 866 359 866 359 885 448 c 2,25,-1
 1007 1021 l 2,26,27
 1024 1100 1024 1100 1104 1100 c 2,28,-1
 1244 1100 l 2,29,30
 1310 1100 1310 1100 1310 1046 c 0,31,32
 1310 1035 1310 1035 1307 1021 c 2,33,-1
 1185 448 l 2,34,35
 1177 413 1177 413 1177 385 c 0,36,37
 1177 338 1177 338 1198 306 c 0,38,39
 1228 260 1228 260 1320 260 c 0,40,41
 1415 260 1415 260 1462 306 c 0,42,43
 1516 359 1516 359 1535 448 c 2,44,-1
 1657 1021 l 2,45,46
 1674 1100 1674 1100 1754 1100 c 2,47,-1
 1894 1100 l 2,48,49
 1960 1100 1960 1100 1960 1046 c 0,50,51
 1960 1035 1960 1035 1957 1021 c 2,52,-1
 1835 448 l 2,53,54
 1783 202 1783 202 1661 103 c 0,55,56
 1508 -20 1508 -20 1291 -20 c 0,57,58
 1091 -20 1091 -20 988 86 c 1,59,60
 840 -20 840 -20 641 -20 c 0,0,1
EndSplineSet
Validated: 1
EndChar

StartChar: Oslash
Encoding: 216 216 167
Width: 1574
Flags: W
HStem: -20 300<715.125 1037.19> 1230 300<857.598 1179.64>
VStem: 214 328<422.701 850.599> 1352 329<659.401 1088.86>
DStem2: 390 39 496 -16 0.561488 0.827485<-22.4079 76.6873 406.054 1404.96 1734.33 1833.43>
LayerCount: 2
Fore
SplineSet
1399 1526 m 2,0,1
 1414 1548 1414 1548 1432 1548 c 0,2,3
 1440 1548 1440 1548 1449 1543 c 2,4,-1
 1498 1517 l 2,5,6
 1514 1509 1514 1509 1514 1495 c 0,7,8
 1514 1484 1514 1484 1505 1471 c 2,9,-1
 1465 1412 l 1,10,11
 1524 1365 1524 1365 1569 1299 c 0,12,13
 1681 1137 1681 1137 1681 903 c 0,14,15
 1681 832 1681 832 1671 755 c 0,16,17
 1630 446 1630 446 1393 211 c 0,18,19
 1160 -20 1160 -20 810 -20 c 0,20,21
 651 -20 651 -20 531 36 c 1,22,-1
 496 -16 l 2,23,24
 481 -38 481 -38 463 -38 c 0,25,26
 455 -38 455 -38 446 -33 c 2,27,-1
 397 -7 l 2,28,29
 381 1 381 1 381 15 c 0,30,31
 381 26 381 26 390 39 c 2,32,-1
 430 98 l 1,33,34
 371 145 371 145 326 211 c 0,35,36
 214 373 214 373 214 607 c 0,37,38
 214 678 214 678 224 755 c 0,39,40
 265 1064 265 1064 502 1299 c 0,41,42
 735 1530 735 1530 1084 1530 c 0,43,44
 1244 1530 1244 1530 1364 1474 c 1,45,-1
 1399 1526 l 2,0,1
848 280 m 0,46,47
 1021 280 1021 280 1149 404 c 0,48,49
 1290 540 1290 540 1335 755 c 0,50,51
 1352 834 1352 834 1352 902 c 0,52,53
 1352 1023 1352 1023 1298 1106 c 0,54,55
 1288 1121 1288 1121 1277 1135 c 1,56,-1
 714 305 l 1,57,58
 772 280 772 280 848 280 c 0,46,47
618 375 m 1,59,-1
 1181 1205 l 1,60,61
 1123 1230 1123 1230 1047 1230 c 0,62,63
 874 1230 874 1230 746 1106 c 0,64,65
 605 970 605 970 559 755 c 0,66,67
 542 677 542 677 542 610 c 0,68,69
 542 489 542 489 597 404 c 0,70,71
 607 388 607 388 618 375 c 1,59,-1
EndSplineSet
Validated: 1
EndChar

StartChar: oslash
Encoding: 248 248 168
Width: 1246
Flags: W
HStem: -20 280<620.877 821.679> 840 280<653.551 858.317>
VStem: 181 310<337.414 657.25> 988 311<437.234 763.555>
DStem2: 308 20 415 -35 0.561701 0.82734<-21.8193 70.6903 381.644 981.474 1287.4 1384.11>
LayerCount: 2
Fore
SplineSet
653 -20 m 0,0,1
 537 -20 537 -20 448 14 c 1,2,-1
 415 -35 l 2,3,4
 400 -57 400 -57 382 -57 c 0,5,6
 373 -57 373 -57 364 -52 c 2,7,-1
 315 -26 l 2,8,9
 299 -18 299 -18 299 -5 c 0,10,11
 299 7 299 7 308 20 c 2,12,-1
 344 73 l 1,13,14
 316 96 316 96 292 124 c 0,15,16
 181 255 181 255 181 455 c 0,17,18
 181 501 181 501 187 550 c 0,19,20
 219 827 219 827 408 976 c 0,21,22
 591 1120 591 1120 821 1120 c 0,23,24
 940 1120 940 1120 1030 1084 c 1,25,-1
 1065 1135 l 2,26,27
 1080 1157 1080 1157 1098 1157 c 0,28,29
 1107 1157 1107 1157 1116 1152 c 2,30,-1
 1164 1126 l 2,31,32
 1180 1117 1180 1117 1180 1104 c 0,33,34
 1180 1092 1180 1092 1172 1080 c 2,35,-1
 1134 1023 l 1,36,37
 1160 1002 1160 1002 1182 976 c 0,38,39
 1299 839 1299 839 1299 640 c 0,40,41
 1299 597 1299 597 1293 550 c 0,42,43
 1263 296 1263 296 1066 124 c 0,44,45
 901 -20 901 -20 653 -20 c 0,0,1
678 260 m 0,46,47
 772 260 772 260 854 326 c 0,48,49
 957 408 957 408 980 550 c 0,50,51
 988 600 988 600 988 641 c 0,52,53
 988 719 988 719 958 765 c 1,54,-1
 620 268 l 1,55,56
 647 260 647 260 678 260 c 0,46,47
522 336 m 1,57,-1
 860 833 l 1,58,59
 833 840 833 840 801 840 c 0,60,61
 707 840 707 840 630 779 c 0,62,63
 524 695 524 695 500 550 c 0,64,65
 491 500 491 500 491 459 c 0,66,67
 491 381 491 381 522 336 c 1,57,-1
EndSplineSet
Validated: 1
EndChar

StartChar: Thorn
Encoding: 222 222 169
Width: 1238
Flags: W
HStem: 0 21G<187 420.5> 242 301<576 891.562> 967 300<729 957.663> 1490 20G<501 734>
VStem: 1005 328<660.691 924.166>
DStem2: 140.208 0 460.208 0 0.207912 0.978148<62.2609 313.804 621.74 1055.19 1361.73 1548>
LayerCount: 2
Fore
SplineSet
666 967 m 1,0,-1
 576 543 l 1,1,-1
 739 543 l 2,2,3
 843 543 843 543 909 601 c 0,4,5
 979 662 979 662 999 756 c 0,6,7
 1005 785 1005 785 1005 811 c 0,8,9
 1005 869 1005 869 975 909 c 0,10,11
 931 967 931 967 829 967 c 2,12,-1
 666 967 l 1,0,-1
380 0 m 2,13,14
 220 0 l 2,15,16
 154 0 154 0 154 54 c 0,17,18
 154 65 154 65 157 79 c 2,19,-1
 444 1431 l 2,20,21
 461 1510 461 1510 541 1510 c 2,22,-1
 701 1510 l 2,23,24
 767 1510 767 1510 767 1456 c 0,25,26
 767 1445 767 1445 764 1431 c 2,27,-1
 729 1267 l 1,28,-1
 863 1267 l 2,29,30
 1108 1267 1108 1267 1235 1108 c 0,31,32
 1333 985 1333 985 1333 824 c 0,33,34
 1333 790 1333 790 1329 755 c 0,35,36
 1304 545 1304 545 1145 401 c 0,37,38
 971 242 971 242 705 242 c 2,39,-1
 511 242 l 1,40,-1
 477 79 l 2,41,42
 461 0 461 0 380 0 c 2,13,14
EndSplineSet
Validated: 1
EndChar

StartChar: thorn
Encoding: 254 254 170
Width: 1216
Flags: W
HStem: -410 21G<100 313> -20 280<516.625 795.394> 840 280<699.22 898.226> 1490 20G<501 714>
VStem: 961 318<453.318 773.449>
DStem2: 53.208 -410 353.208 -410 0.207912 0.978148<58.0247 531.467 780.975 1326.08 1555.86 1967.13>
LayerCount: 2
Fore
SplineSet
273 -410 m 2,0,-1
 133 -410 l 2,1,2
 67 -410 67 -410 67 -356 c 0,3,4
 67 -345 67 -345 70 -331 c 2,5,-1
 444 1431 l 2,6,7
 461 1510 461 1510 541 1510 c 2,8,-1
 681 1510 l 2,9,10
 747 1510 747 1510 747 1456 c 0,11,12
 747 1445 747 1445 744 1431 c 2,13,-1
 663 1051 l 1,14,15
 751 1120 751 1120 870 1120 c 0,16,17
 1057 1120 1057 1120 1159 1009 c 16,18,19
 1279 878 1279 878 1279 667 c 0,20,21
 1279 611 1279 611 1271 550 c 0,22,23
 1233 258 1233 258 1009 91 c 0,24,25
 860 -20 860 -20 688 -20 c 0,26,27
 531 -20 531 -20 450 49 c 1,28,-1
 370 -331 l 2,29,30
 353 -410 353 -410 273 -410 c 2,0,-1
507 313 m 1,31,32
 558 260 558 260 649.5 260 c 128,-1,33
 741 260 741 260 820 321 c 0,34,35
 917 396 917 396 950 550 c 0,36,37
 961 601 961 601 961 643 c 0,38,39
 961 725 961 725 920 774 c 0,40,41
 864 840 864 840 772.5 840 c 128,-1,42
 681 840 681 840 607 786 c 1,43,-1
 507 313 l 1,31,32
EndSplineSet
Validated: 1
EndChar

StartChar: uni203D
Encoding: 8253 8253 171
Width: 1200
Flags: W
HStem: -20 365<441.131 675.878> 1080 20G<679 828> 1111 21G<534 566> 1230 300<662.292 963.679>
VStem: 379 360<42.5657 282.578> 1012 322<940.884 1178.63>
LayerCount: 2
Fore
SplineSet
850 1530 m 0,0,1
 1110 1530 1110 1530 1239 1366 c 0,2,3
 1334 1245 1334 1245 1334 1098 c 0,4,5
 1334 1066 1334 1066 1330 1034 c 0,6,7
 1293 751 1293 751 962 609 c 0,8,9
 806 542 806 542 793 479 c 0,10,11
 776 400 776 400 696 400 c 2,12,-1
 536 400 l 2,13,14
 470 400 470 400 470 454 c 0,15,16
 470 465 470 465 473 479 c 0,17,18
 493 577 493 577 551 650 c 1,19,-1
 633 1034 l 2,20,21
 647 1100 647 1100 711 1100 c 2,22,-1
 801 1100 l 2,23,24
 855 1100 855 1100 855 1055 c 0,25,26
 855 1045 855 1045 853 1034 c 2,27,-1
 807 819 l 1,28,29
 987 903 987 903 1009 1036 c 0,30,31
 1012 1056 1012 1056 1012 1074 c 0,32,33
 1012 1124 1012 1124 988 1159 c 0,34,35
 938 1230 938 1230 816 1230 c 0,36,37
 687 1230 687 1230 610 1140 c 0,38,39
 585 1111 585 1111 547 1111 c 0,40,41
 521 1111 521 1111 499 1131 c 2,42,-1
 388 1231 l 2,43,44
 365 1252 365 1252 365 1281 c 128,-1,45
 365 1310 365 1310 396 1342 c 0,46,47
 574 1530 574 1530 850 1530 c 0,0,1
559 -20 m 0,48,49
 483 -20 483 -20 431 34 c 128,-1,50
 379 88 379 88 379 162 c 0,51,52
 379 238 379 238 431 291 c 0,53,54
 484 345 484 345 559 345 c 128,-1,55
 634 345 634 345 686.5 291.5 c 128,-1,56
 739 238 739 238 739 163 c 128,-1,57
 739 88 739 88 686 34 c 128,-1,58
 633 -20 633 -20 559 -20 c 0,48,49
EndSplineSet
Validated: 1
EndChar

StartChar: uni1E02
Encoding: 7682 7682 172
Width: 1300
Flags: W
HStem: 0 300<524 909.895> 676 281<663 972.134> 1230 280<721 1028.84> 1590 364<872.131 1106.34>
VStem: 810 360<1654.3 1891.73> 1019 318<401.111 629.168> 1065 314<1016.07 1201.2>
DStem2: 140.208 0 460.233 0 0.207912 0.978148<373.239 757.656 1044.78 1323.87>
LayerCount: 2
Fore
SplineSet
990 1954 m 0,0,1
 1066 1954 1066 1954 1118 1901 c 128,-1,2
 1170 1848 1170 1848 1170 1773 c 0,3,4
 1170 1699 1170 1699 1117 1644 c 0,5,6
 1065 1590 1065 1590 990 1590 c 0,7,8
 913 1590 913 1590 861.5 1644 c 128,-1,9
 810 1698 810 1698 810 1772 c 0,10,11
 810 1848 810 1848 862 1900 c 0,12,13
 915 1954 915 1954 990 1954 c 0,0,1
663 957 m 1,14,-1
 878 957 l 2,15,16
 937 957 937 957 985 987 c 0,17,18
 1049 1029 1049 1029 1062 1093 c 0,19,20
 1065 1109 1065 1109 1065 1123 c 0,21,22
 1065 1170 1065 1170 1030 1200 c 0,23,24
 993 1230 993 1230 936 1230 c 2,25,-1
 721 1230 l 1,26,-1
 663 957 l 1,14,-1
524 300 m 1,27,-1
 729 300 l 2,28,29
 857 300 857 300 937 363 c 0,30,31
 997 411 997 411 1014 488 c 0,32,33
 1019 510 1019 510 1019 529 c 0,34,35
 1019 578 1019 578 990 614 c 0,36,37
 939 676 939 676 809 676 c 2,38,-1
 604 676 l 1,39,-1
 524 300 l 1,27,-1
220 0 m 2,40,41
 154 0 154 0 154 54 c 0,42,43
 154 65 154 65 157 79 c 2,44,-1
 444 1431 l 2,45,46
 461 1510 461 1510 541 1510 c 2,47,-1
 956 1510 l 2,48,49
 1150 1510 1150 1510 1261 1414 c 0,50,51
 1379 1312 1379 1312 1379 1168 c 0,52,53
 1379 1141 1379 1141 1375 1112 c 0,54,55
 1352 958 1352 958 1197 858 c 1,56,57
 1214 845 1214 845 1228 831 c 0,58,59
 1337 716 1337 716 1337 547 c 0,60,61
 1337 517 1337 517 1333 484 c 0,62,63
 1310 271 1310 271 1144 143 c 0,64,65
 957 0 957 0 695 0 c 2,66,-1
 220 0 l 2,40,41
EndSplineSet
Validated: 1
EndChar

StartChar: uni1E03
Encoding: 7683 7683 173
Width: 1216
Flags: W
HStem: -20 280<516.215 795.394> 0 21G<187 398.5> 840 280<699.611 898.226> 1180 364<870.131 1104.34> 1490 20G<501 714>
VStem: 808 360<1244.3 1481.73> 961 318<453.033 773.449>
DStem2: 135.957 -20 432.908 -20 0.207912 0.978148<76.4714 134.326 382.978 924.148 1154.59 1568.45>
LayerCount: 2
Fore
SplineSet
988 1544 m 0,0,1
 1064 1544 1064 1544 1116 1491 c 128,-1,2
 1168 1438 1168 1438 1168 1363 c 0,3,4
 1168 1289 1168 1289 1115 1234 c 0,5,6
 1063 1180 1063 1180 988 1180 c 0,7,8
 911 1180 911 1180 859.5 1234 c 128,-1,9
 808 1288 808 1288 808 1362 c 0,10,11
 808 1438 808 1438 860 1490 c 0,12,13
 913 1544 913 1544 988 1544 c 0,0,1
360 0 m 2,14,-1
 220 0 l 2,15,16
 154 0 154 0 154 54 c 0,17,18
 154 65 154 65 157 79 c 2,19,-1
 444 1431 l 2,20,21
 461 1510 461 1510 541 1510 c 2,22,-1
 681 1510 l 2,23,24
 747 1510 747 1510 747 1456 c 0,25,26
 747 1445 747 1445 744 1431 c 2,27,-1
 660 1049 l 1,28,29
 750 1120 750 1120 870 1120 c 0,30,31
 1057 1120 1057 1120 1159 1009 c 16,32,33
 1279 878 1279 878 1279 667 c 0,34,35
 1279 611 1279 611 1271 550 c 0,36,37
 1231 257 1231 257 1009 91 c 0,38,39
 860 -20 860 -20 688 -20 c 0,40,41
 531 -20 531 -20 448 51 c 1,42,43
 437 0 437 0 360 0 c 2,14,-1
507 313 m 1,44,45
 558 260 558 260 649.5 260 c 128,-1,46
 741 260 741 260 820 321 c 0,47,48
 917 396 917 396 950 550 c 0,49,50
 961 601 961 601 961 643 c 0,51,52
 961 725 961 725 920 774 c 0,53,54
 864 840 864 840 772.5 840 c 128,-1,55
 681 840 681 840 607 786 c 1,56,-1
 507 313 l 1,44,45
EndSplineSet
Validated: 1
EndChar

StartChar: uni1E0A
Encoding: 7690 7690 174
Width: 1474
Flags: W
HStem: 0 300<524 944.131> 1210 300<717 1115.59> 1590 364<913.131 1147.34>
VStem: 851 360<1654.3 1891.73> 1249 322<651.711 1068.5>
DStem2: 140.208 0 460.233 0 0.207912 0.978148<373.239 1303.48>
LayerCount: 2
Fore
SplineSet
1031 1954 m 0,0,1
 1107 1954 1107 1954 1159 1901 c 128,-1,2
 1211 1848 1211 1848 1211 1773 c 0,3,4
 1211 1699 1211 1699 1158 1644 c 0,5,6
 1106 1590 1106 1590 1031 1590 c 0,7,8
 954 1590 954 1590 902.5 1644 c 128,-1,9
 851 1698 851 1698 851 1772 c 0,10,11
 851 1848 851 1848 903 1900 c 0,12,13
 956 1954 956 1954 1031 1954 c 0,0,1
220 0 m 2,14,15
 154 0 154 0 154 54 c 0,16,17
 154 65 154 65 157 79 c 2,18,-1
 444 1431 l 2,19,20
 461 1510 461 1510 541 1510 c 2,21,-1
 978 1510 l 2,22,23
 1294 1510 1294 1510 1455 1280 c 0,24,25
 1571 1112 1571 1112 1571 877 c 0,26,27
 1571 818 1571 818 1564 755 c 0,28,29
 1529 453 1529 453 1292 230 c 0,30,31
 1049 0 1049 0 717 0 c 2,32,-1
 220 0 l 2,14,15
524 300 m 1,33,-1
 751 300 l 2,34,35
 936 300 936 300 1058 423 c 24,36,37
 1194 560 1194 560 1235 755 c 0,38,39
 1249 822 1249 822 1249 881 c 0,40,41
 1249 998 1249 998 1194 1087 c 0,42,43
 1117 1210 1117 1210 944 1210 c 2,44,-1
 717 1210 l 1,45,-1
 524 300 l 1,33,-1
EndSplineSet
Validated: 1
EndChar

StartChar: uni1E0B
Encoding: 7691 7691 175
Width: 1216
Flags: W
HStem: -20 280<548.774 747.389> 0 21G<821.5 1036> 840 280<651.606 930.785> 1180 364<690.131 924.338> 1490 20G<1137 1350>
VStem: 168 318<326.551 646.967> 628 360<1244.3 1481.73>
DStem2: 769.006 -20 1071.96 -20 0.207912 0.978148<301.997 845.491 1093.46 1567.95>
LayerCount: 2
Fore
SplineSet
808 1544 m 0,0,1
 884 1544 884 1544 936 1491 c 128,-1,2
 988 1438 988 1438 988 1363 c 0,3,4
 988 1289 988 1289 935 1234 c 0,5,6
 883 1180 883 1180 808 1180 c 0,7,8
 731 1180 731 1180 679.5 1234 c 128,-1,9
 628 1288 628 1288 628 1362 c 0,10,11
 628 1438 628 1438 680 1490 c 0,12,13
 733 1544 733 1544 808 1544 c 0,0,1
996 0 m 2,14,-1
 856 0 l 2,15,16
 787 0 787 0 787 51 c 1,17,18
 697 -20 697 -20 577 -20 c 0,19,20
 390 -20 390 -20 288 91 c 16,21,22
 168 222 168 222 168 433 c 0,23,24
 168 489 168 489 176 550 c 0,25,26
 216 843 216 843 438 1009 c 0,27,28
 587 1120 587 1120 759 1120 c 0,29,30
 916 1120 916 1120 999 1049 c 1,31,-1
 1080 1431 l 2,32,33
 1097 1510 1097 1510 1177 1510 c 2,34,-1
 1317 1510 l 2,35,36
 1383 1510 1383 1510 1383 1456 c 0,37,38
 1383 1445 1383 1445 1380 1431 c 2,39,-1
 1093 79 l 2,40,41
 1076 0 1076 0 996 0 c 2,14,-1
940 787 m 1,42,43
 889 840 889 840 797.5 840 c 128,-1,44
 706 840 706 840 627 779 c 0,45,46
 530 704 530 704 497 550 c 0,47,48
 486 499 486 499 486 457 c 0,49,50
 486 375 486 375 527 326 c 0,51,52
 583 260 583 260 674.5 260 c 128,-1,53
 766 260 766 260 840 314 c 1,54,-1
 940 787 l 1,42,43
EndSplineSet
Validated: 1
EndChar

StartChar: uni1E1E
Encoding: 7710 7710 176
Width: 1078
Flags: W
HStem: 0 21G<187 420> 605 300<652 1023.3> 1210 300<717 1319.56> 1590 364<855.131 1089.34>
VStem: 793 360<1654.3 1891.73>
DStem2: 140.208 0 460.208 0 0.207912 0.978148<62.183 685.088 991.631 1303.48>
LayerCount: 2
Fore
SplineSet
973 1954 m 0,0,1
 1049 1954 1049 1954 1101 1901 c 128,-1,2
 1153 1848 1153 1848 1153 1773 c 0,3,4
 1153 1699 1153 1699 1100 1644 c 0,5,6
 1048 1590 1048 1590 973 1590 c 0,7,8
 896 1590 896 1590 844.5 1644 c 128,-1,9
 793 1698 793 1698 793 1772 c 0,10,11
 793 1848 793 1848 845 1900 c 0,12,13
 898 1954 898 1954 973 1954 c 0,0,1
380 0 m 2,14,-1
 220 0 l 2,15,16
 154 0 154 0 154 54 c 0,17,18
 154 65 154 65 157 79 c 2,19,-1
 444 1431 l 2,20,21
 461 1510 461 1510 541 1510 c 2,22,-1
 1299 1510 l 2,23,24
 1365 1510 1365 1510 1365 1456 c 0,25,26
 1365 1445 1365 1445 1362 1431 c 2,27,-1
 1332 1289 l 2,28,29
 1315 1210 1315 1210 1235 1210 c 2,30,-1
 717 1210 l 1,31,-1
 652 905 l 1,32,-1
 1004 905 l 2,33,34
 1071 905 1071 905 1071 850 c 0,35,36
 1071 839 1071 839 1068 826 c 2,37,-1
 1037 684 l 2,38,39
 1020 605 1020 605 941 605 c 2,40,-1
 589 605 l 1,41,-1
 477 79 l 2,42,43
 460 0 460 0 380 0 c 2,14,-1
EndSplineSet
Validated: 1
EndChar

StartChar: uni1E1F
Encoding: 7711 7711 177
Width: 850
Flags: W
HStem: -410 280<-96.0894 86.9072> 660 280<640 934.089> 1230 280<740.664 1095.09> 1590 364<708.131 942.338>
VStem: 646 360<1654.3 1891.73>
DStem2: 53.1409 -410 352.564 -410 0.207912 0.978148<311.705 1156.16 1442.51 1705.4>
LayerCount: 2
Fore
SplineSet
826 1954 m 0,0,1
 902 1954 902 1954 954 1901 c 128,-1,2
 1006 1848 1006 1848 1006 1773 c 0,3,4
 1006 1699 1006 1699 953 1644 c 0,5,6
 901 1590 901 1590 826 1590 c 0,7,8
 749 1590 749 1590 697.5 1644 c 128,-1,9
 646 1698 646 1698 646 1772 c 0,10,11
 646 1848 646 1848 698 1900 c 0,12,13
 751 1954 751 1954 826 1954 c 0,0,1
-72 -410 m 0,14,15
 -138 -410 -138 -410 -138 -356 c 0,16,17
 -138 -345 -138 -345 -135 -331 c 2,18,-1
 -109 -209 l 2,19,20
 -92 -130 -92 -130 -13 -130 c 0,21,22
 47 -130 47 -130 91 -84 c 0,23,24
 131 -43 131 -43 146 27 c 2,25,-1
 369 1076 l 2,26,27
 418 1307 418 1307 556 1410 c 0,28,29
 690 1510 690 1510 906 1510 c 2,30,-1
 1071 1510 l 2,31,32
 1137 1510 1137 1510 1137 1456 c 0,33,34
 1137 1445 1137 1445 1134 1431 c 2,35,-1
 1108 1309 l 2,36,37
 1091 1230 1091 1230 1011 1230 c 2,38,-1
 876 1230 l 2,39,40
 792 1230 792 1230 739 1192 c 0,41,42
 686 1153 686 1153 671 1085 c 2,43,-1
 640 940 l 1,44,-1
 910 940 l 2,45,46
 976 940 976 940 976 886 c 0,47,48
 976 875 976 875 973 861 c 2,49,-1
 947 739 l 2,50,51
 930 660 930 660 850 660 c 2,52,-1
 580 660 l 1,53,-1
 449 41 l 2,54,55
 401 -186 401 -186 277 -291 c 0,56,57
 138 -410 138 -410 -72 -410 c 0,14,15
EndSplineSet
Validated: 1
EndChar

StartChar: uni1E40
Encoding: 7744 7744 178
Width: 1942
Flags: W
HStem: 0 21G<145 371.5 804.5 1142.5 1580.5 1805.5> 1490 20G<554.5 945 1629 2024.5> 1590 364<1226.13 1460.34>
VStem: 724 259<1006.49 1138> 766 255<281 430.592> 1164 360<1654.3 1891.73>
DStem2: 117 79 432 79 0.268599 0.963252<-5.01612 1183.12> 1021 281 1208 64 0.42182 0.90668<0 1066.81> 1549 79 1859 79 0.144187 0.98955<-19.8614 1070.86>
LayerCount: 2
Fore
SplineSet
1344 1954 m 0,0,1
 1420 1954 1420 1954 1472 1901 c 128,-1,2
 1524 1848 1524 1848 1524 1773 c 0,3,4
 1524 1699 1524 1699 1471 1644 c 0,5,6
 1419 1590 1419 1590 1344 1590 c 0,7,8
 1267 1590 1267 1590 1215.5 1644 c 128,-1,9
 1164 1698 1164 1698 1164 1772 c 0,10,11
 1164 1848 1164 1848 1216 1900 c 0,12,13
 1269 1954 1269 1954 1344 1954 c 0,0,1
333 0 m 2,14,-1
 178 0 l 2,15,16
 112 0 112 0 112 48 c 0,17,18
 112 61 112 61 117 79 c 2,19,-1
 494 1431 l 2,20,21
 516 1510 516 1510 593 1510 c 2,22,-1
 909 1510 l 2,23,24
 981 1510 981 1510 983 1446 c 2,25,-1
 1021 281 l 1,26,-1
 1563 1446 l 2,27,28
 1593 1510 1593 1510 1665 1510 c 2,29,-1
 1991 1510 l 2,30,31
 2058 1510 2058 1510 2058 1451 c 0,32,33
 2058 1445 2058 1445 2056 1431 c 2,34,-1
 1859 79 l 2,35,36
 1847 0 1847 0 1764 0 c 2,37,-1
 1614 0 l 2,38,39
 1547 0 1547 0 1547 59 c 0,40,41
 1547 66 1547 66 1549 79 c 2,42,-1
 1708 1138 l 1,43,-1
 1208 64 l 2,44,45
 1178 0 1178 0 1107 0 c 2,46,-1
 840 0 l 2,47,48
 769 0 769 0 766 64 c 2,49,-1
 724 1138 l 1,50,-1
 432 79 l 2,51,52
 410 0 410 0 333 0 c 2,14,-1
EndSplineSet
Validated: 1
EndChar

StartChar: uni1E41
Encoding: 7745 7745 179
Width: 1880
Flags: W
HStem: 0 21G<187 400 837 1050 1487 1700> 840 280<706.289 910.321 1293.04 1559.64> 1080 20G<414 627> 1180 364<1097.13 1331.34>
VStem: 939 305<613.529 796.058> 1035 360<1244.3 1481.73> 1589 308<633.717 796.058>
DStem2: 140.208 0 440.208 0 0.207912 0.978148<58.0247 904.649> 790.208 0 1090.21 0 0.207912 0.978148<58.0247 734.589> 1440.21 0 1740.21 0 0.207912 0.978148<58.0247 734.589>
LayerCount: 2
Fore
SplineSet
1215 1544 m 0,0,1
 1291 1544 1291 1544 1343 1491 c 128,-1,2
 1395 1438 1395 1438 1395 1363 c 0,3,4
 1395 1289 1395 1289 1342 1234 c 0,5,6
 1290 1180 1290 1180 1215 1180 c 0,7,8
 1138 1180 1138 1180 1086.5 1234 c 128,-1,9
 1035 1288 1035 1288 1035 1362 c 0,10,11
 1035 1438 1035 1438 1087 1490 c 0,12,13
 1140 1544 1140 1544 1215 1544 c 0,0,1
360 0 m 2,14,-1
 220 0 l 2,15,16
 154 0 154 0 154 54 c 0,17,18
 154 65 154 65 157 79 c 2,19,-1
 357 1021 l 2,20,21
 374 1100 374 1100 454 1100 c 2,22,-1
 594 1100 l 2,23,24
 660 1100 660 1100 660 1049 c 1,25,26
 764 1120 764 1120 894 1120 c 0,27,28
 1065 1120 1065 1120 1165 1003 c 1,29,30
 1326 1120 1326 1120 1511 1120 c 0,31,32
 1707 1120 1707 1120 1808 1009 c 0,33,34
 1897 911 1897 911 1897 783 c 0,35,36
 1897 741 1897 741 1888 697 c 2,37,-1
 1757 79 l 2,38,39
 1740 0 1740 0 1660 0 c 2,40,-1
 1520 0 l 2,41,42
 1454 0 1454 0 1454 54 c 0,43,44
 1454 65 1454 65 1457 79 c 2,45,-1
 1584 676 l 2,46,47
 1589 700 1589 700 1589 720 c 0,48,49
 1589 767 1589 767 1562 797 c 0,50,51
 1523 840 1523 840 1427 840 c 0,52,53
 1326 840 1326 840 1244 772 c 1,54,55
 1243 718 1243 718 1234 676 c 2,56,-1
 1107 79 l 2,57,58
 1090 0 1090 0 1010 0 c 2,59,-1
 870 0 l 2,60,61
 804 0 804 0 804 54 c 0,62,63
 804 65 804 65 807 79 c 2,64,-1
 934 676 l 2,65,66
 939 700 939 700 939 720 c 0,67,68
 939 767 939 767 912 797 c 0,69,70
 873 840 873 840 777 840 c 0,71,72
 682 840 682 840 607 784 c 1,73,-1
 457 79 l 2,74,75
 440 0 440 0 360 0 c 2,14,-1
EndSplineSet
Validated: 1
EndChar

StartChar: uni1E56
Encoding: 7766 7766 180
Width: 1238
Flags: W
HStem: 0 21G<187 420> 485 301<627 942.562> 1210 300<717 1014.09> 1590 364<871.131 1105.34>
VStem: 809 360<1654.3 1891.73> 1056 328<903.691 1167.17>
DStem2: 140.208 0 460.208 0 0.207912 0.978148<62.183 562.305 870.034 1303.48>
LayerCount: 2
Fore
SplineSet
989 1954 m 0,0,1
 1065 1954 1065 1954 1117 1901 c 128,-1,2
 1169 1848 1169 1848 1169 1773 c 0,3,4
 1169 1699 1169 1699 1116 1644 c 0,5,6
 1064 1590 1064 1590 989 1590 c 0,7,8
 912 1590 912 1590 860.5 1644 c 128,-1,9
 809 1698 809 1698 809 1772 c 0,10,11
 809 1848 809 1848 861 1900 c 0,12,13
 914 1954 914 1954 989 1954 c 0,0,1
380 0 m 2,14,-1
 220 0 l 2,15,16
 154 0 154 0 154 54 c 0,17,18
 154 65 154 65 157 79 c 2,19,-1
 444 1431 l 2,20,21
 461 1510 461 1510 541 1510 c 2,22,-1
 914 1510 l 2,23,24
 1156 1510 1156 1510 1286 1351 c 0,25,26
 1384 1228 1384 1228 1384 1067 c 0,27,28
 1384 1033 1384 1033 1380 998 c 0,29,30
 1355 788 1355 788 1196 644 c 0,31,32
 1022 485 1022 485 756 485 c 2,33,-1
 563 485 l 1,34,-1
 477 79 l 2,35,36
 460 0 460 0 380 0 c 2,14,-1
717 1210 m 1,37,-1
 627 786 l 1,38,-1
 790 786 l 2,39,40
 894 786 894 786 960 844 c 0,41,42
 1030 905 1030 905 1050 999 c 0,43,44
 1056 1028 1056 1028 1056 1054 c 0,45,46
 1056 1112 1056 1112 1026 1152 c 0,47,48
 982 1210 982 1210 880 1210 c 2,49,-1
 717 1210 l 1,37,-1
EndSplineSet
Validated: 1
EndChar

StartChar: uni1E57
Encoding: 7767 7767 181
Width: 1216
Flags: W
HStem: -410 21G<100 313.5> -20 280<516.215 795.394> 840 280<699.611 898.226> 1080 20G<414 627> 1180 364<774.131 1008.34>
VStem: 712 360<1244.3 1481.73> 961 318<453.033 773.449>
DStem2: 53.208 -410 353.208 -410 0.207912 0.978148<58.1027 533.008 780.975 1326.08>
LayerCount: 2
Fore
SplineSet
892 1544 m 0,0,1
 968 1544 968 1544 1020 1491 c 128,-1,2
 1072 1438 1072 1438 1072 1363 c 0,3,4
 1072 1289 1072 1289 1019 1234 c 0,5,6
 967 1180 967 1180 892 1180 c 0,7,8
 815 1180 815 1180 763.5 1234 c 128,-1,9
 712 1288 712 1288 712 1362 c 0,10,11
 712 1438 712 1438 764 1490 c 0,12,13
 817 1544 817 1544 892 1544 c 0,0,1
273 -410 m 2,14,-1
 133 -410 l 2,15,16
 67 -410 67 -410 67 -356 c 0,17,18
 67 -345 67 -345 70 -331 c 2,19,-1
 357 1021 l 2,20,21
 374 1100 374 1100 454 1100 c 2,22,-1
 594 1100 l 2,23,24
 660 1100 660 1100 660 1049 c 1,25,26
 750 1120 750 1120 870 1120 c 0,27,28
 1057 1120 1057 1120 1159 1009 c 16,29,30
 1279 878 1279 878 1279 667 c 0,31,32
 1279 611 1279 611 1271 550 c 0,33,34
 1231 257 1231 257 1009 91 c 0,35,36
 860 -20 860 -20 688 -20 c 0,37,38
 531 -20 531 -20 448 51 c 1,39,-1
 370 -331 l 2,40,41
 354 -410 354 -410 273 -410 c 2,14,-1
507 313 m 1,42,43
 558 260 558 260 649.5 260 c 128,-1,44
 741 260 741 260 820 321 c 0,45,46
 917 396 917 396 950 550 c 0,47,48
 961 601 961 601 961 643 c 0,49,50
 961 725 961 725 920 774 c 0,51,52
 864 840 864 840 772.5 840 c 128,-1,53
 681 840 681 840 607 786 c 1,54,-1
 507 313 l 1,42,43
EndSplineSet
Validated: 1
EndChar

StartChar: uni1E60
Encoding: 7776 7776 182
Width: 1251
Flags: W
HStem: -20 300<476.495 819.82> 1252 278<781.115 997.865> 1590 364<867.131 1101.34>
VStem: 427 326<1048.09 1221.14> 805 360<1654.3 1891.73> 952 330<396.412 618.721>
LayerCount: 2
Fore
SplineSet
985 1954 m 0,0,1
 1061 1954 1061 1954 1113 1901 c 128,-1,2
 1165 1848 1165 1848 1165 1773 c 0,3,4
 1165 1699 1165 1699 1112 1644 c 0,5,6
 1060 1590 1060 1590 985 1590 c 0,7,8
 908 1590 908 1590 856.5 1644 c 128,-1,9
 805 1698 805 1698 805 1772 c 0,10,11
 805 1848 805 1848 857 1900 c 0,12,13
 910 1954 910 1954 985 1954 c 0,0,1
596 -20 m 0,14,15
 285 -20 285 -20 154 216 c 0,16,17
 143 234 143 234 143 257 c 0,18,19
 143 295 143 295 193 327 c 2,20,-1
 318 408 l 2,21,22
 349 428 349 428 375 428 c 0,23,24
 411 428 411 428 425 393 c 0,25,26
 470 280 470 280 637 280 c 0,27,28
 762 280 762 280 853 344 c 0,29,30
 936 402 936 402 950 494 c 0,31,32
 952 508 952 508 952 521 c 0,33,34
 952 608 952 608 860 653 c 2,35,-1
 649 756 l 2,36,37
 427 864 427 864 427 1081 c 0,38,39
 427 1102 427 1102 429 1124 c 0,40,41
 448 1327 448 1327 629 1447 c 0,42,43
 754 1530 754 1530 931 1530 c 0,44,45
 1178 1530 1178 1530 1283 1358 c 0,46,47
 1294 1340 1294 1340 1294 1317 c 0,48,49
 1294 1279 1294 1279 1245 1247 c 2,50,-1
 1120 1166 l 2,51,52
 1089 1146 1089 1146 1063 1146 c 0,53,54
 1027 1146 1027 1146 1013 1181 c 24,55,56
 985 1252 985 1252 901 1252 c 0,57,58
 835 1252 835 1252 795 1220 c 0,59,60
 762 1194 762 1194 755 1158 c 0,61,62
 753 1147 753 1147 753 1137 c 0,63,64
 753 1057 753 1057 869 1001 c 2,65,-1
 1061 908 l 2,66,67
 1282 801 1282 801 1282 567 c 0,68,69
 1282 534 1282 534 1277 498 c 0,70,71
 1253 304 1253 304 1096 158 c 0,72,73
 904 -20 904 -20 596 -20 c 0,14,15
EndSplineSet
Validated: 1
EndChar

StartChar: uni1E61
Encoding: 7777 7777 183
Width: 985
Flags: W
HStem: -20 249<384.374 663.026> 876 244<590.449 778.832> 1180 364<651.131 885.338>
VStem: 289 280<735.515 859.604> 589 360<1244.3 1481.73> 712 291<276.835 432.079>
LayerCount: 2
Fore
SplineSet
769 1544 m 0,0,1
 845 1544 845 1544 897 1491 c 128,-1,2
 949 1438 949 1438 949 1363 c 0,3,4
 949 1289 949 1289 896 1234 c 0,5,6
 844 1180 844 1180 769 1180 c 0,7,8
 692 1180 692 1180 640.5 1234 c 128,-1,9
 589 1288 589 1288 589 1362 c 0,10,11
 589 1438 589 1438 641 1490 c 0,12,13
 694 1544 694 1544 769 1544 c 0,0,1
462 -20 m 0,14,15
 245 -20 245 -20 122 141 c 0,16,17
 107 162 107 162 107 185 c 0,18,19
 107 218 107 218 152 253 c 2,20,-1
 237 319 l 2,21,22
 270 345 270 345 293 345 c 0,23,24
 327 345 327 345 348 314 c 0,25,26
 406 229 406 229 517 229 c 0,27,28
 604 229 604 229 656 267 c 0,29,30
 702 300 702 300 710 339 c 0,31,32
 712 352 712 352 712 363 c 0,33,34
 712 418 712 418 655 438 c 10,35,-1
 522 485 l 2,36,37
 289 567 289 567 289 768 c 0,38,39
 289 788 289 788 291 808 c 0,40,41
 307 958 307 958 429 1042 c 0,42,43
 542 1120 542 1120 700 1120 c 0,44,45
 918 1120 918 1120 1012 971 c 0,46,47
 1024 952 1024 952 1024 927 c 0,48,49
 1024 891 1024 891 982 859 c 2,50,-1
 910 804 l 2,51,52
 876 778 876 778 853 778 c 0,53,54
 819 778 819 778 799 809 c 0,55,56
 753 876 753 876 665 876 c 0,57,58
 628 876 628 876 601 858 c 0,59,60
 569 835 569 835 569 797 c 0,61,62
 569 749 569 749 625 729 c 2,63,-1
 791 669 l 2,64,65
 1003 592 1003 592 1003 396 c 0,66,67
 1003 378 1003 378 1001 358 c 0,68,69
 986 199 986 199 843 93 c 0,70,71
 695 -20 695 -20 462 -20 c 0,14,15
EndSplineSet
Validated: 1
EndChar

StartChar: uni1E6A
Encoding: 7786 7786 184
Width: 1226
Flags: W
HStem: 0 21G<500 733> 1210 300<336.438 710 1030 1467.56> 1590 364<868.131 1102.34>
VStem: 806 360<1654.3 1891.73>
DStem2: 453.208 0 773.208 0 0.207912 0.978148<62.183 1236.95>
LayerCount: 2
Fore
SplineSet
986 1954 m 0,0,1
 1062 1954 1062 1954 1114 1901 c 128,-1,2
 1166 1848 1166 1848 1166 1773 c 0,3,4
 1166 1699 1166 1699 1113 1644 c 0,5,6
 1061 1590 1061 1590 986 1590 c 0,7,8
 909 1590 909 1590 857.5 1644 c 128,-1,9
 806 1698 806 1698 806 1772 c 0,10,11
 806 1848 806 1848 858 1900 c 0,12,13
 911 1954 911 1954 986 1954 c 0,0,1
533 0 m 2,14,15
 467 0 467 0 467 54 c 0,16,17
 467 65 467 65 470 79 c 2,18,-1
 710 1210 l 1,19,-1
 357 1210 l 2,20,21
 291 1210 291 1210 291 1264 c 0,22,23
 291 1275 291 1275 294 1289 c 2,24,-1
 324 1431 l 2,25,26
 341 1510 341 1510 421 1510 c 2,27,-1
 1447 1510 l 2,28,29
 1513 1510 1513 1510 1513 1456 c 0,30,31
 1513 1445 1513 1445 1510 1431 c 2,32,-1
 1480 1289 l 2,33,34
 1463 1210 1463 1210 1383 1210 c 2,35,-1
 1030 1210 l 1,36,-1
 790 79 l 2,37,38
 773 0 773 0 693 0 c 2,39,-1
 533 0 l 2,14,15
EndSplineSet
Validated: 1
EndChar

StartChar: uni1E6B
Encoding: 7787 7787 185
Width: 894
Flags: W
HStem: 0 21G<349 552> 820 280<249.911 476 826 1052.09> 1490 20G<663 866> 1590 364<715.131 949.338>
VStem: 208 886<859.056 1060.94> 653 360<1654.3 1891.73>
DStem2: 302.208 0 592.208 0 0.207912 0.978148<56.0246 838.214 1184.86 1547.93>
LayerCount: 2
Fore
SplineSet
833 1954 m 0,0,1
 909 1954 909 1954 961 1901 c 128,-1,2
 1013 1848 1013 1848 1013 1773 c 0,3,4
 1013 1699 1013 1699 960 1644 c 0,5,6
 908 1590 908 1590 833 1590 c 0,7,8
 756 1590 756 1590 704.5 1644 c 128,-1,9
 653 1698 653 1698 653 1772 c 0,10,11
 653 1848 653 1848 705 1900 c 0,12,13
 758 1954 758 1954 833 1954 c 0,0,1
382 0 m 2,14,15
 316 0 316 0 316 54 c 0,16,17
 316 65 316 65 319 79 c 2,18,-1
 476 820 l 1,19,-1
 274 820 l 2,20,21
 208 820 208 820 208 874 c 0,22,23
 208 885 208 885 211 899 c 2,24,-1
 237 1021 l 2,25,26
 254 1100 254 1100 334 1100 c 2,27,-1
 536 1100 l 1,28,-1
 606 1431 l 2,29,30
 623 1510 623 1510 703 1510 c 2,31,-1
 833 1510 l 2,32,33
 899 1510 899 1510 899 1456 c 0,34,35
 899 1445 899 1445 896 1431 c 2,36,-1
 826 1100 l 1,37,-1
 1028 1100 l 2,38,39
 1094 1100 1094 1100 1094 1046 c 0,40,41
 1094 1035 1094 1035 1091 1021 c 2,42,-1
 1065 899 l 2,43,44
 1048 820 1048 820 968 820 c 2,45,-1
 766 820 l 1,46,-1
 609 79 l 2,47,48
 592 0 592 0 512 0 c 2,49,-1
 382 0 l 2,14,15
EndSplineSet
Validated: 1
EndChar

StartChar: Wgrave
Encoding: 7808 7808 186
Width: 1965
Flags: W
HStem: 0 21G<353.5 723.5 1241.5 1611> 1490 20G<370 599.5 1138 1447.5 1986 2222.5>
VStem: 319 296<338 1162.7> 325 309<606.303 1503.04> 1207 266<340 884.08> 1226 256<340.92 1146>
DStem2: 615 338 791 79 0.384315 0.923202<0 980.764> 1473 340 1679 79 0.387905 0.9217<0 1287.47>
LayerCount: 2
Fore
SplineSet
1297 1980 m 128,-1,1
 1318 1980 1318 1980 1330 1954 c 2,2,-1
 1448 1699 l 2,3,4
 1452 1690 1452 1690 1452 1681 c 0,5,6
 1452 1653 1452 1653 1429 1635 c 2,7,-1
 1364 1584 l 2,8,9
 1346 1570 1346 1570 1322 1570 c 0,10,11
 1299 1570 1299 1570 1285 1591 c 2,12,-1
 1133 1821 l 2,13,14
 1125 1833 1125 1833 1125 1847 c 0,15,16
 1125 1875 1125 1875 1152 1894 c 2,17,-1
 1257 1967 l 2,18,0
 1276 1980 1276 1980 1297 1980 c 128,-1,1
688 0 m 2,19,-1
 388 0 l 2,20,21
 319 0 319 0 319 79 c 2,22,-1
 325 1431 l 2,23,24
 325 1510 325 1510 415 1510 c 2,25,-1
 565 1510 l 2,26,27
 634 1510 634 1510 634 1431 c 9,28,-1
 615 338 l 1,29,-1
 1070 1431 l 2,30,31
 1103 1510 1103 1510 1173 1510 c 2,32,-1
 1413 1510 l 2,33,34
 1482 1510 1482 1510 1482 1431 c 9,35,-1
 1473 340 l 1,36,-1
 1931 1461 l 2,37,38
 1951 1510 1951 1510 2021 1510 c 2,39,-1
 2191 1510 l 2,40,41
 2254 1510 2254 1510 2254 1461 c 0,42,43
 2254 1445 2254 1445 2248 1431 c 2,44,-1
 1679 79 l 2,45,46
 1646 0 1646 0 1576 0 c 2,47,-1
 1276 0 l 2,48,49
 1207 0 1207 0 1207 79 c 9,50,-1
 1226 1146 l 1,51,-1
 791 79 l 2,52,53
 759 0 759 0 688 0 c 2,19,-1
EndSplineSet
Validated: 1
EndChar

